<svg width="336" height="224" viewBox="0 0 336 224" fill="none" xmlns="http://www.w3.org/2000/svg">
<path d="M307.534 80.0442C308.083 80.6516 308.504 81.3633 308.772 82.1368C309.039 82.9104 309.149 83.7299 309.093 84.5466C308.971 86.1816 308.474 87.7665 307.642 89.179C306.118 91.9476 303.269 94.1966 300.536 95.787C298.968 92.651 299.936 88.6951 300.536 86.7239C301.508 83.5879 305.164 78.5569 307.516 80.0442" fill="#EBEBEB"/>
<path d="M301.41 101.745C301.584 100.847 301.993 100.011 302.595 99.3217C303.197 98.6325 303.971 98.1147 304.837 97.8209C305.707 97.5401 306.624 97.4351 307.534 97.512C308.445 97.5889 309.331 97.8462 310.141 98.2689C310.894 98.6452 311.638 99.2187 311.821 100.061C311.881 100.451 311.836 100.851 311.691 101.218C311.546 101.585 311.307 101.908 310.997 102.153C310.369 102.638 309.624 102.947 308.838 103.049C306.15 103.497 303.511 103.461 301.41 101.759" fill="#EBEBEB"/>
<path d="M294.618 109.357C294.713 109.161 294.824 108.974 294.95 108.797L295.909 107.31C296.733 106.073 297.871 104.286 299.69 102.83C301.213 101.568 303.046 100.735 304.999 100.419C305.592 100.332 306.194 100.317 306.791 100.375C306.952 100.387 307.112 100.41 307.27 100.442C307.382 100.442 307.436 100.473 307.436 100.482C306.634 100.434 305.829 100.467 305.034 100.581C303.119 100.946 301.327 101.793 299.829 103.04C298.037 104.451 296.899 106.203 296.043 107.417C295.617 108.031 295.272 108.528 295.022 108.864C294.904 109.041 294.769 109.206 294.618 109.357Z" fill="#E0E0E0"/>
<path d="M305.088 84.1345C305.069 84.2276 305.042 84.319 305.007 84.4077L304.747 85.1738C304.515 85.8413 304.165 86.7956 303.726 87.9738C302.83 90.3303 301.58 93.5693 300.106 97.113C298.632 100.657 297.226 103.833 296.173 106.127C295.649 107.269 295.214 108.188 294.909 108.815C294.762 109.11 294.641 109.352 294.551 109.541C294.513 109.627 294.466 109.709 294.412 109.787C294.433 109.696 294.465 109.607 294.506 109.523C294.591 109.33 294.694 109.075 294.829 108.774L296.025 106.051C297.037 103.748 298.422 100.563 299.896 97.0189C301.37 93.4753 302.655 90.2497 303.574 87.9066L304.662 85.1335C304.788 84.8289 304.886 84.578 304.967 84.3853C304.998 84.2975 305.038 84.2133 305.088 84.1345Z" fill="#E0E0E0"/>
<path d="M296.455 101.777C296.884 99.8947 296.859 97.9376 296.381 96.0677C295.902 94.1977 294.985 92.4688 293.704 91.0245C293.05 90.2943 292.087 89.6044 291.164 89.9359C290.241 90.2674 289.945 91.4188 289.927 92.3999C289.925 94.4475 290.529 96.4501 291.663 98.1553C292.796 99.8605 294.409 101.192 296.298 101.983" fill="#EBEBEB"/>
<path d="M292.992 93.9501C293.15 94.0829 293.293 94.2332 293.417 94.3981C293.58 94.5711 293.729 94.7552 293.865 94.9492C294.031 95.1777 294.237 95.4196 294.421 95.7242C294.634 96.0453 294.83 96.3772 295.008 96.7188C295.22 97.1062 295.41 97.5056 295.577 97.9149C295.959 98.8574 296.233 99.8404 296.392 100.845C296.536 101.851 296.563 102.87 296.473 103.882C296.432 104.323 296.365 104.762 296.271 105.195C296.197 105.574 296.1 105.948 295.98 106.315C295.89 106.619 295.784 106.918 295.662 107.211C295.579 107.436 295.48 107.654 295.366 107.865C295.287 108.053 295.19 108.234 295.075 108.403C295.026 108.403 295.442 107.61 295.828 106.266C295.933 105.902 296.018 105.532 296.083 105.159C296.166 104.731 296.226 104.299 296.262 103.864C296.341 102.868 296.309 101.866 296.168 100.876C296.009 99.8911 295.746 98.9256 295.384 97.9956C295.205 97.57 295.039 97.1668 294.842 96.8039C294.673 96.463 294.486 96.131 294.282 95.8093C293.529 94.6177 292.929 93.9815 292.992 93.9501Z" fill="#E0E0E0"/>
<path d="M29.1469 52.1204C29.1469 52.1204 25.0253 53.4644 29.0215 62.29C33.0176 71.1156 35.8714 75.5418 35.8714 75.5418C35.8714 75.5418 36.5568 77.5802 34.8544 77.8132C33.152 78.0461 29.4784 77.28 28.6183 79.3095C27.7223 81.4106 29.2007 83.5028 32.2695 85.4247C35.3383 87.3466 41.9104 91.7952 42.5018 92.1984C43.0931 92.6016 43.6397 93.5424 42.5018 93.9008C41.3639 94.2592 32.9728 94.7252 33.4387 98.6944C33.9047 102.664 43.3395 106.624 44.352 107.072C45.3645 107.52 45.6019 107.968 45.4899 108.541C45.3779 109.115 42.5421 108.989 40.1587 109.24C37.7754 109.491 35.056 110.163 35.5175 112.43C35.9789 114.697 41.44 119.674 55.1757 121.672L61.6 122.183L65.3543 116.91C72.7104 105.141 72.4416 97.7581 71.0125 95.9392C69.5834 94.1204 67.2941 95.7511 65.5783 97.4176C63.8624 99.0842 62.1018 101.315 61.6 101.033C61.0983 100.751 60.8967 100.285 61.2103 99.2141C61.5239 98.1434 64.6195 88.3994 61.8912 85.4784C59.1629 82.5575 53.3792 88.6503 52.3757 89.2954C51.3722 89.9405 51.0093 88.8922 51.081 88.1888C51.1527 87.4855 52.0039 79.5872 52.5235 76.0032C53.0432 72.4192 52.3936 69.9552 50.2208 69.2832C48.1242 68.6202 46.3232 71.9264 45.0464 73.0733C43.7696 74.2202 42.6586 72.3789 42.6586 72.3789C42.6586 72.3789 41.1309 67.3524 36.9735 58.5895C32.816 49.8266 29.0573 52.1876 29.0573 52.1876" fill="#EBEBEB"/>
<path d="M61.8687 123.702C58.8402 117.251 53.6523 105.701 49.1455 95.8093C44.6386 85.9175 40.5528 76.9664 37.5557 70.5063L34.0031 62.8544L33.0399 60.7757L32.7935 60.2292C32.7596 60.1653 32.7297 60.0995 32.7039 60.032C32.7039 60.032 32.7397 60.0903 32.8024 60.2112L33.0667 60.7488C33.2952 61.2282 33.6312 61.9226 34.0658 62.8141C34.9304 64.6061 36.1624 67.209 37.6767 70.4301C40.7051 76.8768 44.8133 85.8189 49.3247 95.7108C53.836 105.603 59.0015 117.179 61.9986 123.648" fill="#E0E0E0"/>
<path d="M33.7346 80.5862C33.8883 80.6211 34.0383 80.6706 34.1826 80.7341C34.4604 80.8371 34.8636 81.0029 35.3564 81.209C36.342 81.6256 37.6905 82.2349 39.1689 82.9338L42.941 84.7258L44.0879 85.2634C44.2319 85.3216 44.3699 85.3936 44.5001 85.4784C44.3453 85.4496 44.1948 85.4014 44.0521 85.335C43.7698 85.232 43.3711 85.0662 42.8783 84.8557C41.8927 84.4077 40.5532 83.8029 39.0793 83.104L35.2937 81.312L34.1468 80.7789C34.0026 80.7304 33.8643 80.6658 33.7346 80.5862Z" fill="#E0E0E0"/>
<path d="M44.9525 85.1199C44.9032 85.1199 46.0366 82.2617 47.4837 78.7897C48.9307 75.3177 50.1717 72.5177 50.1986 72.5177C50.2254 72.5177 49.1189 75.3759 47.6674 78.8524C46.2158 82.3289 45.0062 85.1199 44.9525 85.1199Z" fill="#E0E0E0"/>
<path d="M51.1885 100.598C51.2688 100.462 51.3634 100.334 51.4707 100.217C51.6858 99.9442 51.959 99.6082 52.2816 99.2095C52.9626 98.3583 53.9034 97.1756 54.8934 95.836C55.8835 94.4965 56.7392 93.26 57.353 92.3551L58.0787 91.2844C58.1609 91.149 58.2554 91.0216 58.361 90.9036C58.3071 91.0532 58.2332 91.1948 58.1414 91.3247C57.9891 91.5935 57.7606 91.9698 57.4694 92.4312C56.887 93.3586 56.0493 94.6175 55.0502 95.957C54.0512 97.2965 53.1014 98.4703 52.3891 99.2991C52.0307 99.7112 51.7395 100.043 51.529 100.267C51.4294 100.391 51.3151 100.502 51.1885 100.598Z" fill="#E0E0E0"/>
<path d="M40.1409 98.7571C40.2907 98.7472 40.4413 98.7563 40.5889 98.784L41.7761 98.9318C42.7751 99.0707 44.1549 99.2723 45.6781 99.5053C47.2013 99.7382 48.5767 99.9533 49.5713 100.132L50.7495 100.348C50.8951 100.364 51.038 100.399 51.1751 100.451C51.0252 100.46 50.8747 100.451 50.7271 100.424L49.5444 100.276C48.5409 100.137 47.161 99.9353 45.6378 99.7024C44.1146 99.4694 42.7393 99.2544 41.7447 99.0752L40.5709 98.8601C40.4242 98.8419 40.28 98.8073 40.1409 98.7571Z" fill="#E0E0E0"/>
<path d="M43.9041 113.142C44.0916 113.138 44.2791 113.151 44.4641 113.183L45.9873 113.371C47.2685 113.537 49.0381 113.779 50.9914 114.061C52.9447 114.343 54.7143 114.607 55.9911 114.813L57.5053 115.06C57.692 115.085 57.8762 115.126 58.0564 115.181C57.8674 115.186 57.6783 115.172 57.4919 115.14L55.9732 114.952C54.6919 114.787 52.9178 114.54 50.9645 114.258C49.0113 113.976 47.2417 113.711 45.9649 113.51L44.4551 113.259C44.2682 113.237 44.0837 113.198 43.9041 113.142Z" fill="#E0E0E0"/>
<path d="M57.7336 115.037C57.8337 114.862 57.9491 114.695 58.0786 114.54C58.3295 114.2 58.661 113.761 59.0597 113.228C59.8885 112.116 61.0264 110.58 62.2361 108.846C63.4457 107.112 64.5029 105.517 65.2556 104.366L66.1516 102.991C66.2531 102.817 66.3684 102.653 66.4965 102.498C66.4182 102.684 66.3238 102.862 66.2143 103.031C66.0217 103.367 65.7349 103.851 65.3721 104.438C64.6463 105.62 63.6069 107.233 62.3929 108.967C61.1788 110.701 60.0274 112.233 59.1673 113.322C58.7192 113.864 58.3832 114.303 58.1324 114.598C58.0139 114.757 57.8804 114.904 57.7336 115.037Z" fill="#E0E0E0"/>
<path d="M162.387 105.123C150.909 99.3485 146.59 86.1683 145.246 73.9559C145.022 71.9175 144.489 69.8119 145.197 67.8944C145.905 65.977 147.979 64.4314 149.919 65.0272C151.527 65.5155 152.437 67.1731 153.503 68.4992C154.908 70.2709 156.785 71.6083 158.919 72.3565C160.308 72.8403 161.965 73.0195 163.139 72.1325C164.748 70.9139 164.604 68.4679 164.3 66.4519C163.732 62.6916 163.165 58.9344 162.597 55.1802C162.293 53.1642 161.992 51.1079 162.342 49.1008C162.691 47.0938 163.82 45.1181 165.661 44.3027C167.503 43.4874 170.038 44.249 170.728 46.1664C171.015 46.9639 170.97 47.8419 171.149 48.6707C171.329 49.4995 171.848 50.3687 172.677 50.4896C173.506 50.6106 174.245 49.9207 174.76 49.2397C176.552 46.9056 177.583 44.0742 178.528 41.2742C179.473 38.4742 180.365 35.616 181.933 33.1207C183.501 30.6253 185.862 28.4883 188.725 27.9059C191.587 27.3235 194.929 28.6631 196.067 31.3959C197.205 34.1287 195.969 37.2602 194.495 39.8227C192.319 43.6289 189.602 47.0996 186.431 50.1267C185.857 50.6688 185.239 51.2557 185.087 52.0397C184.845 53.4464 186.31 54.5978 187.703 54.8487C189.28 55.1309 190.888 54.7411 192.488 54.6963C194.087 54.6515 195.893 55.104 196.703 56.4883C197.828 58.4326 196.417 60.8429 194.911 62.505C191.924 65.8316 188.385 68.6186 184.451 70.7437C183.044 71.5008 181.552 72.2042 180.504 73.4317C179.455 74.6592 178.998 76.5677 179.926 77.8803C180.853 79.193 182.775 79.3856 184.289 78.8704C185.804 78.3552 187.071 77.3114 188.474 76.5408C191.094 75.0938 194.701 74.7488 196.824 76.9037C198.218 78.3104 198.639 80.4877 198.321 82.4544C198.003 84.4211 197.039 86.2042 195.982 87.8797C192.291 93.7351 187.21 98.7571 181.1 101.916C174.989 105.074 169.12 106.539 162.391 105.128" fill="#F5F5F5"/>
<path d="M164.416 97.0504C165.479 90.1393 166.935 83.2946 168.78 76.5499L170.204 71.2321C170.675 69.4894 171.14 67.7601 171.7 66.0981C172.782 62.9066 174.04 59.7777 175.468 56.7259C176.812 53.8049 178.188 51.0811 179.5 48.5409C180.813 46.0008 182.09 43.6622 183.335 41.579C185.289 38.2818 187.502 35.1449 189.952 32.1979C190.817 31.1541 191.516 30.3656 191.995 29.8414L192.541 29.2456C192.601 29.1741 192.667 29.1081 192.739 29.0485C192.692 29.1276 192.636 29.2012 192.573 29.268L192.049 29.8907C191.601 30.4328 190.911 31.2347 190.064 32.292C187.664 35.2615 185.49 38.4063 183.559 41.7C182.327 43.7877 181.073 46.1307 179.773 48.6709C178.474 51.211 177.108 53.9393 175.777 56.8558C174.359 59.9061 173.108 63.0318 172.032 66.219C171.476 67.8766 171.015 69.588 170.545 71.3352C170.074 73.0824 169.608 74.8565 169.129 76.6485C167.286 83.3797 165.822 90.209 164.743 97.1041" fill="#E0E0E0"/>
<path d="M171.803 66.0711C171.666 65.806 171.558 65.5266 171.481 65.2378C171.297 64.6958 171.033 63.8938 170.764 62.9217C170.191 60.9505 169.487 58.2087 168.726 55.1802C167.964 52.1518 167.22 49.4234 166.62 47.4702C166.32 46.4935 166.069 45.705 165.89 45.163C165.779 44.8856 165.698 44.5972 165.648 44.3028C165.804 44.5562 165.93 44.8268 166.024 45.1092C166.248 45.6378 166.535 46.4174 166.871 47.3895C167.539 49.3249 168.323 52.0532 169.089 55.0862L171.019 62.85C171.255 63.7818 171.457 64.5643 171.624 65.1975C171.717 65.4809 171.777 65.774 171.803 66.0711Z" fill="#E0E0E0"/>
<path d="M197.039 57.4739C196.71 57.5967 196.369 57.6882 196.022 57.7472C195.368 57.904 194.414 58.1235 193.249 58.4327C190.911 59.033 187.707 59.9738 184.222 61.1655C180.737 62.3571 177.627 63.5891 175.405 64.5344C174.29 64.9824 173.398 65.4035 172.78 65.6768C172.468 65.8392 172.141 65.9712 171.803 66.0711C172.085 65.8673 172.385 65.6903 172.699 65.5424C173.3 65.2288 174.178 64.7898 175.28 64.288C177.484 63.2755 180.589 62.0122 184.083 60.8071C187.064 59.7731 190.097 58.8939 193.169 58.1728C194.347 57.8951 195.31 57.7248 195.978 57.6039C196.326 57.5263 196.682 57.4828 197.039 57.4739Z" fill="#E0E0E0"/>
<path d="M164.672 96.5259C164.584 96.4409 164.509 96.3445 164.448 96.2392C164.291 96.0018 164.103 95.7106 163.87 95.3432C163.368 94.5816 162.673 93.4616 161.836 92.0683C160.156 89.2773 157.956 85.3483 155.586 80.9803C153.216 76.6123 151.052 72.6878 149.431 69.8878L147.504 66.5547L146.985 65.6587C146.917 65.5557 146.862 65.4442 146.823 65.3272C146.911 65.4131 146.987 65.5112 147.047 65.6184L147.625 66.5144C148.127 67.276 148.821 68.396 149.659 69.7938C151.339 72.5848 153.543 76.5138 155.931 80.8818C158.319 85.2498 160.46 89.1877 162.082 92.0101L164.009 95.3477C164.219 95.7106 164.389 96.0152 164.528 96.2437C164.587 96.332 164.635 96.4267 164.672 96.5259Z" fill="#E0E0E0"/>
<path d="M197.532 80.4384C197.433 80.5145 197.325 80.5777 197.21 80.6266L196.26 81.088L192.743 82.8173C189.773 84.2823 185.692 86.3475 181.189 88.6413C176.687 90.9351 172.579 92.96 169.577 94.3623C168.076 95.0611 166.858 95.6167 165.993 95.984L165.012 96.3962C164.901 96.4546 164.781 96.4954 164.658 96.5171C164.758 96.4424 164.866 96.3793 164.981 96.329L165.93 95.8496L169.452 94.1203C172.422 92.6599 176.499 90.5946 181.005 88.2963C185.512 85.9981 189.612 83.9776 192.613 82.5754C194.114 81.8765 195.333 81.321 196.197 80.9536L197.178 80.5415C197.29 80.4892 197.41 80.4545 197.532 80.4384Z" fill="#E0E0E0"/>
<path d="M254.563 50.0193C254.563 42.7079 246.884 38.0801 239.053 41.7402C237.283 42.5702 235.835 43.9584 234.931 45.6916C232.964 49.5085 233.834 53.8631 235.621 57.4829L241.714 72.9255C241.906 73.4181 242.242 73.8412 242.678 74.1396C243.115 74.4379 243.631 74.5975 244.16 74.5975C244.689 74.5975 245.205 74.4379 245.641 74.1396C246.078 73.8412 246.414 73.4181 246.606 72.9255L252.582 57.3978C254.648 52.6535 254.563 50.0193 254.563 50.0193ZM247.206 56.3809C241.942 59.4407 236.607 53.7825 239.492 48.2004C239.868 47.4557 240.45 46.834 241.167 46.4084C246.431 43.3485 251.763 49.0068 248.877 54.5889C248.503 55.3332 247.923 55.955 247.206 56.3809Z" fill="#F5F5F5"/>
<path d="M145.224 198.948L85.6756 198.674C82.2377 198.653 78.9483 197.27 76.5283 194.828C74.1082 192.386 72.7547 189.085 72.7642 185.647L73.3959 36.3595C73.416 32.92 74.7993 29.6289 77.2423 27.2077C79.6853 24.7866 82.9887 23.4329 86.4282 23.4437L145.976 23.7169C149.413 23.7383 152.701 25.1202 155.121 27.5601C157.54 30.0001 158.895 33.2994 158.888 36.7358L158.256 186.023C158.238 189.464 156.856 192.757 154.413 195.18C151.97 197.604 148.665 198.958 145.224 198.948Z" fill="#455A64"/>
<path d="M145.891 28.869L134.346 28.8152C133.586 28.8293 132.863 29.1443 132.335 29.691C131.806 30.2377 131.516 30.9716 131.528 31.7317V33.8283C131.534 34.2047 131.466 34.5784 131.327 34.9283C131.189 35.2782 130.982 35.5973 130.72 35.8674C130.458 36.1374 130.145 36.3531 129.8 36.5022C129.454 36.6512 129.082 36.7306 128.706 36.7359L106.198 36.6328C105.439 36.6105 104.719 36.2884 104.196 35.7369C103.673 35.1854 103.389 34.4493 103.407 33.6895V31.5928C103.421 30.838 103.136 30.1083 102.616 29.5616C102.095 29.0149 101.38 28.6953 100.625 28.6719H96.5665L86.4641 28.5957C84.0552 28.5838 81.7402 29.529 80.0281 31.2235C78.316 32.9179 77.3469 35.223 77.3338 37.6319L76.7201 183.348C76.7093 185.757 77.6557 188.072 79.351 189.783C81.0463 191.494 83.3519 192.462 85.7607 192.474L145.192 192.747C146.385 192.753 147.568 192.523 148.672 192.071C149.777 191.62 150.781 190.955 151.629 190.115C152.476 189.275 153.15 188.276 153.611 187.176C154.073 186.076 154.313 184.895 154.318 183.702L154.932 37.9903C154.937 36.7977 154.708 35.6158 154.256 34.512C153.805 33.4083 153.14 32.4042 152.301 31.5572C151.461 30.7102 150.463 30.0369 149.363 29.5756C148.264 29.1144 147.084 28.8743 145.891 28.869Z" fill="#FAFAFA"/>
<path d="M77.262 55.1264H87.0015L95.6927 63.8221L86.6565 72.8582L77.365 63.5622L77.262 55.1264Z" fill="#EBEBEB"/>
<path d="M97.6776 60.0051L92.7944 55.1264H103.779L97.6776 60.0051Z" fill="#EBEBEB"/>
<path d="M101.947 63.9921L110.5 55.4398H140.381C140.381 55.4398 144.955 75.8686 126.941 88.9861L101.947 63.9921Z" fill="#EBEBEB"/>
<path d="M98.2868 66.7161L89.1387 75.8688L114.455 101.185L123.603 91.728L98.2868 66.7161Z" fill="#EBEBEB"/>
<path d="M77.1501 81.0564L82.8845 75.107L77.2621 69.4846L77.1501 81.0564Z" fill="#EBEBEB"/>
<path d="M86.3162 78.6147L77.5085 87.4224V99.6618L95.6929 118.267L111.1 103.931L86.3162 78.6147Z" fill="#EBEBEB"/>
<path d="M130.368 91.5531C130.368 91.5531 149.238 77.7189 143.136 55.4398H154.869L154.726 118.321L130.368 91.5531Z" fill="#EBEBEB"/>
<path d="M126.82 95.1821L117.699 104.707L145.672 132.684L154.229 123.617L126.82 95.1821Z" fill="#EBEBEB"/>
<path d="M113.886 107.314L99.5457 121.551L128.227 150.031L142.54 136.192L113.886 107.314Z" fill="#EBEBEB"/>
<path d="M106.369 178.649L128.294 155.926L149.148 177.184L106.369 178.649Z" fill="#EBEBEB"/>
<path d="M131.712 152.992L154.56 130.368C154.56 131.371 154.363 177.278 154.363 177.278L131.712 152.992Z" fill="#EBEBEB"/>
<path d="M112.166 140.286L125.118 153.238L99.5457 179.625L87.7319 165.455L112.166 140.286Z" fill="#EBEBEB"/>
<path d="M77.1726 167.292C78.3956 167.171 109.715 137.84 109.715 137.84L77.1726 104.119V167.292Z" fill="#EBEBEB"/>
<path d="M76.7202 173.976L84.2601 167.292L94.7029 179.626H76.7202V174.908" fill="#EBEBEB"/>
<path d="M86.4641 46.2469C85.6673 45.6589 84.9183 45.0088 84.2241 44.3025C84.2241 43.9621 84.2241 44.2085 84.2241 44.1323L84.2555 44.1054L84.3092 44.0561L84.4212 43.9531L84.6363 43.7515L85.044 43.3752L85.7473 42.748C85.9603 42.5303 86.2014 42.342 86.4641 42.188C86.3043 42.4316 86.1113 42.6517 85.8907 42.8421L85.2187 43.5051L84.82 43.8904L84.6049 44.0965L84.4974 44.1995L84.4392 44.2488L84.4123 44.2757V44.1054C85.1509 44.7648 85.837 45.4807 86.4641 46.2469Z" fill="#263238"/>
<path d="M148.4 42.8284C148.401 42.9254 148.373 43.0204 148.32 43.1014C148.266 43.1824 148.19 43.2456 148.101 43.2832C148.011 43.3207 147.913 43.3307 147.817 43.312C147.722 43.2933 147.635 43.2467 147.566 43.1782C147.498 43.1096 147.451 43.0222 147.433 42.927C147.414 42.8319 147.424 42.7333 147.461 42.6439C147.499 42.5545 147.562 42.4783 147.643 42.425C147.724 42.3717 147.819 42.3437 147.916 42.3446C148.044 42.3446 148.167 42.3955 148.258 42.4863C148.349 42.577 148.4 42.7001 148.4 42.8284Z" fill="#263238"/>
<path d="M148.261 44.1592C148.33 44.2275 148.376 44.3145 148.395 44.4093C148.414 44.504 148.404 44.6022 148.368 44.6915C148.331 44.7808 148.268 44.8571 148.188 44.9108C148.107 44.9645 148.013 44.9932 147.916 44.9932C147.82 44.9932 147.725 44.9645 147.645 44.9108C147.565 44.8571 147.502 44.7808 147.465 44.6915C147.428 44.6022 147.419 44.504 147.437 44.4093C147.456 44.3145 147.503 44.2275 147.571 44.1592C147.663 44.0689 147.787 44.0184 147.916 44.0184C148.045 44.0184 148.169 44.0689 148.261 44.1592Z" fill="#263238"/>
<path d="M148.4 46.1751C148.388 46.296 148.332 46.4082 148.242 46.4898C148.152 46.5715 148.035 46.6167 147.914 46.6167C147.792 46.6167 147.675 46.5715 147.585 46.4898C147.496 46.4082 147.439 46.296 147.428 46.1751C147.421 46.1074 147.429 46.039 147.45 45.9744C147.472 45.9098 147.507 45.8504 147.552 45.8C147.598 45.7497 147.654 45.7094 147.716 45.6819C147.778 45.6543 147.846 45.6401 147.914 45.6401C147.982 45.6401 148.049 45.6543 148.111 45.6819C148.174 45.7094 148.23 45.7497 148.275 45.8C148.321 45.8504 148.356 45.9098 148.377 45.9744C148.399 46.039 148.406 46.1074 148.4 46.1751Z" fill="#263238"/>
<path d="M127.407 44.8132H106.449V46.5604H127.407V44.8132Z" fill="#263238"/>
<path d="M125.126 76.1599C125.126 67.9974 116.551 62.8274 107.806 66.9177C105.828 67.842 104.209 69.393 103.201 71.3305C101.001 75.5909 101.974 80.4562 103.967 84.4972L110.777 101.75C110.992 102.299 111.368 102.772 111.855 103.104C112.343 103.437 112.919 103.615 113.51 103.615C114.1 103.615 114.676 103.437 115.164 103.104C115.651 102.772 116.027 102.299 116.242 101.75L122.913 84.4076C125.225 79.1212 125.126 76.1599 125.126 76.1599ZM116.928 83.2831C111.05 86.7013 105.092 80.3845 108.313 74.1484C108.737 73.326 109.385 72.6398 110.181 72.1682C116.063 68.75 122.022 75.0668 118.796 81.3029C118.373 82.1266 117.725 82.8133 116.928 83.2831Z" fill="#FF5800"/>
<path d="M303.327 138.486H54.7681V174.958H303.327V138.486Z" fill="#FF5800"/>
<g opacity="0.5">
<path opacity="0.5" d="M303.327 138.486H54.7681V174.958H303.327V138.486Z" fill="black"/>
</g>
<path d="M89.7807 198.623C102.988 197.735 112.974 186.307 112.085 173.1C111.197 159.893 99.7694 149.907 86.5621 150.796C73.3548 151.684 63.3687 163.111 64.2575 176.319C65.1463 189.526 76.5735 199.512 89.7807 198.623Z" fill="#263238"/>
<path d="M64.2073 174.304C64.2073 174.326 64.2073 174.348 64.2073 174.366C64.1618 177.514 64.7366 180.64 65.8989 183.565C67.0613 186.49 68.7885 189.158 70.9819 191.416C73.1753 193.674 75.7919 195.478 78.6824 196.724C81.5729 197.971 84.6806 198.636 87.8281 198.682C90.9757 198.727 94.1014 198.152 97.0267 196.99C99.9521 195.828 102.62 194.1 104.878 191.907C107.136 189.714 108.939 187.097 110.186 184.206C111.433 181.316 112.098 178.208 112.143 175.061C112.143 175.038 112.143 175.016 112.143 174.998L64.2073 174.304Z" fill="#263238"/>
<path d="M71.3444 174.47C71.2951 177.798 72.2339 181.066 74.0421 183.86C75.8504 186.655 78.4467 188.85 81.5028 190.169C84.5589 191.487 87.9374 191.87 91.2111 191.268C94.4847 190.667 97.5064 189.108 99.8939 186.789C102.281 184.469 103.927 181.494 104.624 178.239C105.32 174.985 105.036 171.596 103.806 168.503C102.577 165.41 100.458 162.751 97.717 160.863C94.9762 158.974 91.7368 157.941 88.4087 157.894C83.9481 157.83 79.6449 159.541 76.445 162.649C73.2451 165.757 71.4104 170.009 71.3444 174.47Z" fill="#FAFAFA"/>
<path d="M88.4083 157.889C83.9474 157.824 79.6434 159.534 76.4433 162.643C73.2431 165.752 71.4089 170.004 71.344 174.465L104.993 174.953C105.057 170.491 103.345 166.187 100.235 162.986C97.1245 159.786 92.8704 157.953 88.4083 157.889Z" fill="#E0E0E0"/>
<path d="M77.9208 174.563C77.8909 176.591 78.4629 178.581 79.5645 180.284C80.6661 181.986 82.2478 183.323 84.1095 184.126C85.9713 184.93 88.0294 185.163 90.0235 184.796C92.0177 184.429 93.8583 183.479 95.3126 182.066C96.7669 180.654 97.7694 178.841 98.1935 176.858C98.6175 174.876 98.444 172.812 97.6949 170.928C96.9457 169.043 95.6547 167.424 93.9849 166.274C92.3152 165.123 90.3418 164.494 88.3144 164.465C86.9689 164.446 85.6327 164.692 84.3821 165.188C83.1315 165.685 81.9911 166.424 81.0259 167.361C80.0608 168.299 79.2898 169.418 78.757 170.654C78.2242 171.889 77.9401 173.218 77.9208 174.563Z" fill="#263238"/>
<path d="M272.844 198.615C286.059 197.848 296.15 186.514 295.384 173.299C294.617 160.084 283.283 149.993 270.068 150.759C256.853 151.526 246.762 162.86 247.528 176.075C248.295 189.29 259.629 199.382 272.844 198.615Z" fill="#263238"/>
<path d="M247.484 174.304C247.484 174.326 247.484 174.348 247.484 174.366C247.439 177.514 248.014 180.64 249.176 183.565C250.338 186.49 252.066 189.158 254.259 191.416C256.452 193.674 259.069 195.478 261.96 196.724C264.85 197.971 267.958 198.636 271.105 198.682C274.253 198.727 277.378 198.152 280.304 196.99C283.229 195.828 285.897 194.1 288.155 191.907C290.413 189.714 292.216 187.097 293.463 184.206C294.71 181.316 295.375 178.208 295.42 175.061C295.42 175.038 295.42 175.016 295.42 174.998L247.484 174.304Z" fill="#263238"/>
<path d="M254.621 174.47C254.571 177.798 255.51 181.066 257.319 183.86C259.127 186.655 261.723 188.85 264.779 190.169C267.835 191.487 271.214 191.87 274.487 191.268C277.761 190.667 280.783 189.108 283.17 186.789C285.558 184.469 287.204 181.494 287.9 178.239C288.597 174.985 288.312 171.596 287.083 168.503C285.853 165.41 283.734 162.751 280.993 160.863C278.252 158.974 275.013 157.941 271.685 157.894C267.224 157.83 262.921 159.541 259.721 162.649C256.521 165.757 254.687 170.009 254.621 174.47Z" fill="#FAFAFA"/>
<path d="M271.685 157.889C267.224 157.824 262.921 159.534 259.72 162.643C256.52 165.752 254.686 170.004 254.621 174.465L288.27 174.953C288.334 170.491 286.622 166.187 283.512 162.986C280.402 159.786 276.148 157.953 271.685 157.889Z" fill="#E0E0E0"/>
<path d="M261.184 174.563C261.154 176.591 261.726 178.581 262.828 180.284C263.93 181.986 265.511 183.323 267.373 184.126C269.235 184.93 271.293 185.163 273.287 184.796C275.281 184.429 277.122 183.479 278.576 182.066C280.03 180.654 281.033 178.841 281.457 176.858C281.881 174.876 281.707 172.812 280.958 170.928C280.209 169.043 278.918 167.424 277.248 166.274C275.579 165.123 273.605 164.494 271.578 164.465C270.232 164.446 268.896 164.692 267.646 165.188C266.395 165.685 265.255 166.424 264.289 167.361C263.324 168.299 262.553 169.418 262.02 170.654C261.488 171.889 261.203 173.218 261.184 174.563Z" fill="#263238"/>
<path d="M119.585 117.968C119.585 117.968 84.2913 120.57 71.2007 123.505C61.9809 125.57 44.2043 129.141 44.4193 140.323L45.8305 148.342C45.8305 148.342 39.2404 151.352 39.2404 159.04C39.2404 166.728 37.6321 178.645 53.0254 179.124C55.5611 179.2 60.3771 179.124 60.3771 179.124C60.3771 179.124 57.4247 146.339 87.5393 145.381C118.178 144.404 116.144 178.824 116.144 178.824H244.017C244.017 178.824 238.766 145.291 271.748 145.224C304.73 145.157 299.712 179.043 299.712 179.043C299.712 179.043 311.844 180.092 317.489 169.895C323.134 159.699 321.669 152.423 321.669 152.423L321.48 145.976C321.445 144.918 321.008 143.914 320.26 143.165C319.511 142.416 318.506 141.98 317.448 141.944C317.448 141.944 319.653 125.718 316.27 122.909C312.888 120.1 294.354 103.152 294.354 103.152L295.25 102.601C295.582 102.391 295.848 102.091 296.017 101.736C296.185 101.382 296.25 100.986 296.203 100.596C296.156 100.206 296 99.8369 295.752 99.5321C295.504 99.2273 295.174 98.999 294.802 98.8738C287.764 96.4546 273.849 91.6654 270.579 90.523C270.089 90.3489 269.578 90.2405 269.06 90.2005C267.107 90.0526 261.578 89.7032 251.431 89.5957C239.071 89.4613 189.997 89.5957 189.997 89.5957C189.997 89.5957 173.107 90.9845 163.699 95.124C153.834 99.4786 119.585 117.968 119.585 117.968Z" fill="#FF5800"/>
<g opacity="0.4">
<path opacity="0.4" d="M48.1915 158.144C46.9102 157.884 44.948 157.862 43.9713 158.726C43.2456 159.372 43.0529 160.415 42.9454 161.379C42.7396 162.698 42.77 164.044 43.035 165.352C43.1701 166.006 43.4389 166.625 43.8243 167.17C44.2098 167.715 44.7037 168.174 45.275 168.52C46.4488 169.156 48.0526 169.053 48.962 168.072C49.7953 167.176 49.8894 165.832 49.858 164.636C49.8267 162.906 49.9656 161.441 49.6475 159.743C49.5773 159.383 49.4239 159.044 49.1995 158.753C49.0879 158.579 48.9377 158.434 48.7605 158.327C48.5833 158.221 48.384 158.156 48.178 158.14" fill="black"/>
</g>
<path d="M45.8394 148.342C49.5847 148.342 53.218 148.136 56.9588 147.894C57.3663 147.912 57.7677 147.79 58.0967 147.549C58.2472 147.362 58.3591 147.147 58.426 146.916C58.4929 146.685 58.5134 146.444 58.4865 146.205C58.4865 144.198 58.4058 141.913 56.8826 140.605C55.9508 139.807 54.674 139.557 53.4509 139.445C50.4138 139.116 47.3415 139.422 44.4282 140.341L45.8394 148.342Z" fill="#FAFAFA"/>
<path d="M123.648 177.798C123.648 177.798 123.648 177.69 123.621 177.475C123.594 177.26 123.585 176.942 123.558 176.534C123.514 175.701 123.446 174.487 123.361 172.919C123.276 171.351 123.169 169.429 122.945 167.207C122.713 164.691 122.271 162.199 121.623 159.757C120.805 156.807 119.592 153.981 118.017 151.357C116.232 148.326 113.861 145.682 111.041 143.58C104.998 139.279 96.8307 136.86 88.2873 136.743C79.7439 136.627 71.5724 139.328 65.6767 143.857C62.8507 145.948 60.3752 148.475 58.343 151.343C56.5685 153.834 55.1258 156.545 54.0511 159.407C53.1646 161.774 52.5558 164.235 52.2367 166.741C51.9869 168.631 51.9134 170.541 52.0172 172.444C52.0907 173.647 52.2403 174.844 52.4652 176.028C52.5369 176.427 52.5951 176.736 52.631 176.951C52.6668 177.166 52.6802 177.269 52.6802 177.269C52.6802 177.269 52.6534 177.166 52.6086 176.96L52.4159 176.064C52.1721 174.882 52.0104 173.684 51.9321 172.48C51.8103 170.57 51.8703 168.653 52.1113 166.755C52.42 164.235 53.0214 161.761 53.9033 159.381C54.9743 156.495 56.417 153.762 58.1951 151.249C60.232 148.358 62.7185 145.811 65.5602 143.705C71.4828 139.153 79.6722 136.425 88.2828 136.537C96.8934 136.649 105.074 139.091 111.167 143.432C114.003 145.555 116.387 148.224 118.178 151.281C119.752 153.926 120.958 156.773 121.762 159.743C122.406 162.196 122.84 164.699 123.057 167.225C123.267 169.465 123.361 171.374 123.433 172.942C123.505 174.51 123.554 175.728 123.59 176.561C123.59 176.969 123.617 177.283 123.626 177.502C123.634 177.722 123.648 177.798 123.648 177.798Z" fill="white"/>
<path d="M124.992 178.353V178.085L124.965 177.292C124.943 176.584 124.912 175.549 124.867 174.196C124.791 171.477 124.679 167.503 124.535 162.445C124.392 157.387 124.226 151.245 124.033 144.211C123.984 142.451 123.939 140.627 123.886 138.768C123.854 137.818 123.896 136.867 124.011 135.923L124.213 134.481L124.508 133.034C124.972 131.057 125.64 129.134 126.502 127.295C127.389 125.367 128.486 123.544 129.772 121.856L151.917 107.905L157.898 104.142C159.914 102.803 162.03 101.621 164.228 100.608C166.476 99.549 168.782 98.6202 171.136 97.8255C172.31 97.4133 173.515 97.0773 174.72 96.7189C175.925 96.3605 177.153 96.0648 178.398 95.8229C183.094 94.8183 187.868 94.2187 192.667 94.0309C197.272 93.8103 201.885 93.8252 206.488 94.0757H206.618L206.586 94.2056L200.637 120.821C199.538 122.626 198.637 124.544 197.949 126.542C197.272 128.437 196.968 130.445 197.053 132.456C197.205 134.423 197.259 136.349 197.308 138.217C197.358 140.085 197.38 141.895 197.416 143.656C197.519 150.689 197.546 156.823 197.564 161.876C197.582 166.929 197.564 170.903 197.564 173.618C197.564 174.962 197.564 176.006 197.564 176.714C197.564 177.059 197.564 177.323 197.564 177.507C197.564 177.69 197.564 177.776 197.564 177.776C197.564 177.776 197.564 177.681 197.564 177.507C197.564 177.332 197.564 177.059 197.564 176.714C197.564 176.006 197.564 174.971 197.564 173.618C197.564 170.903 197.523 166.929 197.492 161.88C197.461 156.832 197.416 150.681 197.295 143.656C197.259 141.9 197.22 140.088 197.178 138.222C197.125 136.353 197.071 134.436 196.914 132.469C196.823 130.434 197.127 128.4 197.81 126.48C198.493 124.465 199.394 122.532 200.498 120.714V120.745C202.321 112.551 204.315 103.609 206.425 94.125L206.528 94.2594C201.935 94.0119 197.333 94 192.739 94.2236C187.952 94.4089 183.189 95.0084 178.506 96.0156C177.265 96.262 176.055 96.6069 174.841 96.9116C173.627 97.2162 172.44 97.6059 171.257 98.0136C168.903 98.8096 166.596 99.74 164.349 100.8C162.162 101.807 160.056 102.981 158.05 104.313L152.065 108.076L129.92 121.995V121.973C128.636 123.649 127.542 125.462 126.659 127.38C125.798 129.205 125.131 131.115 124.67 133.079C123.662 136.918 124.168 140.695 124.177 144.211L124.625 162.445C124.746 167.498 124.84 171.477 124.903 174.192C124.934 175.536 124.952 176.584 124.97 177.292C124.97 177.635 124.97 177.899 124.97 178.085C124.992 178.264 124.992 178.353 124.992 178.353Z" fill="#263238"/>
<path d="M206.326 94.815H206.537L207.151 94.7926L209.53 94.7344L218.351 94.5641L248.089 94.0534H248.147L248.183 94.0982L252.349 99.2009C256.57 104.384 260.593 109.312 264.248 113.792L265.592 115.45C266.027 116.005 266.401 116.606 266.708 117.242C267.263 118.421 267.564 119.703 267.593 121.005C267.622 122.308 267.376 123.602 266.874 124.804L265.53 127.94L261.417 137.456L260.288 140.036L259.988 140.708C259.921 140.856 259.88 140.932 259.88 140.932C259.88 140.932 259.907 140.851 259.965 140.699C260.024 140.547 260.127 140.309 260.243 140.018C260.499 139.418 260.861 138.54 261.332 137.42L265.364 127.877C266.134 125.852 267.492 123.72 267.398 121.122C267.378 119.801 267.072 118.5 266.502 117.309C266.201 116.69 265.835 116.106 265.409 115.566L264.065 113.909L252.152 99.3308L247.99 94.2281L248.08 94.2729L218.337 94.7209L209.516 94.824H207.137H206.528L206.326 94.815Z" fill="#263238"/>
<path d="M191.296 134.365C191.296 134.365 191.422 134.365 191.65 134.311C191.986 134.251 192.306 134.123 192.591 133.934C193.042 133.64 193.38 133.201 193.55 132.689C193.652 132.371 193.695 132.037 193.675 131.703C193.664 131.332 193.569 130.967 193.397 130.637C193.197 130.262 192.9 129.947 192.537 129.726C192.173 129.504 191.757 129.384 191.332 129.378H188.312H181.391C180.806 129.379 180.243 129.6 179.814 129.997C179.395 130.378 179.127 130.898 179.061 131.461C178.993 132.006 179.093 132.557 179.348 133.043C179.608 133.499 180.011 133.856 180.495 134.06C180.974 134.224 181.482 134.287 181.987 134.244H183.452H186.086L189.898 134.279L190.933 134.302C191.055 134.299 191.176 134.308 191.296 134.329C191.176 134.343 191.055 134.35 190.933 134.351H189.898L186.086 134.387H183.452H181.987C181.731 134.387 181.485 134.387 181.212 134.387C180.938 134.37 180.668 134.308 180.414 134.203C179.883 133.985 179.44 133.596 179.155 133.097C178.871 132.573 178.76 131.972 178.837 131.381C178.908 130.752 179.207 130.172 179.678 129.749C180.149 129.327 180.758 129.093 181.391 129.092H188.312H191.336C191.794 129.101 192.24 129.234 192.628 129.476C193.016 129.718 193.331 130.06 193.541 130.467C193.72 130.82 193.817 131.209 193.823 131.605C193.837 131.954 193.787 132.304 193.675 132.635C193.486 133.167 193.121 133.619 192.64 133.917C192.344 134.105 192.008 134.223 191.659 134.261C191.543 134.31 191.421 134.345 191.296 134.365Z" fill="#263238"/>
<path d="M257.6 134.365C257.6 134.365 257.726 134.365 257.954 134.311C258.29 134.251 258.61 134.123 258.895 133.934C259.346 133.64 259.684 133.201 259.854 132.689C259.956 132.371 259.999 132.037 259.979 131.703C259.968 131.332 259.873 130.967 259.701 130.637C259.501 130.262 259.204 129.947 258.84 129.726C258.477 129.504 258.061 129.384 257.636 129.378H254.616H247.695C247.11 129.379 246.547 129.6 246.118 129.997C245.699 130.378 245.431 130.898 245.365 131.461C245.297 132.006 245.397 132.557 245.652 133.043C245.912 133.499 246.315 133.856 246.799 134.06C247.278 134.224 247.786 134.287 248.291 134.244H249.756H252.39L256.202 134.279L257.237 134.302C257.359 134.299 257.48 134.308 257.6 134.329C257.48 134.343 257.358 134.35 257.237 134.351H256.202L252.39 134.387H249.756H248.291C248.035 134.387 247.789 134.387 247.516 134.387C247.241 134.37 246.972 134.308 246.718 134.203C246.187 133.985 245.744 133.596 245.459 133.097C245.175 132.573 245.064 131.972 245.141 131.381C245.212 130.752 245.511 130.172 245.982 129.749C246.453 129.327 247.062 129.093 247.695 129.092H254.616H257.64C258.098 129.101 258.544 129.234 258.932 129.476C259.32 129.718 259.635 130.06 259.845 130.467C260.024 130.82 260.12 131.209 260.127 131.605C260.141 131.954 260.091 132.304 259.979 132.635C259.79 133.167 259.425 133.619 258.944 133.917C258.648 134.105 258.312 134.223 257.963 134.261C257.847 134.31 257.725 134.345 257.6 134.365Z" fill="#263238"/>
<path d="M315.701 123.55H302.441C301.549 123.55 300.674 123.793 299.911 124.253C299.148 124.713 298.524 125.373 298.108 126.162C297.767 126.814 297.576 127.535 297.551 128.271C297.527 129.007 297.668 129.739 297.965 130.413L303.162 142.227L316.441 142.097C316.441 142.097 319.267 127.12 315.701 123.55Z" fill="#FAFAFA"/>
<path d="M131.533 121.878L199.956 120.615L244.487 119.8L259.173 111.319C259.452 111.156 259.693 110.936 259.881 110.674C260.069 110.411 260.198 110.111 260.262 109.794C260.325 109.477 260.32 109.15 260.247 108.836C260.174 108.521 260.036 108.225 259.84 107.968L250.696 95.9571C250.227 95.3387 249.621 94.8362 248.927 94.4883C248.233 94.1404 247.468 93.9563 246.691 93.9501L196.883 93.5469C196.883 93.5469 178.129 92.4538 163.35 100.715C147.809 109.437 131.533 121.878 131.533 121.878Z" fill="#263238"/>
<path d="M162.888 94.788C162.888 94.788 166.32 96.3515 164.089 97.7985C161.858 99.2456 127.192 121.095 127.192 121.095L119.222 117.488C133.338 109.635 147.594 101.996 162.888 94.788Z" fill="#455A64"/>
<path d="M128.312 121.65L128.097 121.704L127.465 121.843L125.032 122.344C122.918 122.766 119.853 123.357 116.072 124.011C108.456 125.319 97.9194 126.842 86.1952 127.855C83.2608 128.11 80.3712 128.303 77.6295 128.5C74.8877 128.697 72.1908 128.854 69.6551 129.082C64.5792 129.53 60.0365 130.265 56.345 131.363C53.4108 132.179 50.587 133.349 47.936 134.848C46.9818 135.35 46.3008 135.843 45.8215 136.138L45.2749 136.483L45.0823 136.595C45.1398 136.549 45.1996 136.506 45.2615 136.465L45.7946 136.098C46.2695 135.789 46.9415 135.283 47.8912 134.754C50.5262 133.214 53.3436 132.01 56.2778 131.17C59.9783 130.046 64.5344 129.288 69.6148 128.836C72.1549 128.594 74.825 128.424 77.5936 128.24C80.3623 128.056 83.225 127.841 86.1549 127.586C97.8746 126.574 108.425 125.077 116.028 123.809C119.831 123.178 122.895 122.613 125.014 122.219L127.456 121.771L128.092 121.655L128.312 121.65Z" fill="#263238"/>
<path d="M321.001 152.289C321.001 152.356 316.44 152.405 310.818 152.405C305.195 152.405 300.63 152.356 300.63 152.289C300.63 152.222 305.191 152.172 310.818 152.172C316.445 152.172 321.001 152.226 321.001 152.289Z" fill="#263238"/>
<path d="M237.57 163.928C237.57 163.995 211.828 164.044 180.078 164.044C148.328 164.044 122.582 163.995 122.582 163.928C122.582 163.861 148.319 163.811 180.078 163.811C211.837 163.811 237.57 163.865 237.57 163.928Z" fill="#263238"/>
<path d="M57.3442 152.674C57.3442 152.741 53.702 152.791 49.213 152.791C44.724 152.791 41.0818 152.741 41.0818 152.674C41.0818 152.607 44.724 152.558 49.213 152.558C53.702 152.558 57.3442 152.612 57.3442 152.674Z" fill="#263238"/>
<path d="M294.009 102.686C294.009 102.686 290.954 106.104 292.154 108.613C293.355 111.122 305.769 119.912 305.769 119.912L314.778 121.601L294.009 102.686Z" fill="#455A64"/>
<path d="M208.352 96.562L206.327 118.442L242.579 117.407L257.188 108.913L247.731 96.562H208.352Z" fill="#455A64"/>
<path d="M140.116 119.562C140.116 119.562 161.988 103.766 170.616 100.625C178.945 97.5968 183.286 96.8352 191.108 96.5933C198.585 96.3783 203.141 96.5933 203.141 96.5933L197.362 118.837L140.116 119.562Z" fill="#455A64"/>
<path d="M136.918 119.616C136.918 118.936 137.099 118.268 137.442 117.681C137.786 117.094 138.279 116.608 138.871 116.274L143.898 113.452C145.329 112.646 146.945 112.223 148.588 112.224C149.6 112.225 150.605 112.386 151.567 112.699C152.615 113.061 153.527 113.734 154.181 114.629C154.836 115.523 155.203 116.595 155.232 117.703C155.26 118.447 155.138 119.189 154.873 119.885C154.607 120.581 154.204 121.216 153.688 121.752C153.171 122.289 152.552 122.715 151.866 123.006C151.181 123.297 150.444 123.447 149.699 123.447H140.739C139.725 123.444 138.753 123.04 138.036 122.321C137.32 121.603 136.918 120.63 136.918 119.616Z" fill="#FF5800"/>
<path d="M136.918 119.616C136.918 119.616 136.918 119.786 136.976 120.1C137.044 120.561 137.195 121.006 137.424 121.413C137.786 122.053 138.32 122.579 138.965 122.931C139.367 123.142 139.804 123.278 140.255 123.334C140.77 123.373 141.285 123.383 141.801 123.366L149.466 123.339C150.193 123.358 150.916 123.24 151.599 122.99C152.319 122.72 152.974 122.302 153.52 121.761C154.067 121.221 154.493 120.57 154.77 119.854C155.053 119.097 155.167 118.289 155.106 117.484C155.046 116.69 154.813 115.92 154.422 115.227C154.031 114.534 153.492 113.936 152.844 113.474C152.218 113.042 151.514 112.737 150.77 112.578C148.727 112.095 146.581 112.301 144.668 113.165C144.09 113.425 143.562 113.752 143.037 114.034L141.541 114.867L138.965 116.292C138.317 116.641 137.782 117.168 137.424 117.811C137.198 118.218 137.046 118.663 136.976 119.123C136.931 119.437 136.936 119.607 136.922 119.607C136.905 119.443 136.905 119.278 136.922 119.114C136.973 118.644 137.112 118.188 137.334 117.77C137.686 117.101 138.227 116.55 138.889 116.184L141.447 114.728L142.934 113.882C143.454 113.595 143.983 113.263 144.574 112.986C146.523 112.088 148.717 111.868 150.806 112.359C151.576 112.512 152.309 112.816 152.961 113.255C153.638 113.734 154.201 114.358 154.61 115.08C155.019 115.803 155.263 116.607 155.326 117.434C155.392 118.274 155.272 119.118 154.977 119.907C154.687 120.656 154.242 121.335 153.671 121.899C153.099 122.463 152.414 122.899 151.661 123.178C150.954 123.433 150.205 123.553 149.453 123.532L141.787 123.509C141.266 123.52 140.744 123.504 140.224 123.46C139.752 123.394 139.297 123.243 138.88 123.012C138.22 122.643 137.679 122.092 137.321 121.426C137.102 121.008 136.964 120.552 136.913 120.082C136.902 119.927 136.904 119.771 136.918 119.616Z" fill="#263238"/>
<path d="M305.419 178C305.419 178 305.419 177.897 305.419 177.691C305.419 177.484 305.455 177.175 305.482 176.795C305.509 176.414 305.554 175.899 305.581 175.316C305.608 174.734 305.626 174.053 305.648 173.296C305.67 172.539 305.648 171.687 305.648 170.764C305.648 169.842 305.581 168.834 305.455 167.758C305.252 165.322 304.818 162.91 304.161 160.555C303.773 159.181 303.296 157.834 302.731 156.523C302.132 155.106 301.41 153.745 300.572 152.455C298.705 149.611 296.33 147.135 293.565 145.152C290.523 142.943 287.126 141.267 283.521 140.197C279.785 139.055 275.717 138.638 271.578 138.607C267.54 138.57 263.521 139.155 259.661 140.341C257.833 140.918 256.059 141.651 254.356 142.532C252.734 143.394 251.192 144.402 249.751 145.542C247.072 147.64 244.685 150.087 242.655 152.818C241.762 154.071 240.974 155.395 240.298 156.778C239.682 158.059 239.138 159.374 238.667 160.716C237.236 164.759 236.365 168.98 236.078 173.26C236.006 174.779 236.015 175.948 236.056 176.763C236.078 177.157 236.096 177.458 236.105 177.659C236.114 177.861 236.105 177.968 236.105 177.968C236.105 177.968 236.105 177.865 236.069 177.659C236.033 177.453 236.024 177.144 235.993 176.763C235.934 175.595 235.934 174.424 235.993 173.255C236.241 168.952 237.09 164.704 238.515 160.635C238.986 159.288 239.527 157.966 240.137 156.675C240.818 155.282 241.609 153.946 242.502 152.679C244.54 149.931 246.934 147.466 249.621 145.349C251.071 144.2 252.621 143.183 254.253 142.312C255.967 141.425 257.754 140.686 259.594 140.103C263.475 138.903 267.519 138.312 271.582 138.352C275.739 138.383 279.825 138.8 283.593 139.956C287.222 141.036 290.639 142.726 293.7 144.955C295.117 145.998 296.442 147.162 297.66 148.432C298.817 149.623 299.848 150.931 300.738 152.334C301.578 153.636 302.302 155.009 302.902 156.437C303.465 157.748 303.939 159.095 304.322 160.469C304.976 162.836 305.4 165.261 305.59 167.709C305.711 168.784 305.711 169.792 305.76 170.72C305.809 171.647 305.76 172.512 305.76 173.255C305.76 173.999 305.693 174.693 305.666 175.28C305.639 175.867 305.581 176.356 305.545 176.759C305.509 177.162 305.482 177.453 305.464 177.655C305.446 177.856 305.419 178 305.419 178Z" fill="white"/>
<path d="M196.403 121.878H196.3H195.996L194.826 121.905L190.53 121.982C186.901 122.049 181.893 122.183 176.355 122.335C170.818 122.488 165.805 122.591 162.176 122.618C160.362 122.618 158.892 122.618 157.875 122.618H156.706H156.406C156.37 122.624 156.334 122.624 156.298 122.618C156.334 122.612 156.37 122.612 156.406 122.618H156.706L157.875 122.591L162.172 122.515C165.8 122.447 170.814 122.313 176.351 122.165C181.888 122.017 186.901 121.905 190.53 121.878C192.322 121.878 193.814 121.878 194.826 121.878H195.996H196.3H196.403Z" fill="white"/>
<path d="M190.463 128.612C189.158 128.73 187.848 128.769 186.538 128.728C185.229 128.769 183.918 128.73 182.614 128.612C183.919 128.496 185.229 128.458 186.538 128.495C187.848 128.458 189.158 128.496 190.463 128.612Z" fill="white"/>
<path d="M191.906 104.639C191.928 104.698 187.058 106.727 181.024 109.169C174.989 111.61 170.079 113.546 170.052 113.483C170.025 113.42 174.899 111.395 180.934 108.954C186.969 106.512 191.879 104.581 191.906 104.639Z" fill="white"/>
<path d="M182.031 106.176C182.058 106.239 177.417 108.282 171.669 110.741C165.921 113.201 161.244 115.15 161.217 115.091C161.191 115.033 165.832 112.99 171.58 110.526C177.327 108.062 182.005 106.109 182.031 106.176Z" fill="white"/>
<path d="M244.644 103.793C244.671 103.851 239.796 105.88 233.762 108.322C227.727 110.764 222.817 112.695 222.79 112.636C222.764 112.578 227.638 110.549 233.677 108.107C239.716 105.665 244.608 103.73 244.644 103.793Z" fill="white"/>
<path d="M234.752 105.321C234.779 105.383 230.138 107.426 224.394 109.886C218.651 112.345 213.965 114.294 213.938 114.236C213.911 114.178 218.552 112.135 224.3 109.671C230.048 107.207 234.752 105.28 234.752 105.321Z" fill="white"/>
<path d="M245.598 121.856C245.598 121.919 235.908 122.031 223.955 122.102C212.003 122.174 202.312 122.179 202.312 122.102C202.312 122.026 211.998 121.928 223.955 121.86C235.912 121.793 245.598 121.807 245.598 121.856Z" fill="white"/>
<path d="M256.328 128.24C256.328 128.303 253.613 128.379 250.257 128.41C246.902 128.442 244.187 128.41 244.187 128.352C244.187 128.294 246.902 128.209 250.257 128.177C253.613 128.146 256.328 128.173 256.328 128.24Z" fill="white"/>
<path d="M70.7842 124.925C70.6986 124.954 70.6098 124.972 70.5198 124.979L69.7627 125.077C69.4312 125.113 69.028 125.163 68.5621 125.243C68.0962 125.324 67.563 125.382 66.9806 125.499C65.8114 125.705 64.427 126.009 62.9128 126.395C61.2725 126.847 59.6561 127.382 58.0699 127.998C56.3854 128.666 54.8219 129.396 53.4242 130.117C52.0264 130.839 50.8168 131.564 49.8402 132.214C49.3339 132.523 48.8949 132.837 48.4962 133.11C48.0974 133.383 47.7704 133.607 47.5016 133.804L46.8789 134.252C46.8075 134.308 46.731 134.356 46.6504 134.396C46.7098 134.329 46.7758 134.269 46.8475 134.217L47.4478 133.737C47.7077 133.531 48.0302 133.289 48.42 133.007C48.8098 132.725 49.2354 132.411 49.764 132.111C50.7496 131.444 51.9682 130.713 53.348 129.965C56.3688 128.35 59.5684 127.095 62.8814 126.224C64.4046 125.83 65.7979 125.539 66.9762 125.355C67.563 125.248 68.0962 125.194 68.5666 125.131C69.037 125.068 69.4626 125.028 69.7717 125.006L70.5378 124.948C70.6193 124.934 70.7016 124.927 70.7842 124.925Z" fill="white"/>
<path d="M150.788 114.357C150.788 114.357 150.658 114.182 150.34 113.94C149.91 113.611 149.399 113.405 148.862 113.344C148.055 113.277 147.243 113.364 146.469 113.599C143.742 114.286 141.208 115.591 139.064 117.412C137.998 118.308 137.433 118.967 137.402 118.935C137.51 118.764 137.636 118.605 137.778 118.46C138.149 118.049 138.54 117.657 138.952 117.287C140.321 116.068 141.875 115.075 143.557 114.348C144.481 113.943 145.439 113.624 146.42 113.393C147.219 113.161 148.057 113.088 148.884 113.178C149.446 113.255 149.973 113.497 150.398 113.873C150.511 113.974 150.612 114.088 150.699 114.213C150.77 114.303 150.797 114.352 150.788 114.357Z" fill="white"/>
<path d="M295.026 102.525C294.401 102.676 293.76 102.742 293.117 102.722C292.364 102.7 291.614 102.607 290.877 102.445C289.906 102.216 288.952 101.917 288.024 101.549C286.989 101.159 285.887 100.653 284.695 100.155L282.836 99.4071C282.195 99.1517 281.519 98.9322 280.838 98.6813C277.847 97.6687 274.798 96.8384 271.708 96.195C266.088 95.0252 260.383 94.318 254.648 94.0804C253.546 94.0222 252.551 94.0222 251.673 93.9998H249.433L248.017 94.0311H247.52C247.561 94.0232 247.604 94.0232 247.645 94.0311L248.013 94.0042L249.433 93.9281L251.673 93.8878C252.569 93.8878 253.546 93.8878 254.648 93.9415C260.398 94.1292 266.122 94.8188 271.752 96.0023C274.85 96.6386 277.904 97.4706 280.896 98.4932C281.577 98.7441 282.24 98.9681 282.899 99.2279L284.758 99.994C285.949 100.509 287.047 101.011 288.073 101.41C288.988 101.779 289.93 102.078 290.891 102.306C291.617 102.48 292.358 102.585 293.104 102.619C293.575 102.635 294.047 102.619 294.515 102.57L294.878 102.525H295.026Z" fill="#263238"/>
<path d="M79.4799 103.143C77.6879 93.341 76.4828 91.8357 75.4703 88.4622C74.4578 85.0888 72.8495 82.8981 70.847 82.123C69.503 81.6034 62.7516 79.1707 60.4041 79.9771C58.1073 80.7937 55.9208 81.8923 53.8946 83.2475C52.3223 84.2904 51.1307 85.8153 50.4988 87.5931L46.9148 97.7045L53.2226 103.976L56.3855 97.2565L59.8172 105.32L59.311 113.452L78.9916 118.747C80.7657 115.88 80.4969 108.703 79.4799 103.143Z" fill="#FF5800"/>
<g opacity="0.2">
<path opacity="0.2" d="M74.3683 92.4495C73.4991 97.5522 73.3603 98.2735 72.4911 103.358C72.191 105.11 71.3174 107.838 70.0719 109.111C69.1491 110.047 68.2441 110.947 66.9583 111.252C65.7667 111.534 63.9522 111.566 62.8322 111.073C61.7122 110.58 60.7535 108.385 61.215 107.26C62.886 107.619 63.4012 108.156 64.8393 107.26C66.0937 106.463 67.8767 104.698 68.5577 103.376C71.4294 97.821 72.2223 97.6239 74.3817 92.4495" fill="black"/>
</g>
<path d="M60.1082 102.337C59.7899 101.908 59.4995 101.459 59.2391 100.993L57.2141 97.6642L55.1354 94.3893C54.8255 93.9487 54.5456 93.4877 54.2976 93.0095C54.4054 93.1075 54.5003 93.2189 54.5798 93.341C54.7501 93.5605 54.9875 93.8875 55.2698 94.2952C55.8432 95.1106 56.6138 96.253 57.4112 97.5387C58.2086 98.8245 58.9031 100.016 59.3824 100.89C59.6243 101.338 59.8304 101.678 59.9379 101.929C60.0156 102.055 60.073 102.193 60.1082 102.337Z" fill="#263238"/>
<path d="M73.8439 111.489C73.7013 111.563 73.5511 111.622 73.3959 111.664C73.2123 111.725 73.0253 111.776 72.8359 111.816C72.5883 111.883 72.337 111.936 72.0832 111.973C71.4265 112.09 70.7611 112.151 70.0941 112.157C69.2757 112.158 68.4587 112.088 67.6525 111.946C66.8472 111.794 66.0571 111.571 65.2916 111.279C64.6722 111.037 64.073 110.746 63.4996 110.409C63.2487 110.271 63.0516 110.118 62.8544 109.997C62.6913 109.891 62.5343 109.776 62.384 109.652C62.2475 109.559 62.1226 109.449 62.0122 109.325C62.0391 109.289 62.5946 109.724 63.5802 110.266C64.158 110.578 64.7568 110.849 65.3722 111.077C66.8846 111.641 68.4846 111.933 70.0986 111.942C70.7563 111.942 71.4134 111.899 72.0653 111.812C73.1584 111.655 73.8304 111.444 73.8439 111.489Z" fill="#263238"/>
<path d="M65.9458 96.2169C65.9099 96.3916 63.7954 100.603 63.7954 100.603L53.8139 95.3433L52.797 91.0425C52.6291 90.3519 52.1946 89.7558 51.5884 89.3847C50.9823 89.0137 50.2538 88.8977 49.5624 89.0624L46.619 90.2675C46.4977 90.3149 46.3899 90.3917 46.3055 90.491C46.2211 90.5903 46.1625 90.709 46.1352 90.8364C46.0949 91.0515 46.1352 91.2844 46.525 91.2352C47.2552 91.1769 48.765 91.0156 48.765 91.0156L48.0706 93.4662C47.8873 94.1084 47.9578 94.7965 48.2677 95.3881L48.7157 96.2348L49.6878 97.8073H49.6654C49.6654 97.8073 59.3691 107.775 64.8168 108.425C68.0917 108.815 71.8011 99.6352 71.8011 99.6352L65.9458 96.2169Z" fill="#B78876"/>
<path d="M48.6934 91.1815C48.6934 91.1815 48.7695 91.0784 48.9353 90.9664C49.1572 90.8119 49.4219 90.7304 49.6924 90.7335C49.8336 90.7414 49.9701 90.7872 50.0875 90.866C50.205 90.9448 50.2991 91.0538 50.3599 91.1815C50.454 91.3831 50.3913 91.5175 50.3599 91.5085C50.3286 91.4996 50.3599 91.3831 50.2524 91.2308C50.1863 91.134 50.0992 91.0536 49.9975 90.9954C49.8959 90.9372 49.7824 90.9028 49.6655 90.8948C49.4231 90.8982 49.185 90.9596 48.9711 91.074C48.8322 91.1412 48.7068 91.1994 48.6934 91.1815Z" fill="#AA6550"/>
<path d="M49.9519 92.7093C49.9519 92.7093 49.8847 92.6286 49.7907 92.5077C49.6704 92.3533 49.511 92.2341 49.329 92.1624C49.1469 92.0907 48.949 92.0691 48.7558 92.1C48.6035 92.1 48.5094 92.1538 48.5004 92.1358C48.4915 92.1179 48.5721 92.0507 48.7334 91.997C48.9465 91.9347 49.1743 91.9449 49.381 92.026C49.5878 92.1071 49.7618 92.2544 49.8758 92.445C49.9564 92.5973 49.9654 92.7048 49.9519 92.7093Z" fill="#AA6550"/>
<path d="M68.0151 82.925L65.3271 95.7333L72.4952 100.039L75.2459 92.1672C75.2459 92.1672 74.09 82.6069 68.0151 82.925Z" fill="#FF5800"/>
<path d="M71.8775 83.1488C71.8775 83.1488 71.8192 83.1981 71.6938 83.2653C71.5684 83.3325 71.3892 83.431 71.1517 83.552C70.6768 83.7939 69.978 84.1344 69.1044 84.5242C66.8332 85.5624 64.4421 86.3148 61.9856 86.7642C59.5138 87.2059 56.9764 87.1204 54.5399 86.5133C53.8106 86.3217 53.1 86.0653 52.4164 85.7472C52.17 85.6442 51.9684 85.5322 51.8653 85.4694C51.801 85.4374 51.7396 85.3999 51.6816 85.3574C51.944 85.4462 52.2012 85.5494 52.4522 85.6666C53.1485 85.9478 53.8641 86.1784 54.5936 86.3565C57.0118 86.9101 59.5166 86.971 61.9588 86.5357C64.3988 86.0865 66.7796 85.3605 69.0551 84.3718C69.9511 84.0045 70.6365 83.6864 71.1248 83.4758C71.3682 83.3503 71.6196 83.241 71.8775 83.1488Z" fill="#EBEBEB"/>
<path d="M73.7632 84.5645C73.7018 84.6199 73.6341 84.668 73.5616 84.7078L72.9702 85.0886C72.6576 85.2933 72.3346 85.4818 72.0025 85.6531C71.6172 85.8547 71.1872 86.1011 70.6809 86.3251L69.9014 86.6835C69.6281 86.8089 69.3324 86.912 69.0323 87.0329C68.4364 87.2793 67.7734 87.4809 67.0835 87.7049C64.0586 88.6173 60.897 88.9918 57.7427 88.8115C57.0169 88.7533 56.327 88.7129 55.6908 88.6099C55.3683 88.5606 55.0592 88.5293 54.7635 88.4755L53.9168 88.3053C53.3792 88.2112 52.8998 88.0678 52.4787 87.9603C52.1165 87.8728 51.7591 87.7667 51.408 87.6422L50.7404 87.4093C50.6605 87.388 50.5837 87.3564 50.512 87.3152C50.5946 87.3197 50.6761 87.3363 50.7539 87.3645L51.4348 87.5526C51.726 87.6422 52.0844 87.7453 52.51 87.8349C52.9356 87.9245 53.406 88.0633 53.9526 88.144L54.7948 88.2963C55.086 88.3501 55.3952 88.3769 55.6908 88.4173C56.327 88.5113 57.0348 88.5472 57.7292 88.5965C60.8602 88.7556 63.9955 88.3845 67.0028 87.4989C67.6883 87.2838 68.3468 87.0912 68.9427 86.8493C69.2384 86.7328 69.534 86.6342 69.8073 86.5177L70.5913 86.1728C71.0976 85.9667 71.5276 85.7248 71.9353 85.5366C72.343 85.3485 72.6566 85.1648 72.9164 85.0125L73.5347 84.672C73.6057 84.6261 73.6825 84.5899 73.7632 84.5645Z" fill="#EBEBEB"/>
<path d="M72.4778 100.038C72.277 99.9534 72.0824 99.8546 71.8954 99.7426L70.3184 98.8466L64.9424 95.7419L64.8752 95.7016V95.6255C65.0679 94.6712 65.274 93.6408 65.489 92.5835C65.8116 90.9887 66.1252 89.4744 66.385 88.1035C66.5328 87.4136 66.6538 86.7595 66.7882 86.1368C66.9098 85.5612 67.1024 85.0029 67.3616 84.4747C67.7372 83.6903 68.4019 83.0818 69.2164 82.7768C69.4368 82.7009 69.6686 82.663 69.9018 82.6648C69.9819 82.6593 70.0624 82.6684 70.1392 82.6917C69.8336 82.702 69.5314 82.7594 69.2432 82.8619C68.4737 83.1865 67.8536 83.7875 67.505 84.5464C67.2628 85.0683 67.0838 85.6173 66.9719 86.1816C66.8509 86.7954 66.7255 87.4539 66.5911 88.1394C66.3133 89.5282 66.0087 91.0424 65.6951 92.6194C65.48 93.6811 65.2695 94.7071 65.0768 95.6613L65.0231 95.5448L70.3677 98.7211L71.9133 99.662C72.1117 99.7714 72.3005 99.8973 72.4778 100.038Z" fill="#263238"/>
<path d="M74.6681 91.7861C74.7076 92.1847 74.6956 92.5868 74.6323 92.9823C74.5384 93.9397 74.3677 94.8881 74.1216 95.8181C73.8756 96.7492 73.5581 97.6599 73.1718 98.542C73.0316 98.9171 72.8434 99.2725 72.6118 99.5993C72.7215 99.2169 72.8577 98.8426 73.0195 98.4793C73.6995 96.6967 74.1861 94.8463 74.471 92.9599C74.5118 92.5649 74.5776 92.1728 74.6681 91.7861Z" fill="#263238"/>
<path d="M35.8043 163.032L35.7236 169.868C35.7236 169.868 28.7438 172.086 28.6094 173.349L41.8612 173.976L42.4257 163.327L35.8043 163.032Z" fill="#455A64"/>
<path d="M39.8721 169.487C39.9978 169.532 40.1026 169.622 40.1662 169.739C40.2299 169.857 40.248 169.994 40.217 170.123C40.1775 170.251 40.0903 170.359 39.9735 170.424C39.8566 170.489 39.7192 170.507 39.5898 170.473C39.457 170.424 39.3467 170.328 39.2798 170.204C39.2129 170.079 39.1941 169.934 39.2269 169.796C39.2832 169.668 39.387 169.567 39.5164 169.513C39.6459 169.46 39.791 169.459 39.9213 169.51" fill="#E0E0E0"/>
<path d="M41.8612 173.976V172.901L29.147 172.699C29.147 172.699 28.5422 172.928 28.5915 173.349L41.8612 173.976Z" fill="#E0E0E0"/>
<path d="M35.513 169.792C35.513 169.855 35.8356 169.9 36.1402 170.124C36.4449 170.348 36.5882 170.625 36.6689 170.603C36.7495 170.581 36.6689 170.204 36.2702 169.94C35.8714 169.676 35.4996 169.729 35.513 169.792Z" fill="#263238"/>
<path d="M34.093 170.298C34.093 170.361 34.3529 170.486 34.541 170.769C34.7292 171.051 34.7964 171.347 34.8636 171.347C34.9308 171.347 34.9845 170.984 34.7202 170.634C34.4559 170.285 34.0975 170.24 34.093 170.298Z" fill="#263238"/>
<path d="M33.2237 171.925C33.282 171.925 33.3895 171.624 33.2237 171.262C33.058 170.899 32.7757 170.746 32.7489 170.814C32.722 170.881 32.8967 171.064 33.0132 171.365C33.1297 171.665 33.1521 171.916 33.2237 171.925Z" fill="#263238"/>
<path d="M35.7013 168.233C35.7282 168.296 36.0284 168.233 36.3957 168.26C36.7631 168.287 37.0364 168.435 37.0722 168.381C37.108 168.327 36.8482 168.081 36.4181 168.036C35.988 167.991 35.6744 168.184 35.7013 168.233Z" fill="#263238"/>
<g opacity="0.3">
<path opacity="0.3" d="M35.7911 164.385L35.7732 165.603L42.2916 165.854L42.3498 164.756L35.7911 164.385Z" fill="black"/>
</g>
<path d="M35.7461 166.853C35.96 166.924 36.1894 166.935 36.4091 166.884C36.6504 166.853 36.8868 166.791 37.1125 166.701C37.2474 166.651 37.3778 166.589 37.5023 166.517C37.5797 166.481 37.6508 166.432 37.7128 166.374C37.7577 166.329 37.7866 166.271 37.7947 166.209C37.8028 166.146 37.7897 166.083 37.7576 166.029C37.7268 165.982 37.6857 165.944 37.6376 165.916C37.5894 165.888 37.5354 165.871 37.4799 165.867C37.3956 165.863 37.3111 165.871 37.229 165.89C37.0867 165.917 36.9472 165.958 36.8123 166.011C36.5843 166.102 36.3714 166.228 36.1807 166.383C35.8581 166.656 35.7327 166.893 35.764 166.907C35.7954 166.92 35.9522 166.732 36.2747 166.513C36.4644 166.386 36.6691 166.284 36.884 166.208C37.0097 166.165 37.1385 166.132 37.2693 166.109C37.4127 166.078 37.5336 166.082 37.565 166.145C37.5963 166.208 37.565 166.181 37.565 166.221C37.5186 166.263 37.4675 166.299 37.4127 166.329C37.2917 166.396 37.1707 166.459 37.0543 166.513C36.8432 166.604 36.6242 166.676 36.4002 166.728C36.1797 166.755 35.9612 166.797 35.7461 166.853Z" fill="#263238"/>
<path d="M35.8399 166.952C35.9731 166.768 36.0438 166.547 36.0415 166.32C36.0664 166.075 36.0482 165.828 35.9878 165.59C35.9517 165.447 35.9006 165.309 35.8355 165.178C35.804 165.088 35.7498 165.009 35.6784 164.947C35.6069 164.885 35.5206 164.842 35.4278 164.824C35.3693 164.821 35.3114 164.836 35.2612 164.867C35.2111 164.897 35.1709 164.941 35.1455 164.994C35.106 165.07 35.0788 165.151 35.0649 165.236C35.0425 165.384 35.0425 165.535 35.0649 165.684C35.0894 165.934 35.1756 166.174 35.3158 166.383C35.5577 166.741 35.8265 166.831 35.831 166.808C35.8355 166.786 35.6339 166.643 35.4502 166.302C35.3451 166.107 35.2839 165.891 35.271 165.67C35.2638 165.541 35.2743 165.411 35.3023 165.285C35.3292 165.146 35.3875 165.034 35.4412 165.052C35.495 165.07 35.6115 165.164 35.6607 165.281C35.7215 165.398 35.771 165.521 35.8086 165.648C35.8729 165.865 35.9061 166.089 35.9072 166.315C35.8713 166.701 35.7907 166.938 35.8399 166.952Z" fill="#263238"/>
<path d="M62.8184 113.523C62.8184 113.523 42.1119 104.832 35.7055 104.469C31.6735 104.236 28.645 106.817 29.1916 110.974C29.4648 113.057 35.1858 137.406 35.1858 137.406L43.9039 133.428L39.7106 116.588L56.7346 124.858L62.8184 113.523Z" fill="#263238"/>
<path d="M37.1081 112.327C37.0409 112.385 37.7263 113.268 38.4521 114.437C39.1778 115.606 39.6617 116.614 39.7423 116.583C39.823 116.551 39.4511 115.472 38.7119 114.28C37.9727 113.088 37.1842 112.273 37.1081 112.327Z" fill="#455A64"/>
<path d="M35.4145 113.295C35.3697 113.371 36.4135 114.034 37.6545 114.939C38.8954 115.844 39.8273 116.637 39.8945 116.574C39.9617 116.512 39.0657 115.584 37.8202 114.688C36.5748 113.792 35.4503 113.223 35.4145 113.295Z" fill="#455A64"/>
<path d="M78.9691 118.747C78.9691 118.747 76.3662 122.103 73.8843 123.021C70.7483 124.172 47.6942 135.054 47.6942 135.054C47.6942 135.054 43.5099 166.141 43.8414 164.842L34.187 164.609L35.2353 135.977C35.3608 132.313 38.2997 128.101 41.4581 126.229L62.8187 113.523L78.9691 118.747Z" fill="#263238"/>
<path d="M35.0517 141.219C35.0824 141.09 35.0959 140.957 35.092 140.824C35.092 140.538 35.1279 140.166 35.1503 139.7C35.2051 138.322 35.3337 136.947 35.5356 135.583C35.8184 133.566 36.5336 131.635 37.6322 129.92C38.312 128.934 39.1507 128.069 40.1141 127.358C41.1596 126.596 42.2535 125.903 43.389 125.283C48.0348 122.622 52.0444 119.907 55.0101 118.048C56.4885 117.107 57.6981 116.359 58.5224 115.848L59.4812 115.257C59.5971 115.193 59.7066 115.118 59.8082 115.033C59.6848 115.078 59.5662 115.135 59.4543 115.203C59.2258 115.324 58.8898 115.503 58.4642 115.745C57.6085 116.225 56.39 116.951 54.8802 117.864C51.8831 119.683 47.8511 122.367 43.2322 125.032C42.0851 125.659 40.9806 126.361 39.926 127.134C38.9384 127.866 38.0812 128.76 37.3903 129.777C36.2851 131.536 35.5801 133.517 35.325 135.578C35.1405 136.952 35.0447 138.336 35.0383 139.722C35.0383 140.17 35.0383 140.56 35.0383 140.851C35.0318 140.974 35.0363 141.097 35.0517 141.219Z" fill="#455A64"/>
<path d="M70.4481 122.022C70.2691 121.744 70.0716 121.479 69.8567 121.229C69.4117 120.582 69.1028 119.851 68.9488 119.081C68.7947 118.311 68.7988 117.517 68.9607 116.749C69.0602 116.433 69.1381 116.112 69.1937 115.786C68.9762 116.045 68.8227 116.352 68.7457 116.682C68.5162 117.477 68.4824 118.316 68.6471 119.128C68.8079 119.939 69.1647 120.699 69.6865 121.341C70.0941 121.856 70.4301 122.049 70.4481 122.022Z" fill="#455A64"/>
<path d="M37.7352 164.609C37.751 164.558 37.7601 164.505 37.7621 164.452C37.7621 164.326 37.7979 164.174 37.8203 163.981C37.8696 163.534 37.9323 162.942 38.013 162.189C38.1698 160.595 38.3938 158.323 38.6715 155.528C38.8014 154.121 38.9493 152.58 39.1195 150.927C39.2898 149.274 39.4466 147.504 39.5675 145.64C39.6885 143.777 39.8856 141.828 40.2261 139.816C40.5586 137.753 41.1611 135.742 42.0181 133.836C42.913 131.952 44.0949 130.218 45.5214 128.697C46.8581 127.282 48.3218 125.992 49.8939 124.844C52.5884 122.947 55.3867 121.201 58.276 119.616C60.7266 118.209 62.6798 117.009 63.9746 116.104C64.6286 115.656 65.1214 115.293 65.453 115.038L65.8248 114.746C65.9084 114.681 65.9487 114.645 65.9458 114.639C65.8959 114.659 65.8491 114.686 65.8069 114.719L65.4171 114.988C65.0766 115.226 64.5704 115.575 63.9118 116.01C62.5947 116.879 60.6325 118.048 58.1685 119.432C55.2556 120.994 52.4373 122.727 49.7282 124.62C48.135 125.771 46.6532 127.068 45.3019 128.495C43.8499 130.037 42.6481 131.797 41.7403 133.71C40.8797 135.64 40.2772 137.675 39.9483 139.763C39.6123 141.779 39.4421 143.736 39.3032 145.587C39.1643 147.437 39.0254 149.22 38.8552 150.873C38.685 152.526 38.5774 154.067 38.4565 155.478C38.219 158.278 38.0085 160.55 37.8965 162.149C37.8367 162.92 37.7919 163.517 37.7621 163.941C37.7621 164.134 37.7397 164.291 37.7307 164.412C37.7218 164.533 37.7262 164.609 37.7352 164.609Z" fill="#455A64"/>
<path d="M60.48 64.2163C60.1549 63.3791 59.542 62.6851 58.7513 62.2589C57.9606 61.8328 57.0439 61.7024 56.1658 61.8912C55.7794 62.0325 55.3754 62.12 54.9652 62.1511C54.4679 62.0659 53.9792 61.9369 53.5047 61.7658C52.9669 61.6786 52.416 61.7945 51.959 62.0909C51.5019 62.3873 51.1714 62.8431 51.0317 63.3696C50.6109 63.2674 50.1728 63.2581 49.7481 63.3424C49.3233 63.4267 48.922 63.6027 48.5722 63.8579C48.2291 64.1236 47.9856 64.497 47.8807 64.918C47.7759 65.339 47.8159 65.7831 47.9943 66.1786C48.169 66.5056 48.4423 66.7655 48.617 67.1015C48.8813 67.6525 48.7604 68.3155 48.944 68.8935C49.1164 69.3137 49.4037 69.6769 49.7729 69.9416C50.1421 70.2062 50.5784 70.3615 51.0317 70.3898C51.9439 70.4367 52.8565 70.3074 53.7197 70.009" fill="#263238"/>
<path d="M56.3092 81.9346C56.1972 81.0655 56.1255 80.4562 56.1255 80.4562C56.1255 80.4562 53.2359 80.4562 52.0935 76.8722C51.5156 75.0802 51.1303 72.0876 50.8973 69.6146C50.8464 69.0878 50.9027 68.5562 51.0628 68.0517C51.2228 67.5473 51.4834 67.0804 51.8288 66.6794C52.1741 66.2784 52.5971 65.9514 53.0723 65.7183C53.5474 65.4851 54.0648 65.3506 54.5933 65.3228L62.2631 64.9241L62.4289 66.1113L64.4493 80.8594C64.5224 81.3941 64.489 81.938 64.3512 82.4598C64.2133 82.9816 63.9736 83.4709 63.646 83.8998C63.3183 84.3286 62.9091 84.6884 62.4419 84.9586C61.9747 85.2287 61.4587 85.4038 60.9236 85.4738C60.388 85.5456 59.8436 85.5108 59.3215 85.3716C58.7995 85.2324 58.31 84.9915 57.8813 84.6627C57.4525 84.3338 57.093 83.9236 56.8232 83.4554C56.5534 82.9873 56.3787 82.4705 56.3092 81.9346Z" fill="#B78876"/>
<path d="M51.9682 71.7248C51.9871 71.8473 52.0527 71.9578 52.1512 72.0329C52.2498 72.1081 52.3737 72.1422 52.4968 72.128C52.5578 72.1242 52.6173 72.1079 52.6718 72.0803C52.7262 72.0526 52.7745 72.0141 52.8135 71.9671C52.8525 71.9201 52.8815 71.8656 52.8987 71.807C52.9159 71.7484 52.9209 71.6869 52.9135 71.6262C52.8968 71.5027 52.8317 71.3909 52.7326 71.3153C52.6335 71.2397 52.5084 71.2065 52.3848 71.223C52.3239 71.2269 52.2643 71.2431 52.2099 71.2708C52.1554 71.2985 52.1072 71.337 52.0682 71.384C52.0292 71.431 52.0002 71.4854 51.983 71.5441C51.9658 71.6027 51.9607 71.6642 51.9682 71.7248Z" fill="#263238"/>
<path d="M51.7709 71.0617C51.8381 71.111 52.1517 70.7929 52.6669 70.7123C53.1821 70.6316 53.5629 70.8287 53.6301 70.7571C53.6973 70.6854 53.5764 70.6227 53.3972 70.5331C53.1542 70.4139 52.8798 70.3747 52.6132 70.4211C52.3494 70.4605 52.1056 70.5847 51.9188 70.775C51.7709 70.9183 51.7351 71.0393 51.7709 71.0617Z" fill="#263238"/>
<path d="M56.7706 70.9096C56.7895 71.0318 56.8553 71.1418 56.954 71.2163C57.0527 71.2907 57.1766 71.3237 57.2993 71.3083C57.3602 71.305 57.4198 71.2893 57.4745 71.2622C57.5291 71.235 57.5777 71.197 57.6171 71.1505C57.6565 71.1039 57.686 71.0498 57.7038 70.9914C57.7216 70.933 57.7272 70.8717 57.7204 70.811C57.7015 70.6885 57.6359 70.5781 57.5374 70.5029C57.4388 70.4277 57.3149 70.3936 57.1918 70.4078C57.1304 70.411 57.0704 70.4269 57.0154 70.4543C56.9604 70.4817 56.9117 70.5201 56.8722 70.5672C56.8327 70.6142 56.8033 70.6689 56.7858 70.7278C56.7684 70.7867 56.7632 70.8486 56.7706 70.9096Z" fill="#263238"/>
<path d="M56.762 70.363C56.8292 70.4168 57.1428 70.0942 57.658 70.0181C58.1732 69.9419 58.554 70.1301 58.6212 70.0584C58.6884 69.9867 58.5674 69.9285 58.3882 69.8344C58.1441 69.7191 57.8709 69.6801 57.6042 69.7224C57.3415 69.7648 57.0986 69.8886 56.9098 70.0763C56.762 70.2197 56.7306 70.3361 56.762 70.363Z" fill="#263238"/>
<path d="M55.5209 74.4128C55.2399 74.3749 54.9552 74.3749 54.6742 74.4128C54.5443 74.4128 54.4188 74.4128 54.383 74.3276C54.3418 74.1979 54.3418 74.0586 54.383 73.9289C54.4547 73.5974 54.5308 73.248 54.6115 72.8851C54.8302 71.9945 54.98 71.0883 55.0595 70.1747C54.7659 71.0515 54.5427 71.9504 54.3919 72.8627C54.3203 73.23 54.2486 73.5795 54.1859 73.9155C54.1233 74.0815 54.1233 74.2647 54.1859 74.4307C54.212 74.4731 54.2473 74.5092 54.2892 74.5363C54.331 74.5635 54.3783 74.5809 54.4278 74.5875C54.5022 74.5969 54.5774 74.5969 54.6518 74.5875C54.9477 74.5662 55.2398 74.5075 55.5209 74.4128Z" fill="#263238"/>
<path d="M56.1255 80.4563C57.8569 80.2078 59.4854 79.4835 60.8295 78.3641C60.8295 78.3641 60.032 81.088 56.3092 81.3165L56.1255 80.4563Z" fill="#AA6550"/>
<path d="M57.0663 74.5249C56.9812 74.5249 57.0663 75.0804 56.6631 75.5464C56.2599 76.0123 55.6596 76.0436 55.6641 76.1198C55.6686 76.196 55.8119 76.2094 56.0628 76.1736C56.3857 76.1302 56.6818 75.9709 56.8961 75.7256C57.1059 75.4931 57.2154 75.1872 57.2007 74.8744C57.1873 74.6414 57.1022 74.516 57.0663 74.5249Z" fill="#263238"/>
<path d="M56.3138 68.4005C56.3855 68.5304 56.8827 68.4005 57.4875 68.3602C58.0923 68.3199 58.5986 68.4229 58.6568 68.2885C58.7151 68.1541 58.5807 68.1093 58.3656 68.0063C58.0805 67.8819 57.7705 67.8248 57.4597 67.8396C57.1489 67.8543 56.8457 67.9405 56.5736 68.0914C56.3765 68.2124 56.2824 68.3378 56.3138 68.4005Z" fill="#263238"/>
<path d="M51.7218 69.5654C51.8293 69.6639 52.1698 69.4892 52.5775 69.4175C52.9852 69.3459 53.366 69.3727 53.4287 69.2383C53.4556 69.1756 53.3794 69.0681 53.2092 68.9875C52.98 68.8855 52.7248 68.8573 52.4789 68.9068C52.2336 68.9501 52.008 69.0692 51.8338 69.2473C51.7039 69.3907 51.6725 69.5161 51.7218 69.5654Z" fill="#263238"/>
<path d="M50.4942 67.9974C50.4942 67.9974 52.5237 68.6828 54.8533 67.1238C56.3809 66.1023 58.2357 65.4617 58.6971 65.7394C59.1585 66.0172 59.4587 67.6838 61.1387 67.9794C61.1387 67.9794 61.4344 71.2051 62.7022 70.9273C63.5982 70.7302 63.0785 67.173 62.7022 65.1436C62.6236 64.7512 62.4159 64.3965 62.1123 64.1359C61.8086 63.8752 61.4264 63.7237 61.0267 63.7055L58.6657 63.6115L55.7179 64.4358L52.555 65.2959L50.1448 66.3039L50.4942 67.9974Z" fill="#263238"/>
<path d="M62.4197 69.6147C62.4645 69.5834 64.4222 68.553 64.7851 70.6899C65.148 72.8269 62.9304 72.7462 62.9125 72.688C62.8946 72.6298 62.4197 69.6147 62.4197 69.6147Z" fill="#B78876"/>
<path d="M63.4282 71.7652C63.4282 71.7652 63.473 71.7876 63.5402 71.8055C63.6345 71.8279 63.7338 71.8135 63.8179 71.7652C63.9398 71.6539 64.0303 71.5126 64.0807 71.3554C64.131 71.1982 64.1392 71.0306 64.1046 70.8692C64.0788 70.6855 64.013 70.5096 63.912 70.354C63.8795 70.291 63.8324 70.2366 63.7748 70.1954C63.7172 70.1541 63.6506 70.1271 63.5805 70.1165C63.536 70.1127 63.4915 70.1245 63.4548 70.1499C63.418 70.1752 63.3912 70.2125 63.3789 70.2554C63.3789 70.3182 63.3789 70.3585 63.3789 70.3674C63.3789 70.3764 63.3296 70.3361 63.3296 70.2465C63.3334 70.1916 63.3555 70.1395 63.3923 70.0986C63.4441 70.0445 63.5147 70.0125 63.5894 70.009C63.6806 70.0107 63.7697 70.036 63.8482 70.0823C63.9267 70.1286 63.9919 70.1944 64.0374 70.2734C64.16 70.4426 64.2385 70.6396 64.2659 70.8468C64.3104 71.0354 64.2974 71.233 64.2288 71.4142C64.1601 71.5954 64.0389 71.7519 63.8806 71.8637C63.826 71.8897 63.7663 71.9031 63.7059 71.9031C63.6455 71.9031 63.5858 71.8897 63.5312 71.8637C63.4416 71.8189 63.4237 71.7741 63.4282 71.7652Z" fill="#AA6550"/>
<path d="M51.52 62.581C51.52 62.581 51.5917 62.6975 51.744 62.8678C51.9622 63.1092 52.2404 63.2885 52.5504 63.3874C53.011 63.5362 53.5032 63.5579 53.9751 63.4502C54.5618 63.3075 55.1381 63.1249 55.6999 62.9036C56.2815 62.6746 56.9028 62.5634 57.5277 62.5765C58.0562 62.5957 58.5563 62.8208 58.921 63.2038C59.1694 63.4537 59.3203 63.7842 59.3466 64.1356C59.3652 64.2631 59.3433 64.3931 59.2839 64.5074C59.2615 64.5074 59.2839 64.373 59.257 64.1445C59.2011 63.8271 59.0439 63.5364 58.809 63.3158C58.4638 62.9849 58.0058 62.7976 57.5277 62.7916C56.9312 62.7921 56.34 62.9045 55.785 63.1231C55.2138 63.3503 54.625 63.5301 54.0243 63.6607C53.5172 63.7656 52.9908 63.7252 52.5056 63.5442C52.1762 63.4233 51.8896 63.2083 51.6813 62.926C51.52 62.7199 51.52 62.5855 51.52 62.581Z" fill="#455A64"/>
<path d="M58.7376 64.6285C58.7376 64.6285 58.63 64.5165 58.406 64.3597C58.0866 64.1642 57.7188 64.0618 57.3443 64.064C56.7763 64.0619 56.2165 64.1988 55.7136 64.4627C55.0851 64.8022 54.4356 65.1015 53.7692 65.3587C53.137 65.555 52.4712 65.6193 51.813 65.5476C51.1549 65.4759 50.5185 65.2698 49.9433 64.9421C49.5954 64.7463 49.2771 64.5019 48.9981 64.2163C48.8894 64.1193 48.7985 64.0041 48.7292 63.8759C49.1259 64.2264 49.5584 64.5343 50.0195 64.7943C51.1523 65.3888 52.4739 65.5128 53.6976 65.1392C54.3545 64.8735 54.9975 64.5744 55.624 64.2432C56.1587 63.9726 56.7547 63.846 57.3532 63.8759C57.76 63.8915 58.1517 64.034 58.4732 64.2835C58.5908 64.3727 58.6821 64.4918 58.7376 64.6285Z" fill="#455A64"/>
<path d="M52.1026 101.033L41.7 92.1671L38.2683 92.9422C38.2683 92.9422 41.8837 100.46 44.5 103.215C44.5 103.215 47.085 106.673 51.3499 105.177C55.6149 103.681 52.1026 101.033 52.1026 101.033Z" fill="#B78876"/>
<path d="M40.9113 82.4006H36.4895C36.3227 82.4097 36.16 82.4558 36.0132 82.5357C35.8664 82.6155 35.7392 82.7271 35.641 82.8623C35.5427 82.9974 35.4758 83.1528 35.4451 83.317C35.4145 83.4813 35.4208 83.6503 35.4636 83.8118L39.9123 92.4717C39.9966 92.6366 40.125 92.775 40.2831 92.8714C40.4413 92.9679 40.623 93.0187 40.8083 93.0182H46.1843C46.3107 93.0041 46.4316 92.959 46.5363 92.8868C46.641 92.8146 46.7262 92.7176 46.7843 92.6045C46.8424 92.4914 46.8716 92.3657 46.8693 92.2385C46.867 92.1114 46.8333 91.9868 46.7711 91.8758L42.4838 83.3952C42.3378 83.1014 42.114 82.8532 41.8367 82.6778C41.5595 82.5025 41.2393 82.4066 40.9113 82.4006Z" fill="#455A64"/>
<path d="M40.6158 82.9249H36.194C36.0671 82.9241 35.9421 82.956 35.8311 83.0175C35.7201 83.079 35.6268 83.168 35.5602 83.2761C35.4936 83.3841 35.4559 83.5074 35.4508 83.6342C35.4457 83.7611 35.4733 83.887 35.531 84.0001L39.8721 92.4718C39.9572 92.636 40.0858 92.7738 40.2438 92.8702C40.4017 92.9665 40.5831 93.0178 40.7681 93.0183H46.0993C46.1725 93.0153 46.2438 92.9943 46.307 92.9573C46.3702 92.9202 46.4234 92.8683 46.4619 92.8059C46.5004 92.7436 46.5229 92.6728 46.5277 92.5997C46.5324 92.5266 46.5192 92.4534 46.4891 92.3866L42.1972 83.9105C42.0522 83.6147 41.8271 83.3655 41.5476 83.1913C41.268 83.0171 40.9452 82.9248 40.6158 82.9249Z" fill="#263238"/>
<path d="M40.2395 86.4639L37.5515 87.5391L36.978 89.7074L38.2727 92.933L43.0081 93.6319L41.6193 92.2117L41.794 90.9708C41.794 90.9708 43.138 90.5541 43.138 90.3525C43.138 90.1509 42.9723 89.4565 42.7707 89.4341C42.2403 89.5552 41.7205 89.7185 41.2161 89.9224C41.2161 89.9224 42.8603 88.6187 42.8155 88.4082C42.7707 88.1976 42.5915 87.6645 42.2644 87.6018C41.9374 87.5391 39.2763 88.798 39.2763 88.798L38.8283 89.7791L38.4519 88.2066C38.4519 88.2066 40.8219 87.5435 40.2395 86.4639Z" fill="#B78876"/>
<path d="M40.5801 91.5533C40.5801 91.5533 40.5129 91.4637 40.486 91.2845C40.4577 91.0563 40.4835 90.8246 40.5613 90.6083C40.6392 90.3919 40.7668 90.1969 40.934 90.039C41.0684 89.9225 41.1714 89.8822 41.1804 89.8957C40.9759 90.1221 40.8082 90.379 40.6831 90.6573C40.6034 90.9489 40.5686 91.2511 40.5801 91.5533Z" fill="#AA6550"/>
<path d="M39.2988 91.0831C39.3513 90.8514 39.3872 90.6164 39.4063 90.3797C39.4172 90.1151 39.4624 89.8531 39.5407 89.6002C39.5919 89.4377 39.6813 89.2899 39.8013 89.1691C39.9213 89.0483 40.0686 88.958 40.2307 88.9058C40.8713 88.6728 41.4537 88.4847 41.8748 88.3458C42.1 88.2607 42.3324 88.1962 42.5692 88.1531C42.3607 88.2722 42.1399 88.3683 41.9107 88.4399C41.494 88.6011 40.9116 88.8072 40.2799 89.0357C40.1324 89.0865 39.9978 89.1691 39.8857 89.2776C39.7862 89.3831 39.7099 89.5082 39.6617 89.645C39.5797 89.8872 39.527 90.1384 39.5049 90.3931C39.4962 90.6369 39.4253 90.8744 39.2988 91.0831Z" fill="#AA6550"/>
<path d="M38.6807 90.5992C38.6383 90.4241 38.6383 90.2413 38.6807 90.0661C38.73 89.7794 38.7972 89.5554 38.8375 89.5599C38.8796 89.7351 38.8796 89.9178 38.8375 90.093C38.7882 90.3797 38.721 90.6037 38.6807 90.5992Z" fill="#AA6550"/>
<path d="M38.6087 84.5602C38.6087 84.6718 38.6418 84.7809 38.7038 84.8738C38.7658 84.9666 38.854 85.039 38.9571 85.0817C39.0603 85.1244 39.1738 85.1356 39.2833 85.1138C39.3928 85.092 39.4933 85.0383 39.5723 84.9593C39.6512 84.8804 39.705 84.7798 39.7268 84.6703C39.7486 84.5608 39.7374 84.4473 39.6946 84.3441C39.6519 84.241 39.5796 84.1528 39.4867 84.0908C39.3939 84.0288 39.2848 83.9957 39.1731 83.9957C39.0988 83.9951 39.0252 84.0093 38.9564 84.0374C38.8877 84.0656 38.8252 84.1071 38.7727 84.1597C38.7201 84.2122 38.6786 84.2747 38.6504 84.3434C38.6223 84.4122 38.6081 84.4859 38.6087 84.5602Z" fill="#FAFAFA"/>
<path d="M23.1168 169.953C23.8185 170.171 24.4691 170.527 25.0295 171.002C25.5899 171.477 26.0487 172.061 26.3783 172.717C27.0314 174.036 27.3731 175.488 27.3773 176.96C27.4669 179.791 26.2931 182.838 24.9088 185.315C22.2611 183.613 21.2039 180.096 20.7738 178.304C20.1018 175.446 20.617 169.872 23.1168 169.949" fill="#FF5800"/>
<path d="M28.3088 189.526C28.0328 188.752 27.9662 187.919 28.1157 187.111C28.2651 186.303 28.6254 185.549 29.16 184.925C29.7056 184.311 30.3682 183.812 31.109 183.458C31.8498 183.103 32.6539 182.9 33.4743 182.86C34.2269 182.806 35.0691 182.905 35.5843 183.46C35.8108 183.734 35.96 184.063 36.0167 184.413C36.0734 184.764 36.0355 185.123 35.9069 185.454C35.6391 186.113 35.2017 186.689 34.6391 187.125C32.7888 188.702 30.7101 189.885 28.3088 189.526Z" fill="#FF5800"/>
<path d="M26.5441 198.518C26.5237 198.324 26.5237 198.129 26.5441 197.935C26.5441 197.519 26.5799 196.985 26.6023 196.345C26.6198 194.58 26.9224 192.83 27.4983 191.161C28.1005 189.49 29.1365 188.009 30.4999 186.87C30.9137 186.535 31.3646 186.249 31.8439 186.018C32.0141 185.933 32.1575 185.893 32.2471 185.853C32.3367 185.812 32.3905 185.803 32.3949 185.812C31.2897 186.359 30.3039 187.12 29.4949 188.05C28.6858 188.981 28.0696 190.063 27.682 191.233C27.1214 192.885 26.8089 194.61 26.7546 196.354C26.7098 197.021 26.6695 197.563 26.6337 197.94C26.6198 198.134 26.5898 198.328 26.5441 198.518Z" fill="#263238"/>
<path d="M23.0986 174.232C23.1254 174.312 23.1464 174.394 23.1613 174.478C23.2002 174.663 23.2494 174.901 23.3092 175.19C23.4346 175.808 23.6049 176.709 23.802 177.82C24.2007 180.06 24.698 183.129 25.1863 186.543C25.6746 189.956 26.0375 193.056 26.2705 195.305C26.3869 196.43 26.4721 197.339 26.5258 197.971C26.5467 198.27 26.5646 198.512 26.5796 198.697C26.5925 198.78 26.5925 198.865 26.5796 198.948C26.5572 198.866 26.5422 198.782 26.5348 198.697C26.5124 198.513 26.481 198.276 26.4407 197.976C26.3601 197.326 26.2525 196.425 26.1181 195.323C25.8493 193.083 25.4596 189.983 24.9802 186.569C24.5009 183.156 24.017 180.096 23.6586 177.856C23.4794 176.758 23.3361 175.862 23.2106 175.213C23.1658 174.917 23.13 174.68 23.0986 174.496C23.0869 174.408 23.0869 174.319 23.0986 174.232Z" fill="#263238"/>
<path d="M24.4921 191.816C23.965 190.169 23.0534 188.671 21.8327 187.446C20.6119 186.222 19.1171 185.305 17.4719 184.773C16.6297 184.509 15.5724 184.415 15.0079 185.091C14.4434 185.768 14.7481 186.798 15.1826 187.564C16.1173 189.147 17.5 190.417 19.1562 191.214C20.8123 192.012 22.6675 192.3 24.4876 192.044" fill="#FF5800"/>
<path d="M18.22 187.362C18.4002 187.394 18.5772 187.442 18.7487 187.506C18.9546 187.566 19.1566 187.639 19.3535 187.725C19.5864 187.828 19.8597 187.918 20.1375 188.07C20.4445 188.22 20.7436 188.386 21.0335 188.567C21.3747 188.773 21.7052 188.996 22.0236 189.235C23.4896 190.336 24.6646 191.779 25.4463 193.437C25.6161 193.797 25.7657 194.167 25.8943 194.544C26.0121 194.869 26.1093 195.201 26.1855 195.538C26.2551 195.816 26.3089 196.097 26.3468 196.38C26.3857 196.592 26.4111 196.806 26.4229 197.021C26.4414 197.203 26.4444 197.386 26.4319 197.568C26.3826 197.568 26.3512 196.784 26.0332 195.57C25.9484 195.241 25.8467 194.916 25.7285 194.597C25.6 194.228 25.4504 193.866 25.2805 193.513C24.8832 192.717 24.4011 191.966 23.8424 191.273C23.2679 190.583 22.6222 189.955 21.916 189.401C21.6066 189.162 21.2852 188.939 20.9528 188.733C20.6637 188.545 20.3646 188.373 20.0568 188.218C18.9592 187.622 18.2021 187.403 18.22 187.362Z" fill="#263238"/>
</svg>
