<svg width="14" height="18" viewBox="0 0 14 18" fill="none" xmlns="http://www.w3.org/2000/svg">
<path d="M6.9999 1.94796C5.35165 1.94796 4.00863 3.18416 4.00863 4.70132V6.55563H1.89235V4.70132C1.89235 2.11653 4.19176 0 6.9999 0C9.80804 0 12.1075 2.11653 12.1075 4.70132V6.55563H9.99118V4.70132C9.99118 3.18416 8.64816 1.94796 6.9999 1.94796Z" fill="#FF5800"/>
<path fill-rule="evenodd" clip-rule="evenodd" d="M12.0058 6.93035H1.99419C0.895349 6.93035 0 7.75448 0 8.76592V15.9209C0 16.4454 0.366279 16.9324 0.915698 17.1009C2.88953 17.7003 4.94477 18 7 18C9.05523 18 11.1105 17.7003 13.0843 17.1009C13.6337 16.9324 14 16.4641 14 15.9209V8.76592C14 7.75448 13.1046 6.93035 12.0058 6.93035ZM10.2445 9.47884C10.599 9.17291 11.1506 9.17263 11.5055 9.47819C11.8953 9.81376 11.8953 10.3828 11.5055 10.7184L6.48339 15.0422L3.6083 12.6085C3.21676 12.2771 3.21153 11.7099 3.5969 11.3724C3.94699 11.0658 4.49519 11.061 4.85161 11.3613L6.47621 12.7305L10.2445 9.47884Z" fill="#FF5800"/>
</svg>
