<svg width="18" height="12" viewBox="0 0 18 12" fill="none" xmlns="http://www.w3.org/2000/svg">
<path fill-rule="evenodd" clip-rule="evenodd" d="M0 1.28571C0 0.573428 0.587415 0 1.31707 0H16.6829C17.4126 0 18 0.573428 18 1.28571V10.7143C18 11.4266 17.4126 12 16.6829 12H1.31707C0.587415 12 0 11.4266 0 10.7143V1.28571ZM2.59986 2.25668C2.51906 2.15946 2.38645 2.12331 2.24315 2.13617C2.07443 2.15408 1.92216 2.27629 1.87154 2.43441C1.8209 2.59256 1.87479 2.77766 2.00305 2.88617L5.54953 6.08705L2.01677 9.10046C1.84142 9.24739 1.81947 9.53717 1.97074 9.7077C2.122 9.87823 2.41896 9.89842 2.59299 9.75L6.20122 6.66965L7.78583 8.10268C8.46698 8.71772 9.51899 8.71654 10.2005 8.10268L11.7919 6.66965L15.407 9.75C15.581 9.89842 15.878 9.87823 16.0293 9.7077C16.1805 9.53717 16.1586 9.24739 15.9832 9.10046L12.4436 6.08036L15.997 2.88617C16.1658 2.73364 16.1772 2.44493 16.021 2.28013C15.8647 2.11532 15.569 2.10416 15.4001 2.25668L9.60366 7.47322C9.24256 7.79848 8.74284 7.79846 8.38262 7.47322L2.59986 2.25668Z" fill="#FF5800"/>
</svg>
