<?xml version="1.0" encoding="UTF-8"?>
<svg width="40px" height="60px" viewBox="0 0 40 60" version="1.1" xmlns="http://www.w3.org/2000/svg" xmlns:xlink="http://www.w3.org/1999/xlink">
    <!-- Generator: Sketch 54.1 (76490) - https://sketchapp.com -->
    <title>Combined Shape</title>
    <desc>Created with Sketch.</desc>
    <g id="Page-1" stroke="none" stroke-width="1" fill="none" fill-rule="evenodd">
        <g id="MeninBlackLimo" transform="translate(-208.000000, -120.000000)" fill="#000">
            <g id="Group-17" transform="translate(208.000000, 120.000000)">
                <g id="Logo">
                    <g id="Combined-Shape">
                        <path d="M6,2 C10.7775814,6.14964139 19,8.6587828 19,9 L14,20 L18,20 C11.2988164,31.4754985 14.9928432,60 15,60 C3.9081697,45.4278637 0.00279637287,27.5260354 -7.46069873e-14,28 C-0.207901889,25.016894 11.5581374,15.4630405 12,15 C10.881958,15.5592223 0.00538958225,22.2180051 -7.46069873e-14,22 C-0.150202981,12.4230961 6.45859113,2 6,2 Z M40,28 C39.9971866,27.5260354 36.0916835,45.4278637 25,60 C25.0066416,60 28.7014395,31.4754985 22,20 L26,20 L21,9 C21,8.6587828 29.2220435,6.14964139 34,2 C33.5411773,2 40.1508393,12.4230961 40,22 C39.9945933,22.2180051 29.1183117,15.5592223 28,15 C28.4414616,15.4630405 40.2085401,25.016894 40,28 Z M27,4 L12,4 C10.3341687,2.92483201 8.43340434,1.57462103 7,4.4408921e-16 L32,4.4408921e-16 C30.6079439,1.78090327 28.8594161,3.0060947 27,4 Z"></path>
                    </g>
                </g>
            </g>
        </g>
    </g>
</svg>