<svg width="250" height="160" viewBox="0 0 250 160" fill="none" xmlns="http://www.w3.org/2000/svg">
<path d="M146.855 23.8219C164.093 20.2553 200.532 14.1922 208.378 18.472C216.286 22.7852 216.659 27.6781 208.096 30.347C216.751 29.0498 226.924 28.8133 227.994 33.6304C229.416 40.0271 230.673 44.4091 222.544 47.7303C228.777 46.2244 235.477 45.4427 236.911 48.7883C239.586 55.0298 244.044 60.3797 226.211 68.4045C224.725 69.5933 220.733 71.4402 219.984 73.3143C226.73 69.1913 239.051 58.4181 244.044 68.4045C250.286 80.8875 242.261 85.3457 230.669 89.8039C229.052 90.4258 227.505 91.1171 226 91.8464C227.125 98.5931 225.981 99.1766 221.753 102.287C214.977 107.272 211.053 115.662 206.595 114.77C202.137 113.878 135.264 109.42 129.022 108.528C127.605 108.326 86.531 122.411 78.5001 125C63.838 130.299 37.7502 139.003 27.0744 143.049L3 73.5L87.6735 44.0787L146.855 23.8219Z" fill="white"/>
<path d="M14 74.1874L52.0659 60.4476M196.787 106.287C211.053 106.287 219.078 98.2621 230.669 93.8039C242.261 89.3457 250.286 84.8875 244.044 72.4045C239.051 62.4181 226.73 73.1913 219.983 77.3143C220.733 75.4402 224.725 73.5933 226.211 72.4045C244.044 64.3797 239.586 59.0298 236.911 52.7883C234.771 47.7951 220.9 51.9952 214.361 54.0757C231.302 50.5092 229.778 45.6552 227.994 37.6304C226.568 31.2105 208.973 33.7666 200.353 35.8471C216.403 34.0638 218.186 27.8219 208.378 22.472C200.532 18.1922 164.093 24.2553 146.855 27.8219L87.6734 48.0787M226.355 96.8048C227.48 103.551 225.981 103.177 221.753 106.287C214.977 111.272 211.053 119.662 206.595 118.77C202.137 117.878 135.264 113.42 129.022 112.528C127.605 112.326 121.941 113.89 113.911 116.479M38.0744 143.736C48.7502 139.69 63.6409 134.141 78.303 128.841" stroke="#010C49" stroke-width="2" stroke-linecap="round" stroke-linejoin="round"/>
<circle cx="84.3001" cy="80.6878" r="32.2342" fill="#FF5800"/>
<path d="M51.4492 53.3051L56.1891 66.0698M83.1758 137.352L77.8399 121.168M60.3657 49.5779L63.6854 59.1625M89.6479 131.253L86.1744 121.168M68.3904 46.5793L71.1817 55.0907M96.923 128.436L94.0455 120.043M75.5236 43.8718L78.678 53.6799M106.731 126.653L102.666 115.171M83.3156 41.3179L87.6736 53.6799M113.911 123.417L109.413 109.174" stroke="#010C49" stroke-width="2" stroke-linecap="round"/>
<circle cx="82.6566" cy="87.5626" r="31.9908" stroke="#010C49" stroke-width="2"/>
<path d="M115.505 67.8383L111.49 70.8799C111.145 71.1409 111.007 71.5937 111.148 72.0023L114.428 81.5379C114.567 81.9416 114.947 82.2126 115.374 82.2126H121.287C121.999 82.2126 122.483 81.49 122.212 80.8319L117.033 68.2547C116.783 67.6482 116.027 67.4423 115.505 67.8383Z" stroke="#010C49" stroke-width="2"/>
<path d="M66.3091 73.1914L85.461 90.4329L93.2958 78.6361" stroke="white" stroke-width="3" stroke-linecap="round" stroke-linejoin="round"/>
<circle cx="87.1148" cy="67.0548" r="1.78329" fill="#010C49"/>
<circle cx="97.8145" cy="70.6212" r="1.78329" fill="#010C49"/>
<circle cx="103.164" cy="79.5377" r="1.78329" fill="#010C49"/>
<circle cx="104.948" cy="93.8038" r="1.78329" fill="#010C49"/>
<circle cx="99.5977" cy="102.72" r="1.78329" fill="#010C49"/>
<circle cx="90.6812" cy="109.854" r="1.78329" fill="#010C49"/>
<circle cx="85.3338" cy="90.9669" r="1.78329" fill="white"/>
<circle cx="71.0653" cy="67.0548" r="1.78329" fill="#010C49"/>
<circle cx="58.5821" cy="86.671" r="1.78329" fill="#010C49"/>
<circle cx="62.1488" cy="74.1876" r="1.78329" fill="#010C49"/>
<circle cx="60.3656" cy="97.3702" r="1.78329" fill="#010C49"/>
<circle cx="67.4986" cy="106.287" r="1.78329" fill="#010C49"/>
<circle cx="78.1983" cy="111.637" r="1.78329" fill="#010C49"/>
</svg>
