<svg width="161" height="200" viewBox="0 0 161 200" fill="none" xmlns="http://www.w3.org/2000/svg">
<path d="M6.68065 144.277C17.8287 147.401 49.6142 153.193 61.4052 158.858C75.1812 165.477 76.0115 172.139 103.774 175.308C114.511 177.331 120.546 199.03 120.546 199.03L158.14 159.868L112.346 88.849C110.035 84.2928 102.979 77.3349 98.2312 73.9902L26.3387 49.1479C23.9326 48.6816 19.0754 49.4377 18.8953 56.192C18.7151 62.9463 49.9275 71.5001 61.7542 81.47C54.8221 84.2198 29.3134 75.0861 16.4263 70.7873C12.3646 69.4324 7.69493 70.5494 6.23207 74.5664C5.05364 77.8024 5.11471 81.1217 7.38348 82.9553C11.1317 85.9846 54.1177 95.7511 50.1065 110.128C52.2479 112.382 24.3021 103.17 9.60436 99.1171C7.22724 98.4617 4.59216 99.2932 3.50992 101.505C-0.362037 109.417 6.83835 112.78 11.4107 114.676L52.8953 141.584L22.8462 134.751C4.84749 128.756 1.78763 133.412 2.26653 139.071C2.4812 141.608 4.2248 143.589 6.68065 144.277Z" fill="white"/>
<path fill-rule="evenodd" clip-rule="evenodd" d="M22.114 48.6945C20.8581 49.5386 19.737 51.1821 19.737 54.3559C19.737 54.8943 20.0549 55.566 20.8822 56.3873C21.6967 57.196 22.9064 58.0508 24.4513 58.9499C27.538 60.7465 31.7999 62.6289 36.4904 64.6224C37.4095 65.013 38.3446 65.4077 39.2892 65.8064C43.1462 67.4344 47.1635 69.1301 50.9099 70.8934C55.5681 73.0857 59.8672 75.4094 62.9632 77.8815L63.9752 78.6896L62.784 79.1991C61.7983 79.6207 60.5351 79.8155 59.1069 79.8586C57.6683 79.902 56.0071 79.7927 54.1935 79.5689C50.5665 79.1214 46.2642 78.2074 41.793 77.0837C34.5053 75.2523 26.7048 72.847 20.5589 70.9518C19.1639 70.5217 17.8541 70.1178 16.655 69.7529C12.7685 68.5703 8.69452 69.8163 7.52826 73.3054C6.46625 76.4825 6.73348 79.3425 8.63875 80.8003C8.79769 80.9219 9.1162 81.0964 9.6335 81.3202C10.1359 81.5375 10.7757 81.7806 11.5392 82.0502C13.0494 82.5835 14.9973 83.2048 17.2368 83.9191L17.3137 83.9436C21.8452 85.389 27.5204 87.2016 32.9665 89.3791C38.4007 91.5518 43.6718 94.1125 47.367 97.0767C50.9428 99.9451 53.2441 103.368 52.428 107.3C52.4472 107.347 52.4634 107.397 52.4753 107.451C52.511 107.611 52.5086 107.806 52.4213 108.001C52.3368 108.189 52.2025 108.311 52.0888 108.385C51.8866 108.516 51.6644 108.55 51.5354 108.564C51.3827 108.58 51.2158 108.58 51.0476 108.572C50.389 108.54 49.355 108.363 48.0753 108.092C45.4891 107.545 41.692 106.573 37.3829 105.424C34.3969 104.627 31.1624 103.744 27.9027 102.855C21.7305 101.17 15.4679 99.4613 10.6304 98.2649C8.50503 97.7392 6.32593 98.564 5.49528 100.383C4.62926 102.279 4.43975 103.823 4.64997 105.09C4.85992 106.356 5.4811 107.421 6.36767 108.342C8.17374 110.216 10.9902 111.401 13.3166 112.294L13.3829 112.32L55.6308 138.153L55.0728 139.574L24.8148 133.534L24.7783 133.523C20.2708 132.154 16.7401 131.431 13.9946 131.194C11.2423 130.957 9.33167 131.212 8.02809 131.747C6.75328 132.27 6.03411 133.069 5.64464 134.023C5.24286 135.007 5.16896 136.215 5.31913 137.561C5.56353 139.752 7.10754 141.459 9.28422 142.067C12.7462 143.035 18.1809 144.269 24.3872 145.677C27.9424 146.484 31.7508 147.348 35.5866 148.253C46.0653 150.724 56.7603 153.501 62.7962 156.206C66.3413 157.795 69.06 159.507 71.5666 161.204C72.1706 161.613 72.7596 162.019 73.3432 162.422C75.1924 163.697 76.9885 164.936 79.0416 166.112C84.3916 169.178 91.4823 171.811 105.317 173.019L105.345 173.022L105.373 173.026C108.306 173.498 110.887 175.302 113.084 177.628C115.285 179.959 117.16 182.879 118.678 185.711C120.198 188.547 121.375 191.324 122.171 193.389C122.569 194.423 122.873 195.28 123.078 195.881C123.18 196.181 123.257 196.417 123.31 196.579C123.336 196.66 123.356 196.722 123.369 196.765L123.384 196.813L123.388 196.826L123.389 196.83L123.39 196.831C123.39 196.831 123.39 196.831 123.306 196.857C123.216 196.885 123.031 196.942 122.647 197.059L121.905 197.286L121.904 197.283L121.901 197.273L121.887 197.229C121.875 197.19 121.856 197.131 121.831 197.054C121.782 196.9 121.707 196.672 121.607 196.38C121.408 195.796 121.111 194.958 120.721 193.946C119.94 191.919 118.79 189.205 117.309 186.442C115.825 183.674 114.025 180.885 111.953 178.691C109.884 176.499 107.602 174.964 105.153 174.561C91.1685 173.337 83.8537 170.657 78.2682 167.457C76.1535 166.245 74.2856 164.956 72.4249 163.673C71.8498 163.276 71.2754 162.88 70.6945 162.487C68.2235 160.813 65.5887 159.157 62.1599 157.62C56.2845 154.987 45.7423 152.241 35.2294 149.761C31.4396 148.868 27.6549 148.009 24.1084 147.204C17.8665 145.787 12.3621 144.538 8.86529 143.56C6.12935 142.795 4.09554 140.602 3.77547 137.733C3.61083 136.257 3.66766 134.757 4.2063 133.438C4.75724 132.089 5.78819 130.99 7.43736 130.313C9.05775 129.648 11.245 129.401 14.1285 129.65C17.0111 129.899 20.6426 130.649 25.1941 132.029L51.0991 137.2L12.6925 113.716C10.4038 112.835 7.30617 111.552 5.24807 109.416C4.19256 108.321 3.38922 106.981 3.11763 105.343C2.84629 103.707 3.11821 101.85 4.08199 99.7398C5.29712 97.0793 8.34198 96.1018 11.0041 96.7603C15.8584 97.9609 22.1565 99.6796 28.3418 101.367C31.596 102.255 34.8189 103.135 37.784 103.926C42.0953 105.076 45.8559 106.038 48.3973 106.576C49.5161 106.812 50.3602 106.958 50.9023 107.008C51.5475 103.934 49.8313 101.042 46.394 98.2849C42.8837 95.469 37.7877 92.9766 32.3889 90.818C27.0022 88.6643 21.3785 86.8675 16.8409 85.4202L16.7442 85.3893C14.5211 84.6803 12.5542 84.0529 11.0211 83.5115C10.2433 83.2368 9.56544 82.9802 9.01577 82.7424C8.48105 82.5111 8.01327 82.275 7.69375 82.0305C4.96531 79.9429 4.93343 76.1699 6.05489 72.8148C7.59911 68.1951 12.8017 66.9598 17.108 68.2702C18.3167 68.638 19.6335 69.044 21.0336 69.4757C27.1796 71.3708 34.9291 73.7603 42.1722 75.5805C46.6185 76.6979 50.8498 77.5944 54.3841 78.0305C56.1512 78.2486 57.7276 78.3494 59.0599 78.3092C59.6924 78.2901 60.2579 78.2394 60.7554 78.1586C57.9305 76.1386 54.2665 74.187 50.2474 72.2954C46.5325 70.5469 42.5526 68.867 38.6979 67.2399C37.7497 66.8397 36.8091 66.4426 35.8819 66.0486C31.204 64.0604 26.853 62.1423 23.6689 60.289C22.0784 59.3633 20.7382 58.4308 19.7868 57.4863C18.8481 56.5543 18.1838 55.5066 18.1838 54.3559C18.1838 50.773 19.4803 48.5957 21.2465 47.4088C22.9643 46.2542 24.993 46.1278 26.341 46.352L26.3953 46.3611L99.0821 69.3351L99.1736 69.396C101.641 71.0377 104.697 73.5672 107.44 76.248C110.163 78.9088 112.642 81.7795 113.919 84.1271L159.84 156.498L158.528 157.328L112.578 84.9115L112.565 84.8879C111.406 82.7467 109.057 79.9973 106.354 77.3556C103.695 74.7582 100.756 72.3243 98.4028 70.7464L26.0333 47.8727C24.9644 47.707 23.3971 47.8322 22.114 48.6945ZM51.0612 108.005C51.061 108.005 51.0573 108.001 51.0514 107.994C51.0584 108.001 51.0613 108.005 51.0612 108.005ZM51.3826 107.021C51.389 107.02 51.3928 107.019 51.3934 107.019C51.394 107.019 51.3906 107.02 51.3826 107.021Z" fill="#010C49"/>
<path d="M30.7715 5.84387C31.0276 4.15085 32.6104 2.98558 34.3068 3.24117L107.134 14.2137C108.83 14.4693 109.998 16.049 109.742 17.742L89.7784 149.716C89.5223 151.409 87.9395 152.574 86.2431 152.319L13.4162 141.346C11.7198 141.09 10.5522 139.511 10.8083 137.818L30.7715 5.84387Z" fill="#F6F6F6"/>
<path fill-rule="evenodd" clip-rule="evenodd" d="M79.3275 29.1096C78.03 30.3776 76.5141 31.1626 74.9369 31.7508L63.1164 30.0956C61.9247 29.0536 60.5789 27.7661 59.6266 26.351L79.3275 29.1096ZM58.6228 27.8322C58.6315 27.8335 58.6363 27.8392 58.6373 27.8492L58.6228 27.8322ZM58.6373 27.8492C61.0007 30.5906 64.8401 32.8556 66.8127 34.0193C67.593 34.4797 68.0812 34.7677 68.0704 34.8447L62.8964 43.0621L66.0457 43.5029C59.4788 51.9119 59.1784 75.0566 59.1841 75.0574C52.9401 63.7567 51.3703 51.0131 51.046 48.3804C51.0018 48.0222 50.9808 47.8512 50.9741 47.8964C51.1218 45.8335 58.7756 40.8776 61.1808 39.3202L61.1808 39.3202C61.5748 39.0651 61.828 38.9012 61.8842 38.8561C61.495 38.9892 59.68 39.7674 57.6839 40.6233L57.6839 40.6233C54.8438 41.8411 51.6372 43.216 51.6491 43.1136C52.3826 37.2621 56.2849 31.4516 57.918 29.0199C58.3682 28.3496 58.6459 27.9361 58.6373 27.8492ZM82.483 52.3115C82.9123 50.2886 76.9295 43.4267 75.0468 41.2675L75.0468 41.2674C74.7378 40.9131 74.5393 40.6854 74.4977 40.6265C74.8352 40.8615 76.3656 42.1087 78.0483 43.48L78.0484 43.4801L78.0484 43.4801C80.4409 45.4299 83.1411 47.6304 83.158 47.5288C84.0727 41.7028 81.9297 35.0464 81.0327 32.2605L81.0327 32.2604C80.7854 31.4924 80.6329 31.0185 80.6652 30.9373L80.6839 30.925C80.6751 30.9238 80.6689 30.9279 80.6652 30.9373C77.6345 32.9237 73.3171 34.0471 71.0988 34.6242C70.2213 34.8526 69.6723 34.9954 69.6614 35.0724L72.3606 44.3918L69.2113 43.951C73.1966 53.8369 67.0789 76.1674 67.0736 76.1667C76.2033 67.0179 81.2394 55.199 82.28 52.7571C82.4215 52.4249 82.4891 52.2662 82.483 52.3115Z" fill="#1F242B"/>
<path d="M37.7061 0.748062L104.913 10.0303C107.921 10.4457 109.994 13.181 109.576 16.1846L90.078 156.411C89.6604 159.415 86.9199 161.485 83.9119 161.07L16.7047 151.787C13.6967 151.372 11.6245 148.637 12.0421 145.633L31.528 5.4926C31.8597 2.47711 34.6981 0.332617 37.7061 0.748062ZM18.1602 135.02C17.8619 137.166 19.3421 139.119 21.4907 139.416L82.5099 147.844C84.6585 148.14 86.616 146.661 86.9143 144.516L104.085 21.0241C104.384 18.8787 102.903 16.9249 100.755 16.6282L39.7356 8.20057C37.5871 7.90382 35.6296 9.38278 35.3312 11.5282L18.1602 135.02Z" fill="white"/>
<path fill-rule="evenodd" clip-rule="evenodd" d="M33.069 5.68307L33.0714 5.66106C33.3047 3.53997 35.3249 1.98431 37.4926 2.2837L104.7 11.5659C106.858 11.864 108.338 13.8167 108.038 15.9722L88.5401 156.199C88.2404 158.354 86.284 159.832 84.1254 159.534L16.9183 150.252C14.7596 149.954 13.2802 148.001 13.58 145.846L33.069 5.68307ZM16.6224 134.808C16.2061 137.801 18.2793 140.538 21.2772 140.952L82.2964 149.379C85.2943 149.793 88.036 147.722 88.4522 144.728L105.623 21.2365C106.039 18.2429 103.966 15.5066 100.968 15.0925L39.9492 6.66493C36.9513 6.25088 34.2096 8.32227 33.7934 11.3158L16.6224 134.808ZM104.913 10.0303L37.7061 0.748062C34.6981 0.332617 31.8597 2.47711 31.528 5.4926L12.0421 145.633C11.6245 148.637 13.6967 151.372 16.7047 151.787L83.9119 161.07C86.9199 161.485 89.6604 159.415 90.078 156.411L109.576 16.1846C109.994 13.181 107.921 10.4457 104.913 10.0303ZM21.4907 139.416C19.3421 139.119 17.8619 137.166 18.1602 135.02L35.3312 11.5282C35.6296 9.38278 37.5871 7.90382 39.7356 8.20057L100.755 16.6282C102.903 16.9249 104.384 18.8787 104.085 21.0241L86.9143 144.516C86.616 146.661 84.6585 148.14 82.5099 147.844L21.4907 139.416Z" fill="#010C49"/>
<path fill-rule="evenodd" clip-rule="evenodd" d="M57.3215 149.426L45.6488 147.813C44.8867 147.708 44.1832 148.24 44.0774 149.001C43.9716 149.762 44.5036 150.464 45.2656 150.569L56.9384 152.181C57.7004 152.287 58.404 151.755 58.5098 150.994C58.6156 150.233 58.0836 149.531 57.3215 149.426ZM45.8624 146.277C44.2507 146.054 42.7628 147.179 42.539 148.788C42.3153 150.398 43.4404 151.883 45.0521 152.105L56.7248 153.718C58.3364 153.94 59.8244 152.816 60.0481 151.207C60.2719 149.597 59.1468 148.112 57.5351 147.889L45.8624 146.277Z" fill="#010C49"/>
<path d="M63.8318 8.65326L74.9226 10.186C75.2665 10.2335 75.5602 10.0115 75.608 9.66785C75.6557 9.32423 75.4336 9.03088 75.0897 8.98336L63.9989 7.45063C63.655 7.4031 63.3613 7.62516 63.3135 7.96878C63.2777 8.22648 63.4879 8.60574 63.8318 8.65326Z" fill="#010C49"/>
<path d="M96.1055 123.876C93.6542 141.166 112.191 153.01 121.584 156.759L117.987 108.702L98.7403 88.2827C96.8163 83.4774 86.7095 82.2786 81.8966 82.2799L65.4596 81.8221C64.496 81.7952 63.615 82.3638 63.2439 83.2521L62.6442 84.6877C61.841 88.6927 63.3629 97.1824 75.876 99.1016C81.2504 99.9259 84.9416 98.6823 88.5521 102.256C92.2094 105.877 94.3431 112.348 95.7585 116.838C96.4715 119.1 96.4384 121.528 96.1055 123.876Z" fill="white"/>
<path fill-rule="evenodd" clip-rule="evenodd" d="M65.4376 82.5966C64.7951 82.5787 64.2078 82.9577 63.9604 83.5499L63.3911 84.9129C63.042 86.7516 63.2224 89.6229 64.9195 92.2574C66.6218 94.9001 69.9146 97.4032 75.9943 98.3357C77.2966 98.5354 78.5023 98.6108 79.6536 98.6656C79.8449 98.6747 80.0356 98.6833 80.2255 98.6918C81.1657 98.734 82.0864 98.7754 82.9661 98.8781C85.1311 99.1309 87.1371 99.7639 89.0989 101.706C91.0276 103.615 92.5224 106.239 93.7059 108.907C94.8927 111.582 95.7911 114.359 96.499 116.605C97.2607 119.021 97.2152 121.579 96.8742 123.985C95.695 132.302 99.5492 139.357 104.957 144.852C110.367 150.35 117.252 154.195 121.872 156.04L121.295 157.479C116.523 155.574 109.442 151.622 103.849 145.938C98.2531 140.252 94.0647 132.741 95.3368 123.768C95.6616 121.477 95.6823 119.178 95.0179 117.071C94.3105 114.827 93.4343 112.123 92.2861 109.535C91.1345 106.939 89.7338 104.518 88.0053 102.807C86.3565 101.175 84.7117 100.642 82.7849 100.417C81.9655 100.322 81.1112 100.283 80.1719 100.241C79.978 100.232 79.7804 100.223 79.5788 100.214C78.4136 100.158 77.1425 100.08 75.7577 99.8675C69.3243 98.8807 65.5995 96.1793 63.6134 93.0961C61.6448 90.0401 61.4478 86.7058 61.883 84.5359L61.8981 84.4606L62.5274 82.9541C63.0222 81.7697 64.1968 81.0116 65.4817 81.0474L81.9078 81.5049C84.3775 81.5053 87.808 81.8687 91.1194 82.8082C94.4119 83.7423 97.6988 85.2777 99.7587 87.6999L119.222 108.863L118.078 109.912L98.5936 88.7254L98.5835 88.7135C96.8175 86.6301 93.8765 85.2019 90.6942 84.2989C87.5302 83.4012 84.2387 83.0541 81.8963 83.0547L81.8854 83.0547L65.4376 82.5966Z" fill="#010C49"/>
<path d="M79.2003 86.0292C79.2003 86.0292 78.8872 84.6188 78.2994 83.558C74.5035 83.4408 69.7072 83.3848 67.5145 83.3934C67.5145 83.3934 67.4005 86.4013 68.8506 88.1732C70.3007 89.9451 75.5368 89.1231 77.2235 88.3871C78.924 87.5738 79.2003 86.0292 79.2003 86.0292Z" fill="#FF5800"/>
<path fill-rule="evenodd" clip-rule="evenodd" d="M65.11 80.9459L65.5227 88.8106L66.0795 88.9494C67.0422 89.1894 68.6785 89.4504 70.5291 89.4791C72.376 89.5077 74.4921 89.3059 76.3829 88.5797C78.322 87.8349 79.3435 86.6945 79.7313 85.424C80.1058 84.1972 79.8431 82.9965 79.5281 82.1785L79.3477 81.7101L65.11 80.9459ZM78.2303 83.2018C78.3774 83.7548 78.4268 84.3801 78.2457 84.9733C78.0248 85.6972 77.4144 86.5235 75.8256 87.1337C74.1886 87.7625 72.2911 87.9567 70.554 87.9298C69.1523 87.9081 67.8913 87.7431 67.0127 87.5692L66.7512 82.5857L78.2303 83.2018Z" fill="#010C49"/>
</svg>
