<svg width="14" height="18" viewBox="0 0 14 18" fill="none" xmlns="http://www.w3.org/2000/svg">
<path d="M6.99989 1.94797C5.35164 1.94797 4.00861 3.18418 4.00861 4.70135V6.55567H1.89233V4.70135C1.89233 2.11655 4.19175 0 6.99989 0C9.80803 0 12.1075 2.11655 12.1075 4.70135V6.55567H9.99117V4.70135C9.99117 3.18418 8.64815 1.94797 6.99989 1.94797Z" fill="#FF5800"/>
<path fill-rule="evenodd" clip-rule="evenodd" d="M12.0058 6.93018H1.99419C0.895349 6.93018 0 7.75432 0 8.76576V15.9208C0 16.4453 0.366279 16.9323 0.915698 17.1008C2.88953 17.7002 4.94477 17.9999 7 17.9999C9.05523 17.9999 11.1105 17.7002 13.0843 17.1008C13.6337 16.9323 14 16.464 14 15.9208V8.76576C14 7.75432 13.1047 6.93018 12.0058 6.93018ZM7.97693 12.381V14.2166C7.97693 14.7036 7.52925 15.1156 7.00018 15.1156C6.47111 15.1156 6.02344 14.7036 6.02344 14.2166V12.381C5.49437 12.0813 5.14844 11.5381 5.14844 10.92C5.14844 9.98349 5.98274 9.21554 7.00018 9.21554C8.01762 9.21554 8.85193 9.98349 8.85193 10.92C8.85193 11.5381 8.506 12.0813 7.97693 12.381Z" fill="#FF5800"/>
</svg>
