<svg width="10" height="10" viewBox="0 0 10 10" fill="none" xmlns="http://www.w3.org/2000/svg">
<path d="M9.08405 6.48282C8.47937 6.48282 7.88565 6.38825 7.32302 6.20231C7.04733 6.10828 6.70841 6.19455 6.54015 6.36736L5.42963 7.20568C4.14174 6.51821 3.34843 5.72515 2.67034 4.44694L3.484 3.36536C3.6954 3.15424 3.77122 2.84586 3.68038 2.55651C3.49365 1.99092 3.39879 1.39748 3.39879 0.792541C3.39882 0.35553 3.04329 0 2.6063 0H0.792515C0.35553 0 0 0.35553 0 0.792515C0 5.80152 4.07505 9.87654 9.08405 9.87654C9.52104 9.87654 9.87657 9.52101 9.87657 9.08403V7.27531C9.87654 6.83835 9.52101 6.48282 9.08405 6.48282Z" fill="#FF5800"/>
</svg>
