<svg width="219" height="169" viewBox="0 0 219 169" fill="none" xmlns="http://www.w3.org/2000/svg">
<path d="M50.9215 117L68 90.2364L29.7522 66L10 96.9535L41.6358 117H50.9215Z" fill="#F0F0F0"/>
<path fill-rule="evenodd" clip-rule="evenodd" d="M32 125H74V117H32V125ZM73.4545 124.484H32.5455V117.516H73.4545V124.484Z" fill="#3F3D56"/>
<circle cx="69.5" cy="120.5" r="2.5" fill="#FF5800"/>
<circle cx="61.5" cy="120.5" r="2.5" fill="#FF5800"/>
<circle cx="53.5" cy="120.5" r="2.5" fill="#FF5800"/>
<circle cx="46.5" cy="120.5" r="2.5" fill="#FF5800"/>
<circle cx="38.5" cy="120.5" r="2.5" fill="#FF5800"/>
<path d="M124.581 30.9839V10.1452H135V0H84V51H127.597V46.0136C127.597 44.1364 128.343 42.336 129.67 41.0086C130.997 39.6812 132.798 38.9355 134.675 38.9355H135V30.9839H124.581Z" fill="#F0F0F0"/>
<rect x="147" y="131" width="34" height="7" fill="#FF5800"/>
<rect x="138" y="96" width="50" height="7" fill="#F0F0F0"/>
<rect y="168" width="212" height="1" fill="#3F3D56"/>
<path fill-rule="evenodd" clip-rule="evenodd" d="M134.348 169H196.652C200.708 168.995 203.995 165.719 204 161.677V46.3233C203.995 42.2806 200.708 39.0046 196.652 39H134.348C130.292 39.0046 127.005 42.2806 127 46.3233V161.677C127.005 165.719 130.292 168.995 134.348 169ZM127.548 46.3233C127.552 42.5822 130.594 39.5505 134.348 39.5462H196.652C200.406 39.5505 203.448 42.5822 203.452 46.3233V161.677C203.448 165.418 200.406 168.45 196.652 168.454H134.348C130.594 168.45 127.552 165.418 127.548 161.677V46.3233Z" fill="#3F3D56"/>
<path fill-rule="evenodd" clip-rule="evenodd" d="M157 42.5C157 43.3284 157.672 44 158.5 44C159.328 43.9991 159.999 43.3281 160 42.5C160 41.6716 159.328 41 158.5 41C157.672 41 157 41.6716 157 42.5ZM157.5 42.5C157.5 41.9477 157.948 41.5 158.5 41.5C159.052 41.5006 159.499 41.948 159.5 42.5C159.5 43.0523 159.052 43.5 158.5 43.5C157.948 43.5 157.5 43.0523 157.5 42.5Z" fill="#3F3D56"/>
<rect x="162" y="42" width="12" height="1" fill="#3F3D56"/>
<path d="M199 46V68C186.85 67.9995 177.001 58.15 177 46H199Z" fill="#FF5800"/>
<path fill-rule="evenodd" clip-rule="evenodd" d="M132 161H199V46H132V161ZM198.457 160.454H132.543V46.5463H198.457V160.454Z" fill="#3F3D56"/>
<circle opacity="0.1" cx="182.5" cy="59.5" r="7.5" fill="black"/>
<circle cx="181.5" cy="60.5" r="7.5" fill="#FF5800"/>
<rect x="135" y="51" width="10" height="4" fill="#3F3D56"/>
<rect x="141" y="87" width="10" height="4" fill="#3F3D56"/>
<path fill-rule="evenodd" clip-rule="evenodd" d="M141 101H191V94H141V101ZM190.457 100.462H141.543V94.5385H190.457V100.462Z" fill="#3F3D56"/>
<rect x="138" y="117" width="50" height="7" fill="#F0F0F0"/>
<rect x="141" y="108" width="10" height="4" fill="#3F3D56"/>
<path fill-rule="evenodd" clip-rule="evenodd" d="M141 122H191V115H141V122ZM190.457 121.462H141.543V115.538H190.457V121.462Z" fill="#3F3D56"/>
<path fill-rule="evenodd" clip-rule="evenodd" d="M149 137H183V129H149V137ZM182.46 136.429H149.54V129.571H182.46V136.429Z" fill="#3F3D56"/>
<path d="M189 98.5C189 99.5544 188.338 100.495 187.346 100.852C186.354 101.209 185.245 100.905 184.573 100.092L184.571 100.09C183.917 99.2963 183.815 98.183 184.315 97.2842C184.815 96.3855 185.815 95.8849 186.834 96.0226C187.853 96.1603 188.684 96.9083 188.928 97.9075C188.927 97.9082 188.928 97.9088 188.928 97.9093C188.929 97.9098 188.929 97.91 188.93 97.91C188.976 98.1033 189 98.3013 189 98.5Z" fill="#FF5800"/>
<path opacity="0.1" d="M189 98.5C189 99.5544 188.265 100.495 187.162 100.852C186.06 101.209 184.827 100.905 184.081 100.092L184.078 100.09C184.026 99.8967 184 99.6987 184 99.5C184 98.4456 184.735 97.5046 185.838 97.1477C186.94 96.7908 188.173 97.0948 188.919 97.9076C188.919 97.9082 188.92 97.9089 188.92 97.9094C188.921 97.9098 188.921 97.9101 188.922 97.9101C188.974 98.1033 189 98.3013 189 98.5Z" fill="black"/>
<circle cx="187.5" cy="100.5" r="2.5" fill="#FF5800"/>
<path d="M189 119.5C189 120.554 188.338 121.495 187.346 121.852C186.354 122.209 185.245 121.905 184.573 121.092L184.571 121.09C183.917 120.296 183.815 119.183 184.315 118.284C184.815 117.386 185.815 116.885 186.834 117.023C187.853 117.16 188.684 117.908 188.928 118.907C188.927 118.908 188.928 118.909 188.928 118.909C188.929 118.91 188.929 118.91 188.93 118.91C188.976 119.103 189 119.301 189 119.5Z" fill="#FF5800"/>
<path opacity="0.1" d="M189 119.5C189 120.554 188.265 121.495 187.162 121.852C186.06 122.209 184.827 121.905 184.081 121.092L184.078 121.09C184.026 120.897 184 120.699 184 120.5C184 119.446 184.735 118.505 185.838 118.148C186.94 117.791 188.173 118.095 188.919 118.908C188.919 118.908 188.92 118.909 188.92 118.909C188.921 118.91 188.921 118.91 188.922 118.91C188.974 119.103 189 119.301 189 119.5Z" fill="black"/>
<circle cx="187.5" cy="121.5" r="2.5" fill="#FF5800"/>
<rect x="128" y="13" width="14" height="14" fill="#F0F0F0"/>
<path fill-rule="evenodd" clip-rule="evenodd" d="M179 20.5C179 22.433 180.567 24 182.5 24C184.432 23.9978 185.998 22.4321 186 20.5C186 18.567 184.433 17 182.5 17C180.567 17 179 18.567 179 20.5ZM179.583 20.5C179.583 18.8892 180.889 17.5833 182.5 17.5833C184.11 17.5852 185.415 18.8899 185.417 20.5C185.417 22.1108 184.111 23.4167 182.5 23.4167C180.889 23.4167 179.583 22.1108 179.583 20.5Z" fill="#3F3D56"/>
<path fill-rule="evenodd" clip-rule="evenodd" d="M104 69H111V62H104V69ZM110.462 68.4615H104.538V62.5385H110.462V68.4615Z" fill="#3F3D56"/>
<path fill-rule="evenodd" clip-rule="evenodd" d="M212 122H219V115H212V122ZM218.462 121.462H212.538V115.538H218.462V121.462Z" fill="#3F3D56"/>
<path d="M79 74.5617L80.2429 75.212L84.4723 77.4263L91.3002 81L95.2793 73.8283C96.0362 72.4674 96.2047 70.8699 95.7478 69.3881C95.2908 67.9063 94.2459 66.6619 92.8435 65.9293C89.7988 64.3322 86.0408 64.8275 83.5443 67.155L83.5422 67.157C82.9435 67.7156 82.4383 68.3615 82.0448 69.0715L79 74.5617Z" fill="#2F2E41"/>
<path d="M97 148.8L96.1725 157.6L93.0689 158L91 148L97 148.8Z" fill="#FFB8B8"/>
<path d="M92.98 157.083C92.98 157.083 96.9698 154.96 97.8097 156.659C97.8097 156.659 97.1798 161.755 99.6996 162.392C102.22 163.029 103.269 167.489 99.6996 167.913C96.1298 168.338 93.8199 167.064 92.56 167.064C91.3 167.064 92.56 162.605 92.56 162.605L92.98 157.083Z" fill="#2F2E41"/>
<path d="M73 148.8L73.8277 157.6L76.9311 158L79 148L73 148.8Z" fill="#FFB8B8"/>
<path d="M77.0201 157.083C77.0201 157.083 73.0302 154.96 72.1903 156.659C72.1903 156.659 72.8203 161.755 70.3004 162.392C67.7805 163.029 66.7305 167.489 70.3004 167.913C73.8702 168.338 76.1801 167.064 77.44 167.064C78.7 167.064 77.44 162.605 77.44 162.605L77.0201 157.083Z" fill="#2F2E41"/>
<circle cx="89.5" cy="70.5" r="5.5" fill="#FFB8B8"/>
<path d="M72 81.2L76.2835 87.8L81.3829 87.4L89.7458 88C89.7458 88 90.5352 86.452 91.1798 84.946C91.5327 84.1939 91.8041 83.4076 91.9896 82.6C92.1935 81.2 89.3379 79.8 89.3379 79.8C89.3379 79.8 89.2257 79.78 89.0381 79.736C88.7892 79.678 88.4057 79.582 87.9855 79.442C87.037 79.126 85.8968 78.59 85.6663 77.8C85.2584 76.4 88.318 74.4 88.318 74.4L84.6465 71C84.6465 71 81.3849 75.442 77.4237 76.454C77.194 76.5135 76.9611 76.5602 76.7261 76.594C76.7139 76.596 76.7037 76.598 76.6914 76.6C72.4079 77.2 72 81.2 72 81.2Z" fill="#FFB8B8"/>
<path d="M75.147 80L72.8821 81.8242C72.8821 81.8242 71.0291 90.5398 71.6467 92.972C72.2644 95.4043 71.4409 97.6339 71.4409 98.0392C71.4409 98.4446 69.5878 113.646 69.5878 113.646C69.5878 113.646 65.8817 121.754 69.7937 120.943C73.7057 120.132 72.2644 112.025 72.2644 112.025L77 97.8366V85.878L75.147 80Z" fill="#FFB8B8"/>
<path d="M90.8183 81L92.4548 82.212L93.273 99.18L99.41 113.724C99.41 113.724 103.91 120.794 101.046 120.996C98.1826 121.198 96.3415 113.724 96.3415 113.724L90.8183 99.786L90 86.252L90.8183 81Z" fill="#FFB8B8"/>
<path d="M80.1321 82C80.1321 82 84.2641 84.8478 90.8753 83.8307C90.8753 83.8307 92.7346 87.4922 91.7017 89.5263C90.6687 91.5605 92.9412 96.4424 93.3544 97.0527C93.7676 97.6629 98.5194 110.275 100.172 123.903C101.825 137.532 106.37 146.889 102.445 148.11C98.5194 149.33 90.4621 150.754 89.6357 149.534C88.8093 148.313 87.5697 118.004 87.5697 118.004L85.2971 129.599C85.2971 129.599 88.3961 149.33 86.1235 149.737C83.8509 150.144 69.5956 148.923 70.0088 146.482C70.422 144.041 74.554 131.226 74.554 131.226C74.554 131.226 74.3474 105.596 78.4794 100.714C78.4794 100.714 80.1321 98.0698 77.8596 94.6117C75.587 91.1537 75.7936 85.6615 75.7936 85.6615C75.7936 85.6615 77.4464 85.6615 80.1321 82Z" fill="#2F2E41"/>
<path d="M77 76.1484L80.232 84L81 83.576L77.6567 76L77 76.1484Z" fill="#2F2E41"/>
<path d="M89 79L91.4195 85L92 84.9417L91.8027 83.9205L89.9885 79.3174C89.7548 79.2548 89.3946 79.1511 89 79Z" fill="#2F2E41"/>
<path d="M80.1593 75.572C80.5779 76.8988 81.7628 77.8491 83.1664 77.9837C84.5699 78.1183 85.9186 77.411 86.5891 76.1887C83.8958 72.7192 86.2058 70.5398 90.581 68.8911C91.255 67.6585 91.1062 66.1469 90.2042 65.065C87.7617 64.7572 85.3089 65.5528 83.5296 67.2298L83.5275 67.2319L80.4191 72.9122C79.9718 73.728 79.8781 74.6872 80.1593 75.572Z" fill="#2F2E41"/>
<ellipse cx="86.5" cy="71" rx="0.5" ry="1" fill="#FFB8B8"/>
<path d="M88 69.1676L93.9156 72L95 69.4712C94.8132 68.5469 94.422 67.6825 93.8586 66.9486C93.8586 66.9486 92.8334 65.8902 92 65.5C91.1976 65.1243 89.7869 65 89.7869 65L88 69.1676Z" fill="#2F2E41"/>
<circle cx="103.5" cy="121.5" r="2.5" fill="#FF5800"/>
<circle cx="16" cy="139" r="2" fill="#FF5800"/>
<rect x="24" y="148" width="1" height="20" fill="#3F3D56"/>
<circle cx="24" cy="148" r="3" fill="#3F3D56"/>
<path d="M24 161C24 161 23.5814 152.043 15 153.084L24 161Z" fill="#3F3D56"/>
</svg>
