<svg width="230" height="160" viewBox="0 0 230 160" fill="none" xmlns="http://www.w3.org/2000/svg">
<path fill-rule="evenodd" clip-rule="evenodd" d="M46.2712 17.9503C49.2153 10.7281 56.2885 6 64.1486 6H164.879C172.296 6 179.055 10.2159 182.263 16.8428L198.798 51H32.7983L46.2712 17.9503Z" fill="#FF5800"/>
<path opacity="0.5" d="M201.798 131L197.048 115.808C195.782 111.76 191.995 109 187.707 109H159.798C162.485 110.106 164.364 112.55 164.722 115.404L165.419 120.96C166.138 126.694 171.069 131 176.917 131H201.798Z" fill="#FF5800" stroke="#010C49"/>
<path d="M145.257 82H83.4651C82.842 82 82.2218 82.0874 81.6224 82.2596L68.3762 86.066C66.7931 86.521 65.7273 88.0169 65.802 89.6792L66.1437 97.2795C66.1854 98.2067 66.3739 99.1212 66.702 99.988C69.763 108.075 77.1193 113.687 85.6504 114.443L91.9271 115H135.918L143.307 114.377C151.787 113.663 159.092 108.052 162.047 99.9843C162.364 99.1201 162.54 98.2096 162.567 97.2885L162.797 89.629C162.846 87.9897 161.789 86.5255 160.23 86.0727L147.118 82.2649C146.513 82.0892 145.887 82 145.257 82Z" fill="#010C49"/>
<path fill-rule="evenodd" clip-rule="evenodd" d="M81.0209 81.2716C81.6465 81.0914 82.2937 81 82.9441 81H145.781C146.438 81 147.091 81.0933 147.723 81.2771L161.056 85.1581C162.721 85.6427 163.849 87.2096 163.797 88.9639L163.563 96.7707C163.534 97.7293 163.352 98.6769 163.024 99.5763C159.994 107.866 152.505 113.631 143.812 114.365L136.291 115H91.5412L85.1505 114.432C76.4065 113.655 68.8666 107.889 65.7292 99.582C65.3886 98.6802 65.193 97.7289 65.1497 96.7644L64.8023 89.018C64.7225 87.239 65.8605 85.638 67.5508 85.1512L81.0209 81.2716ZM82.9441 81.3656C82.327 81.3656 81.713 81.4523 81.1195 81.6232L67.6494 85.5028C66.1201 85.9433 65.0905 87.3918 65.1627 89.0014L65.5101 96.7478C65.5516 97.6733 65.7394 98.586 66.0661 99.4513C69.1542 107.628 76.5755 113.303 85.182 114.068L91.557 114.634H136.276L143.782 114.001C152.335 113.278 159.704 107.606 162.685 99.4493C163 98.5871 163.175 97.6787 163.203 96.7596L163.436 88.9529C163.483 87.3656 162.463 85.9479 160.956 85.5095L147.623 81.6284C147.024 81.4541 146.404 81.3656 145.781 81.3656H82.9441Z" fill="#142DAC" stroke="#010C49"/>
<path fill-rule="evenodd" clip-rule="evenodd" d="M62.7983 119.5C62.7983 119.224 63.0428 119 63.3443 119H165.252C165.554 119 165.798 119.224 165.798 119.5C165.798 119.776 165.554 120 165.252 120H63.3443C63.0428 120 62.7983 119.776 62.7983 119.5Z" fill="#010C49"/>
<path fill-rule="evenodd" clip-rule="evenodd" d="M210.299 71.2204C210.478 70.9781 210.817 70.9279 211.057 71.1082C213.806 73.1749 215.302 76.3849 216.07 79.4916C216.839 82.603 216.895 85.6814 216.709 87.5826C216.707 87.5959 216.706 87.6092 216.703 87.6223C216.702 87.6278 216.701 87.6332 216.7 87.6386C215.402 94.0231 213.428 104.008 211.723 113.214C210.016 122.437 208.589 130.829 208.375 134.058C208.146 137.495 206.537 139.997 204.635 141.716C202.742 143.425 200.547 144.372 199.08 144.723C199.039 144.733 198.997 144.738 198.955 144.738H190.801C190.502 144.738 190.26 144.493 190.26 144.191V139.469C190.26 138.568 189.839 137.838 189.267 137.272C188.724 136.734 188.074 136.376 187.625 136.202H169.6L169.59 136.202C168.003 136.172 165.467 136.208 163.026 136.414C161.806 136.517 160.617 136.661 159.588 136.859C158.548 137.058 157.711 137.304 157.167 137.593C155.892 138.269 153.633 139.114 151.362 139.888C149.079 140.666 146.743 141.385 145.287 141.811C145.243 141.824 145.198 141.831 145.152 141.832C134.306 142.135 117.936 142.426 104.076 142.314C97.1469 142.258 90.8366 142.101 86.1548 141.794C83.8159 141.64 81.8695 141.449 80.451 141.21C79.7436 141.091 79.1492 140.958 78.6965 140.805C78.4704 140.729 78.2643 140.643 78.0917 140.543C77.9265 140.447 77.7472 140.312 77.6295 140.119C77.3122 139.599 76.6853 139.118 75.7873 138.694C74.9001 138.276 73.8083 137.943 72.6421 137.683C70.3127 137.165 67.7613 136.959 66.1259 136.929H42.574C40.7244 136.929 39.6852 137.469 39.1149 138.058C38.5346 138.658 38.3802 139.366 38.4032 139.804C38.4037 139.813 38.404 139.823 38.404 139.833V144.373C38.404 144.662 38.1815 144.901 37.8961 144.919C36.9078 144.981 33.8698 145.065 29.5092 144.919C27.119 144.84 25.1179 143.365 23.6185 141.663C22.1119 139.952 21.0396 137.933 20.5074 136.584C20.493 136.548 20.4825 136.51 20.4762 136.471C18.6026 124.962 14.3532 99.7253 12.3282 90.7374C10.2462 81.4966 14.7983 73.8588 17.3583 71.168C17.5654 70.9502 17.9082 70.9433 18.1237 71.1526C18.3393 71.3618 18.3462 71.7079 18.139 71.9257C15.746 74.4411 11.4069 81.7196 13.3839 90.4947C15.4145 99.5072 19.6586 124.711 21.5349 136.234C22.0371 137.488 23.0397 139.361 24.4274 140.936C25.8424 142.542 27.5862 143.761 29.545 143.826C33.2826 143.951 36.0288 143.906 37.3212 143.853V139.846C37.2881 139.134 37.5346 138.126 38.3408 137.294C39.1628 136.445 40.5095 135.835 42.574 135.835H66.1308L66.1406 135.835C67.8276 135.866 70.456 136.077 72.8749 136.615C74.0839 136.884 75.2595 137.239 76.2452 137.703C77.2152 138.16 78.063 138.753 78.5443 139.534C78.5503 139.54 78.5742 139.561 78.6314 139.595C78.7193 139.646 78.8521 139.705 79.0394 139.768C79.4137 139.894 79.9443 140.016 80.6287 140.131C81.9936 140.361 83.8975 140.55 86.2249 140.702C90.8756 141.008 97.1614 141.164 104.084 141.22C117.898 141.332 134.214 141.043 145.053 140.741C146.5 140.317 148.785 139.612 151.016 138.851C153.294 138.075 155.475 137.255 156.664 136.624C157.352 136.259 158.317 135.989 159.386 135.784C160.465 135.577 161.694 135.429 162.936 135.324C165.418 135.115 167.989 135.078 169.605 135.109H187.721C187.781 135.109 187.842 135.119 187.899 135.14C188.477 135.344 189.318 135.791 190.025 136.491C190.737 137.196 191.342 138.191 191.342 139.469V143.645H198.891C200.204 143.318 202.196 142.451 203.913 140.901C205.646 139.335 207.088 137.085 207.294 133.984C207.514 130.675 208.957 122.207 210.659 113.013C212.362 103.813 214.335 93.8369 215.634 87.4468C215.807 85.6525 215.751 82.7166 215.02 79.7564C214.283 76.7761 212.88 73.8416 210.411 71.9855C210.171 71.8052 210.121 71.4626 210.299 71.2204Z" fill="#010C49"/>
<path d="M10.7983 93.7812C10.7983 92.4848 12.0025 90.9603 12.6046 90.3601L20.4819 134.511C21.4632 140.01 26.2599 144.017 31.8635 144.017H37.8926V139.335C37.8926 137.346 39.51 135.734 41.5052 135.734H67.4034C68.9124 135.734 70.4104 135.989 71.8341 136.487L74.1168 137.287C75.6134 137.811 77.058 138.472 78.4321 139.263L79.1357 139.667C80.3983 140.393 81.8302 140.776 83.2878 140.776H144.997C145.719 140.776 146.434 140.641 147.106 140.378L156.833 136.579C158.565 135.902 160.412 135.565 162.272 135.586L187.49 135.877C189.271 135.898 190.704 137.343 190.704 139.118V144.017L198.234 143.834C202.483 143.73 206.085 140.687 206.884 136.525L215.811 90L216.679 91.1798C217.406 92.168 217.798 93.3616 217.798 94.5871V151.981C217.798 152.426 217.686 152.864 217.473 153.254C217.005 154.108 216.107 154.64 215.131 154.64H192.287C191.311 154.64 190.413 154.108 189.946 153.254C189.732 152.864 189.62 152.426 189.62 151.981V144.917L176.467 145.073C175.16 145.089 173.896 145.546 172.882 146.37L169.183 149.378C168.149 150.219 166.854 150.677 165.519 150.675L62.2776 150.499H58.9185C58.1874 150.499 57.496 150.167 57.0394 149.598L54.6912 146.447C54.3639 145.632 53.5715 145.097 52.6902 145.097H39.157V152.479C39.157 153.871 38.0276 155 36.631 155H12.6046C11.6071 155 10.7985 154.195 10.7985 153.201C10.7985 137.72 10.7984 110.613 10.7984 99.1315L10.7983 93.7812Z" fill="#010C49"/>
<path opacity="0.5" d="M26.7983 131L31.549 115.808C32.8145 111.76 36.6017 109 40.8892 109H68.7983C66.1121 110.106 64.2326 112.55 63.8748 115.404L63.178 120.96C62.459 126.694 57.5277 131 51.6797 131H26.7983Z" fill="#FF5800" stroke="#010C49"/>
<path d="M27.7983 130L29.3819 124.142C30.2728 120.847 33.6113 118.671 37.2094 119.041H62.7983V119.057C62.7983 119.638 62.7313 120.218 62.5984 120.787L62.3379 121.9C61.2311 126.63 56.7695 130 51.6135 130H27.7983Z" fill="#FF5800"/>
<path d="M200.798 130L199.215 123.61C198.324 120.015 194.985 117.641 191.387 118.045H165.798V118.062C165.798 118.696 165.865 119.329 165.998 119.949L166.259 121.163C167.366 126.324 171.827 130 176.983 130H200.798Z" fill="#FF5800"/>
<path d="M88.6974 135.582L78.3502 133.292C75.1063 132.574 72.7983 129.708 72.7983 126.398C72.7983 122.312 76.1237 119 80.2258 119H148.453C152.51 119 155.798 122.276 155.798 126.316C155.798 129.656 153.428 132.531 150.139 133.18L137.552 135.665C136.424 135.888 135.278 136 134.129 136H92.5167C91.2321 136 89.9514 135.86 88.6974 135.582Z" fill="#010C49"/>
<path fill-rule="evenodd" clip-rule="evenodd" d="M151.344 124.027C151.626 123.938 151.933 124.074 152.031 124.33L152.609 125.849C153.271 127.588 152.136 129.467 150.166 129.891L139.248 132.245C136.921 132.747 134.539 133 132.148 133H95.2107C92.4011 133 89.6047 132.65 86.8995 131.96L79.2958 130.021C77.3122 129.515 76.2674 127.541 77.0701 125.816L77.7757 124.3C77.8918 124.05 78.2086 123.933 78.4833 124.039C78.7579 124.145 78.8863 124.433 78.7701 124.682L78.0645 126.199C77.5153 127.379 78.2302 128.73 79.5874 129.076L87.1911 131.015C89.8014 131.681 92.4997 132.018 95.2107 132.018H132.148C134.455 132.018 136.754 131.774 138.999 131.29L149.917 128.936C151.265 128.645 152.041 127.36 151.588 126.17L151.01 124.652C150.913 124.395 151.062 124.116 151.344 124.027Z" fill="white"/>
<path fill-rule="evenodd" clip-rule="evenodd" d="M66.7983 87.5C66.7983 87.2239 67.0412 87 67.3407 87H162.256C162.556 87 162.798 87.2239 162.798 87.5C162.798 87.7761 162.556 88 162.256 88H67.3407C67.0412 88 66.7983 87.7761 66.7983 87.5Z" fill="white"/>
<path fill-rule="evenodd" clip-rule="evenodd" d="M66.7983 93C66.7983 92.4477 67.0412 92 67.3407 92H162.256C162.556 92 162.798 92.4477 162.798 93C162.798 93.5523 162.556 94 162.256 94H67.3407C67.0412 94 66.7983 93.5523 66.7983 93Z" fill="white"/>
<path fill-rule="evenodd" clip-rule="evenodd" d="M66.7983 98C66.7983 97.4477 67.0412 97 67.3407 97H162.256C162.556 97 162.798 97.4477 162.798 98C162.798 98.5523 162.556 99 162.256 99H67.3407C67.0412 99 66.7983 98.5523 66.7983 98Z" fill="white"/>
<path fill-rule="evenodd" clip-rule="evenodd" d="M69.7983 103.5C69.7983 103.224 70.0396 103 70.3371 103H157.26C157.557 103 157.798 103.224 157.798 103.5C157.798 103.776 157.557 104 157.26 104H70.3371C70.0396 104 69.7983 103.776 69.7983 103.5Z" fill="white"/>
<path fill-rule="evenodd" clip-rule="evenodd" d="M74.7983 108.5C74.7983 108.224 75.0406 108 75.3394 108H153.257C153.556 108 153.798 108.224 153.798 108.5C153.798 108.776 153.556 109 153.257 109H75.3394C75.0406 109 74.7983 108.776 74.7983 108.5Z" fill="white"/>
<path fill-rule="evenodd" clip-rule="evenodd" d="M58.6783 115C58.6783 116.105 57.6755 117 56.4383 117C55.2012 117 54.1983 116.105 54.1983 115C54.1983 113.895 55.2012 113 56.4383 113C57.6755 113 58.6783 113.895 58.6783 115ZM59.7983 115C59.7983 116.657 58.294 118 56.4383 118C54.5827 118 53.0783 116.657 53.0783 115H31.7983V114H53.2695C53.7308 112.835 54.9754 112 56.4383 112C58.294 112 59.7983 113.343 59.7983 115Z" fill="#010C49"/>
<path fill-rule="evenodd" clip-rule="evenodd" d="M169.918 115C169.918 116.105 170.921 117 172.158 117C173.395 117 174.398 116.105 174.398 115C174.398 113.895 173.395 113 172.158 113C170.921 113 169.918 113.895 169.918 115ZM168.798 115C168.798 116.657 170.303 118 172.158 118C174.014 118 175.518 116.657 175.518 115H196.798V114H175.327C174.866 112.835 173.621 112 172.158 112C170.303 112 168.798 113.343 168.798 115Z" fill="#010C49"/>
<path fill-rule="evenodd" clip-rule="evenodd" d="M18.5182 81.0095L17.7983 81L17.9632 81.6226V88.0284C17.9632 96.4033 24.4707 103.364 32.893 103.998L32.9345 103.457V104H65.2553C65.5552 104 65.7983 103.757 65.7983 103.457C65.7983 103.157 65.5552 102.914 65.2553 102.914H32.9554C25.1142 102.313 19.0586 95.8285 19.0586 88.0284V85.7604L19.3967 87.0374C20.9327 92.8392 25.6274 97.2923 31.541 98.557L31.6565 98.0261V98.5692H57.2172C60.3431 98.5692 62.8771 96.0567 62.8771 92.9573V88.8925C62.8771 87.2949 61.9667 85.8344 60.5255 85.1199C57.7193 83.7287 54.7156 82.7697 51.6179 82.2761L47.3819 81.6011C46.4251 81.4486 45.4584 81.3657 44.4894 81.3529L18.5182 81.0095ZM57.2172 97.483H31.7154C26.2319 96.2884 21.8826 92.149 20.4563 86.7617L19.2235 82.1051L44.4748 82.4389C45.3904 82.451 46.304 82.5294 47.2081 82.6735L51.4441 83.3485C54.4318 83.8246 57.329 84.7495 60.0356 86.0914C61.1057 86.6219 61.7816 87.7063 61.7816 88.8925V92.9573C61.7816 95.4568 59.7381 97.483 57.2172 97.483ZM38.0466 95.4917C41.3742 95.4917 44.0717 92.8171 44.0717 89.5178C44.0717 86.2185 41.3742 83.5439 38.0466 83.5439C34.7191 83.5439 32.0216 86.2185 32.0216 89.5178C32.0216 92.8171 34.7191 95.4917 38.0466 95.4917ZM38.0466 96.5779C41.9792 96.5779 45.1671 93.417 45.1671 89.5178C45.1671 85.6186 41.9792 82.4577 38.0466 82.4577C34.1141 82.4577 30.9261 85.6186 30.9261 89.5178C30.9261 93.417 34.1141 96.5779 38.0466 96.5779ZM57.5824 90.966C57.5824 93.6654 55.3753 95.8537 52.6528 95.8537C49.9303 95.8537 47.7232 93.6654 47.7232 90.966C47.7232 88.2666 49.9303 86.0782 52.6528 86.0782C55.3753 86.0782 57.5824 88.2666 57.5824 90.966ZM58.6778 90.966C58.6778 94.2653 55.9803 96.9399 52.6528 96.9399C49.3253 96.9399 46.6278 94.2653 46.6278 90.966C46.6278 87.6667 49.3253 84.9921 52.6528 84.9921C55.9803 84.9921 58.6778 87.6667 58.6778 90.966Z" fill="#010C49"/>
<path fill-rule="evenodd" clip-rule="evenodd" d="M209.093 81.0095L209.798 81L209.637 81.6226V88.0284C209.637 96.4033 203.265 103.364 195.018 103.998L194.978 103.457V104H163.341C163.041 104 162.798 103.757 162.798 103.457C162.798 103.157 163.041 102.914 163.341 102.914H194.957C202.635 102.313 208.564 95.8285 208.564 88.0284V85.7604L208.233 87.0374C206.729 92.8392 202.132 97.2923 196.342 98.557L196.229 98.0261V98.5692H171.201C168.14 98.5692 165.659 96.0567 165.659 92.9573V88.8925C165.659 87.2949 166.55 85.8344 167.961 85.1199C170.709 83.7287 173.65 82.7697 176.683 82.2761L180.831 81.6011C181.768 81.4486 182.715 81.3657 183.663 81.3529L209.093 81.0095ZM171.201 97.483H196.171C201.54 96.2884 205.799 92.149 207.196 86.7617L208.403 82.1051L183.678 82.4389C182.781 82.451 181.887 82.5294 181.001 82.6735L176.854 83.3485C173.928 83.8246 171.091 84.7495 168.441 86.0914C167.393 86.6219 166.731 87.7063 166.731 88.8925V92.9573C166.731 95.4568 168.732 97.483 171.201 97.483ZM189.972 95.4917C186.714 95.4917 184.072 92.8171 184.072 89.5178C184.072 86.2185 186.714 83.5439 189.972 83.5439C193.23 83.5439 195.871 86.2185 195.871 89.5178C195.871 92.8171 193.23 95.4917 189.972 95.4917ZM189.972 96.5779C186.121 96.5779 183 93.417 183 89.5178C183 85.6186 186.121 82.4577 189.972 82.4577C193.822 82.4577 196.944 85.6186 196.944 89.5178C196.944 93.417 193.822 96.5779 189.972 96.5779ZM170.843 90.966C170.843 93.6654 173.004 95.8537 175.67 95.8537C178.336 95.8537 180.497 93.6654 180.497 90.966C180.497 88.2666 178.336 86.0782 175.67 86.0782C173.004 86.0782 170.843 88.2666 170.843 90.966ZM169.77 90.966C169.77 94.2653 172.412 96.9399 175.67 96.9399C178.928 96.9399 181.57 94.2653 181.57 90.966C181.57 87.6667 178.928 84.9921 175.67 84.9921C172.412 84.9921 169.77 87.6667 169.77 90.966Z" fill="#010C49"/>
<path fill-rule="evenodd" clip-rule="evenodd" d="M5.79834 43.8487C5.79834 42.2754 7.13463 41 8.78302 41H27.6122C27.897 41 28.1279 41.2309 28.1279 41.5156C28.1279 41.8004 27.897 42.0312 27.6122 42.0312H8.78302C7.73135 42.0312 6.8788 42.845 6.8788 43.8487C6.8788 47.781 10.2187 50.9688 14.3386 50.9688H215.756C219.806 50.9688 223.217 48.0818 223.703 44.2444C223.851 43.0675 222.889 42.0312 221.647 42.0312H202.598C202.313 42.0312 202.082 41.8004 202.082 41.5156C202.082 41.2309 202.313 41 202.598 41H221.647C223.537 41 225.002 42.577 224.775 44.3679C224.224 48.7234 220.352 52 215.756 52H14.3386C9.62194 52 5.79834 48.3506 5.79834 43.8487Z" fill="#010C49"/>
<path fill-rule="evenodd" clip-rule="evenodd" d="M32.707 51.488L29.9306 56.5768C28.6272 58.9658 28.6203 61.7922 29.9118 64.1868L39.7983 82.5165L38.7716 83L28.8851 64.6703C27.4286 61.97 27.4365 58.7828 28.9063 56.0888L31.6827 51L32.707 51.488Z" fill="#010C49"/>
<path fill-rule="evenodd" clip-rule="evenodd" d="M196.299 51.488L198.844 56.5768C200.039 58.9658 200.045 61.7922 198.861 64.1868L189.798 82.5165L190.739 83L199.802 64.6703C201.137 61.97 201.13 58.7828 199.783 56.0888L197.238 51L196.299 51.488Z" fill="#010C49"/>
<path fill-rule="evenodd" clip-rule="evenodd" d="M35.766 53.6846L26.4771 47.2178C26.2347 47.049 26.1704 46.7181 26.332 46.4709C26.5004 46.2131 26.8485 46.1454 27.1012 46.3214L36.3636 52.7698C39.4432 54.9138 39.6354 59.5218 36.7458 61.9311L23.9015 72.6402C23.6654 72.8371 23.3132 72.7996 23.1237 72.5575C22.9424 72.3258 22.9779 71.9919 23.2039 71.8035L36.0741 61.0727C38.4045 59.1297 38.2495 55.4136 35.766 53.6846Z" fill="#010C49"/>
<path fill-rule="evenodd" clip-rule="evenodd" d="M192.831 53.4L202.11 47.1789C202.355 47.0146 202.42 46.6822 202.254 46.438C202.09 46.1957 201.761 46.1317 201.517 46.2947L192.233 52.519C189.153 54.5836 188.961 59.021 191.851 61.341L204.714 71.6686C204.942 71.8519 205.276 71.8164 205.461 71.5891C205.647 71.3599 205.611 71.023 205.381 70.8381L192.523 60.5145C190.192 58.6434 190.347 55.0649 192.831 53.4Z" fill="#010C49"/>
<path fill-rule="evenodd" clip-rule="evenodd" d="M114.194 59.0012L114.176 59L114.157 59.0012H45.3884C43.8232 59.0012 43.2029 60.917 44.4999 61.7457C47.068 63.3866 50.1423 64.169 53.2344 63.9688L114.176 60.0216L175.483 63.9708C178.569 64.1696 181.632 63.3488 184.149 61.6487C185.371 60.8233 184.753 59.0012 183.252 59.0012H114.194ZM98.4218 60.0204L53.1608 62.952C50.3083 63.1367 47.4723 62.4149 45.1033 60.9012C44.687 60.6352 44.8861 60.0204 45.3884 60.0204H98.4218ZM130.016 60.0204H183.252C183.705 60.0204 183.891 60.5703 183.523 60.8193C181.209 62.3822 178.393 63.1367 175.556 62.954L130.016 60.0204Z" fill="#010C49"/>
<path fill-rule="evenodd" clip-rule="evenodd" d="M65.3307 10.0678C57.9965 10.0678 51.3814 14.4292 48.5591 21.1255L36.4179 49.9322H193.059L178.112 20.0672C175.047 13.943 168.736 10.0678 161.828 10.0678H65.3307ZM47.5628 20.7146C50.5527 13.6205 57.5608 9 65.3307 9H161.828C169.146 9 175.832 13.1054 179.079 19.5935L194.798 51H34.7983L47.5628 20.7146Z" fill="#010C49"/>
<path d="M60.9152 36.0453L59.7983 43H62.8496C63.9989 41.8189 65.5576 41.1553 67.1828 41.1553H99.106V43H101.798L99.7389 33.5215C98.5299 27.9569 93.7252 24 88.1775 24H74.7283C67.8763 24 62.0311 29.0971 60.9152 36.0453Z" fill="#0023FF" fill-opacity="0.2"/>
<path fill-rule="evenodd" clip-rule="evenodd" d="M60.4788 36.3562L59.3897 42.715C56.5985 43.0492 53.8428 43.6409 51.161 44.4841L36.7983 49H193.798L172.506 43.7267C171.16 43.3934 169.8 43.122 168.43 42.913H168.895L167.772 36.3562C166.65 29.8055 160.773 25 153.884 25H140.362C134.784 25 129.953 28.7305 128.738 33.9768L127.191 40.6522H101.06L99.5128 33.9768C98.2972 28.7305 93.4665 25 87.8887 25H74.3667C67.4775 25 61.6006 29.8055 60.4788 36.3562ZM129.374 42.0435H129.555V41.1739H161.47C162.921 41.1739 164.318 41.6667 165.422 42.556C164.134 42.4464 162.841 42.3913 161.547 42.3913H129.374V42.0435ZM126.869 42.0435H101.382L101.463 42.3913H126.788L126.869 42.0435ZM64.8183 42.3913C64.2094 42.3913 63.601 42.4035 62.9935 42.4278C64.07 41.6194 65.4013 41.1739 66.7803 41.1739H98.8765V42.3913H64.8183Z" fill="#010C49"/>
<path d="M103.342 86.5C102.99 86.5 102.662 86.6778 102.469 86.9719C102.277 87.2659 102.245 87.6369 102.384 87.9595C103.463 90.4636 107.329 95.3395 114.366 95.4964C121.468 95.6548 125.224 90.5432 126.229 87.9199C126.352 87.599 126.31 87.2379 126.116 86.9542C125.921 86.6703 125.6 86.5 125.255 86.5H103.342ZM113.269 88.5905L113.331 93.3371C109.199 92.8942 106.514 90.5112 105.145 88.5905H113.269ZM115.355 88.5905H123.546C122.25 90.6147 119.609 93.1211 115.418 93.3865L115.355 88.5905Z" fill="white" stroke="#010C49" stroke-linejoin="round"/>
<path d="M84.7983 111.791C84.7983 110.249 86.0886 109 87.6803 109H139.916C141.508 109 142.798 110.249 142.798 111.791V121.209C142.798 122.751 141.508 124 139.916 124H87.6803C86.0886 124 84.7983 122.751 84.7983 121.209V111.791Z" fill="#EEEEED"/>
<path fill-rule="evenodd" clip-rule="evenodd" d="M84.7983 111.511C84.7983 109.572 86.3285 108 88.216 108H140.381C142.268 108 143.798 109.572 143.798 111.511V121.489C143.798 123.428 142.268 125 140.381 125H88.216C86.3285 125 84.7983 123.428 84.7983 121.489V111.511ZM88.216 109.109C86.9246 109.109 85.8776 110.184 85.8776 111.511V121.489C85.8776 122.816 86.9246 123.891 88.216 123.891H140.381C141.672 123.891 142.719 122.816 142.719 121.489V111.511C142.719 110.184 141.672 109.109 140.381 109.109H88.216Z" fill="#010C49"/>
</svg>
