<svg width="244" height="164" viewBox="0 0 244 164" fill="none" xmlns="http://www.w3.org/2000/svg">
<path d="M244 141.611H0V141.733H244V141.611Z" fill="#EBEBEB"/>
<path d="M219.551 149.463H206.863V149.585H219.551V149.463Z" fill="#EBEBEB"/>
<path d="M173.743 150.791H151.768V150.913H173.743V150.791Z" fill="#EBEBEB"/>
<path d="M206.375 144.935H176.71V145.057H206.375V144.935Z" fill="#EBEBEB"/>
<path d="M34.9847 145.754H25.6005V145.876H34.9847V145.754Z" fill="#EBEBEB"/>
<path d="M66.3143 145.754H39.3328V145.876H66.3143V145.754Z" fill="#EBEBEB"/>
<path d="M119.14 147.814H82.799V147.936H119.14V147.814Z" fill="#EBEBEB"/>
<path d="M32.9108 105.802H22.5652V141.611H32.9108V105.802Z" fill="#FAFAFA"/>
<path d="M41.968 113.659H31.6224V141.611H41.968V113.659Z" fill="#FAFAFA"/>
<path d="M48.5852 90.6251H38.2396V141.611H48.5852V90.6251Z" fill="#FAFAFA"/>
<path d="M55.4612 49.2816H45.1156V141.611H55.4612V49.2816Z" fill="#FAFAFA"/>
<path d="M81.052 56.4698H53.2897V141.611H81.052V56.4698Z" fill="#FAFAFA"/>
<path d="M188.993 141.611H200.812V117.104H188.993V141.611Z" fill="#FAFAFA"/>
<path d="M178.637 141.611H190.457V122.482H178.637V141.611Z" fill="#FAFAFA"/>
<path d="M171.083 141.611H182.902V106.714H171.083V141.611Z" fill="#FAFAFA"/>
<path d="M163.226 141.611H175.046V78.4202H163.226V141.611Z" fill="#FAFAFA"/>
<path d="M169.58 64.4146H133.307V141.611H169.58V64.4146Z" fill="#F0F0F0"/>
<path d="M166.125 67.65H164.397V77.044H166.125V67.65Z" fill="#F5F5F5"/>
<path d="M166.125 82.3436H164.397V91.7375H166.125V82.3436Z" fill="#F5F5F5"/>
<path d="M166.125 97.0325H164.397V106.427H166.125V97.0325Z" fill="#F5F5F5"/>
<path d="M166.125 111.721H164.397V121.115H166.125V111.721Z" fill="#F5F5F5"/>
<path d="M166.125 126.415H164.397V135.809H166.125V126.415Z" fill="#F5F5F5"/>
<path d="M160.005 67.65H158.278V77.044H160.005V67.65Z" fill="#F5F5F5"/>
<path d="M160.005 82.3436H158.278V91.7375H160.005V82.3436Z" fill="#F5F5F5"/>
<path d="M160.005 97.0325H158.278V106.427H160.005V97.0325Z" fill="#F5F5F5"/>
<path d="M160.005 111.721H158.278V121.115H160.005V111.721Z" fill="#F5F5F5"/>
<path d="M160.005 126.415H158.278V135.809H160.005V126.415Z" fill="#F5F5F5"/>
<path d="M153.886 67.65H152.158V77.044H153.886V67.65Z" fill="#F5F5F5"/>
<path d="M153.886 82.3436H152.158V91.7375H153.886V82.3436Z" fill="#F5F5F5"/>
<path d="M153.886 97.0325H152.158V106.427H153.886V97.0325Z" fill="#F5F5F5"/>
<path d="M153.886 111.721H152.158V121.115H153.886V111.721Z" fill="#F5F5F5"/>
<path d="M153.886 126.415H152.158V135.809H153.886V126.415Z" fill="#F5F5F5"/>
<path d="M147.766 67.65H146.039V77.044H147.766V67.65Z" fill="#F5F5F5"/>
<path d="M147.766 82.3436H146.039V91.7375H147.766V82.3436Z" fill="#F5F5F5"/>
<path d="M147.766 97.0325H146.039V106.427H147.766V97.0325Z" fill="#F5F5F5"/>
<path d="M147.766 111.721H146.039V121.115H147.766V111.721Z" fill="#F5F5F5"/>
<path d="M147.766 126.415H146.039V135.809H147.766V126.415Z" fill="#F5F5F5"/>
<path d="M141.642 67.65H139.915V77.044H141.642V67.65Z" fill="#F5F5F5"/>
<path d="M141.642 82.3436H139.915V91.7375H141.642V82.3436Z" fill="#F5F5F5"/>
<path d="M141.642 97.0325H139.915V106.427H141.642V97.0325Z" fill="#F5F5F5"/>
<path d="M141.642 111.721H139.915V121.115H141.642V111.721Z" fill="#F5F5F5"/>
<path d="M141.642 126.415H139.915V135.809H141.642V126.415Z" fill="#F5F5F5"/>
<path opacity="0.5" d="M133.307 64.4146H140.778L144.028 141.611H133.307V64.4146Z" fill="#E0E0E0"/>
<path d="M115.475 34.588L136.986 38.6579V141.611H115.475V34.588Z" fill="#F0F0F0"/>
<path d="M115.475 34.588H98.2637V141.611H115.475V34.588Z" fill="#E6E6E6"/>
<path d="M98.2637 44.0063L136.986 44.0063V43.4597L98.2637 43.4597V44.0063Z" fill="#E0E0E0"/>
<path d="M98.2637 49.833L136.986 49.833V49.2864L98.2637 49.2864V49.833Z" fill="#E0E0E0"/>
<path d="M98.2637 55.6598L136.986 55.6598V55.1132L98.2637 55.1132V55.6598Z" fill="#E0E0E0"/>
<path d="M98.2637 61.4815L136.986 61.4815V60.9349L98.2637 60.9349V61.4815Z" fill="#E0E0E0"/>
<path d="M98.2637 67.3132H136.986V66.7667H98.2637V67.3132Z" fill="#E0E0E0"/>
<path d="M98.2637 73.14H136.986V72.5935H98.2637V73.14Z" fill="#E0E0E0"/>
<path d="M98.2637 78.9668H136.986V78.4203H98.2637V78.9668Z" fill="#E0E0E0"/>
<path d="M98.2637 84.7933H136.986V84.2467H98.2637V84.7933Z" fill="#E0E0E0"/>
<path d="M98.2637 90.625H136.986V90.0784H98.2637V90.625Z" fill="#E0E0E0"/>
<path d="M98.2637 96.4518H136.986V95.9052H98.2637V96.4518Z" fill="#E0E0E0"/>
<path d="M98.2637 102.279H136.986V101.732H98.2637V102.279Z" fill="#E0E0E0"/>
<path d="M98.2637 108.1H136.986V107.554H98.2637V108.1Z" fill="#E0E0E0"/>
<path d="M98.2637 113.932H136.986V113.385H98.2637V113.932Z" fill="#E0E0E0"/>
<path d="M98.2637 119.759H136.986V119.212H98.2637V119.759Z" fill="#E0E0E0"/>
<path d="M98.2637 125.585H136.986V125.039H98.2637V125.585Z" fill="#E0E0E0"/>
<path d="M98.2637 131.412H136.986V130.865H98.2637V131.412Z" fill="#E0E0E0"/>
<path d="M98.2637 137.244H136.986V136.697H98.2637V137.244Z" fill="#E0E0E0"/>
<path d="M88.8502 11.8423H70.8577V141.611H88.8502V11.8423Z" fill="#F0F0F0"/>
<path d="M88.8502 11.8423H70.8577L77.4798 0.384033H103.246L88.8502 11.8423Z" fill="#FAFAFA"/>
<path d="M88.8501 11.8423L103.246 0.384033V141.611H88.8501V11.8423Z" fill="#EBEBEB"/>
<path d="M103.246 17.8885H70.8577V18.5815H103.246V17.8885Z" fill="#E0E0E0"/>
<path d="M103.246 25.233H70.8577V25.926H103.246V25.233Z" fill="#E0E0E0"/>
<path d="M103.246 32.5773H70.8577V33.2702H103.246V32.5773Z" fill="#E0E0E0"/>
<path d="M103.246 39.9268H70.8577V40.6197H103.246V39.9268Z" fill="#E0E0E0"/>
<path d="M103.246 47.2711H70.8577V47.964H103.246V47.2711Z" fill="#E0E0E0"/>
<path d="M103.246 54.6155H70.8577V55.3085H103.246V54.6155Z" fill="#E0E0E0"/>
<path d="M103.246 61.9598H70.8577V62.6527H103.246V61.9598Z" fill="#E0E0E0"/>
<path d="M103.246 69.3043H70.8577V69.9972H103.246V69.3043Z" fill="#E0E0E0"/>
<path d="M103.246 76.6488H70.8577V77.3418H103.246V76.6488Z" fill="#E0E0E0"/>
<path d="M103.246 83.998H70.8577V84.691H103.246V83.998Z" fill="#E0E0E0"/>
<path d="M103.246 91.3423H70.8577V92.0352H103.246V91.3423Z" fill="#E0E0E0"/>
<path d="M103.246 98.6868H70.8577V99.3797H103.246V98.6868Z" fill="#E0E0E0"/>
<path d="M103.246 106.031H70.8577V106.724H103.246V106.031Z" fill="#E0E0E0"/>
<path d="M103.246 113.376H70.8577V114.068H103.246V113.376Z" fill="#E0E0E0"/>
<path d="M103.246 120.72H70.8577V121.413H103.246V120.72Z" fill="#E0E0E0"/>
<path d="M103.246 128.069H70.8577V128.762H103.246V128.069Z" fill="#E0E0E0"/>
<path d="M103.246 135.414H70.8577V136.107H103.246V135.414Z" fill="#E0E0E0"/>
<path d="M67.7344 74.6381H48.0924V141.611H67.7344V74.6381Z" fill="#F0F0F0"/>
<path d="M55.1099 78.098H51.9574V88.8487H55.1099V78.098Z" fill="#E6E6E6"/>
<path d="M62.8446 78.098H59.6921V88.8487H62.8446V78.098Z" fill="#E6E6E6"/>
<path d="M55.1099 92.0208H51.9574V102.771H55.1099V92.0208Z" fill="#E6E6E6"/>
<path d="M62.8446 92.0208H59.6921V102.771H62.8446V92.0208Z" fill="#E6E6E6"/>
<path d="M55.1099 105.938H51.9574V116.689H55.1099V105.938Z" fill="#E6E6E6"/>
<path d="M62.8446 105.938H59.6921V116.689H62.8446V105.938Z" fill="#E6E6E6"/>
<path d="M55.1099 119.861H51.9574V130.612H55.1099V119.861Z" fill="#E6E6E6"/>
<path d="M62.8446 119.861H59.6921V130.612H62.8446V119.861Z" fill="#E6E6E6"/>
<path d="M67.7295 74.6381H48.0924L52.6991 69.9973H72.3411L67.7295 74.6381Z" fill="white"/>
<path d="M67.7295 74.6382L72.3411 69.9973L76.9478 74.6382V141.611H67.7295V74.6382Z" fill="#E6E6E6"/>
<path d="M122 163.649C174.256 163.649 216.618 161.176 216.618 158.125C216.618 155.074 174.256 152.601 122 152.601C69.7437 152.601 27.3816 155.074 27.3816 158.125C27.3816 161.176 69.7437 163.649 122 163.649Z" fill="#F5F5F5"/>
<path d="M203.472 10.915H141.237C138.733 10.915 136.703 12.9447 136.703 15.4485V153.587C136.703 156.09 138.733 158.12 141.237 158.12H203.472C205.975 158.12 208.005 156.09 208.005 153.587V15.4485C208.005 12.9447 205.975 10.915 203.472 10.915Z" fill="#FF5800"/>
<path d="M200.651 10.915H138.416C135.913 10.915 133.883 12.9447 133.883 15.4485V153.587C133.883 156.09 135.913 158.12 138.416 158.12H200.651C203.155 158.12 205.184 156.09 205.184 153.587V15.4485C205.184 12.9447 203.155 10.915 200.651 10.915Z" fill="#FF5800"/>
<path opacity="0.7" d="M200.651 10.915H138.416C135.913 10.915 133.883 12.9447 133.883 15.4485V153.587C133.883 156.09 135.913 158.12 138.416 158.12H200.651C203.155 158.12 205.184 156.09 205.184 153.587V15.4485C205.184 12.9447 203.155 10.915 200.651 10.915Z" fill="white"/>
<g opacity="0.9">
<path opacity="0.9" d="M148.196 10.915H144.336V158.12H148.196V10.915Z" fill="white"/>
<path opacity="0.9" d="M189.037 10.915H186.67V158.12H189.037V10.915Z" fill="white"/>
<path opacity="0.9" d="M133.883 42.8886V46.7487L205.184 42.3323V38.4722L133.883 42.8886Z" fill="white"/>
<path opacity="0.9" d="M133.888 134.081V137.941H205.189V134.081H133.888Z" fill="white"/>
<path opacity="0.9" d="M133.883 62.16V64.2632H205.184V62.16L133.883 62.16Z" fill="white"/>
<path opacity="0.9" d="M133.883 111.921V116.342L205.184 92.2158V87.7945L133.883 111.921Z" fill="white"/>
<path opacity="0.9" d="M158.873 10.915H155.013L165.388 158.125H169.248L158.873 10.915Z" fill="white"/>
</g>
<path d="M192.76 143.022H107.872V116.562H182.697L189.681 122.238C190.646 123.021 191.424 124.011 191.956 125.134C192.489 126.257 192.764 127.485 192.76 128.728V143.022Z" fill="#FF5800"/>
<path opacity="0.5" d="M192.76 143.022H107.872V116.562H182.697L189.681 122.238C190.646 123.021 191.424 124.011 191.956 125.134C192.489 126.257 192.764 127.485 192.76 128.728V143.022Z" fill="black"/>
<path d="M107.384 140.635C107.384 130.978 111.776 123.15 117.144 123.15H106.789C101.387 123.15 97.0291 130.958 97.0291 140.635C97.0291 150.312 101.421 158.125 106.789 158.125H117.164C111.752 158.125 107.384 150.293 107.384 140.635Z" fill="#263238"/>
<path d="M117.164 158.12C122.565 158.12 126.943 150.292 126.943 140.635C126.943 130.979 122.565 123.15 117.164 123.15C111.763 123.15 107.384 130.979 107.384 140.635C107.384 150.292 111.763 158.12 117.164 158.12Z" fill="#263238"/>
<path d="M117.95 154.27C121.779 154.27 124.884 148.165 124.884 140.635C124.884 133.105 121.779 127 117.95 127C114.12 127 111.015 133.105 111.015 140.635C111.015 148.165 114.12 154.27 117.95 154.27Z" fill="white"/>
<path d="M51.0155 140.635C51.0155 130.978 55.4075 123.15 60.7755 123.15H50.4202C45.018 123.15 40.6602 130.958 40.6602 140.635C40.6602 150.312 45.0522 158.125 50.4202 158.125H60.795C55.3929 158.125 51.0155 150.293 51.0155 140.635Z" fill="#263238"/>
<path d="M60.795 158.12C66.1961 158.12 70.5745 150.292 70.5745 140.635C70.5745 130.979 66.1961 123.15 60.795 123.15C55.3939 123.15 51.0155 130.979 51.0155 140.635C51.0155 150.292 55.3939 158.12 60.795 158.12Z" fill="#263238"/>
<path d="M174.402 140.635C174.402 130.978 178.794 123.15 184.162 123.15H173.806C168.409 123.15 164.046 130.958 164.046 140.635C164.046 150.312 168.438 158.125 173.806 158.125H184.181C178.784 158.125 174.402 150.293 174.402 140.635Z" fill="#263238"/>
<path d="M184.181 158.12C189.582 158.12 193.961 150.292 193.961 140.635C193.961 130.979 189.582 123.15 184.181 123.15C178.78 123.15 174.402 130.979 174.402 140.635C174.402 150.292 178.78 158.12 184.181 158.12Z" fill="#263238"/>
<path d="M184.972 154.27C188.801 154.27 191.906 148.165 191.906 140.635C191.906 133.105 188.801 127 184.972 127C181.142 127 178.037 133.105 178.037 140.635C178.037 148.165 181.142 154.27 184.972 154.27Z" fill="white"/>
<path d="M95.8286 145.515H83.2822L82.5794 144.832C81.8577 144.109 80.8782 143.702 79.8564 143.7H48.4975C47.4757 143.702 46.4962 144.109 45.7745 144.832L45.345 145.257H44.2031C43.3159 145.257 42.4373 145.082 41.6181 144.741C40.7988 144.4 40.0549 143.901 39.4291 143.272C38.8033 142.643 38.3079 141.897 37.9715 141.076C37.6351 140.255 37.4642 139.376 37.4687 138.488V128.167H108.629L102.968 140.474C102.446 141.95 101.479 143.228 100.2 144.13C98.9214 145.033 97.394 145.517 95.8286 145.515Z" fill="#FF5800"/>
<path opacity="0.2" d="M95.8286 145.515H83.2822L82.5794 144.832C81.8577 144.109 80.8782 143.702 79.8564 143.7H48.4975C47.4757 143.702 46.4962 144.109 45.7745 144.832L45.345 145.257H44.2031C43.3159 145.257 42.4373 145.082 41.6181 144.741C40.7988 144.4 40.0549 143.901 39.4291 143.272C38.8033 142.643 38.3079 141.897 37.9715 141.076C37.6351 140.255 37.4642 139.376 37.4687 138.488V128.167H108.629L102.968 140.474C102.446 141.95 101.479 143.228 100.2 144.13C98.9214 145.033 97.394 145.517 95.8286 145.515Z" fill="black"/>
<path d="M169.902 84.164C169.859 84.1648 169.817 84.1529 169.78 84.1298C169.752 84.1141 169.728 84.093 169.708 84.0677C169.689 84.0424 169.674 84.0134 169.666 83.9825C169.658 83.9515 169.656 83.9192 169.66 83.8876C169.665 83.8559 169.676 83.8254 169.692 83.798L173.108 77.942C173.122 77.9109 173.143 77.883 173.168 77.8603C173.194 77.8376 173.224 77.8205 173.256 77.8101C173.289 77.7997 173.323 77.7962 173.357 77.7999C173.391 77.8036 173.424 77.8144 173.453 77.8315C173.483 77.8487 173.508 77.8718 173.528 77.8995C173.548 77.9272 173.562 77.9587 173.569 77.9921C173.576 78.0256 173.576 78.0601 173.569 78.0935C173.562 78.1268 173.548 78.1584 173.528 78.186L170.112 84.042C170.091 84.0788 170.06 84.1095 170.023 84.1309C169.987 84.1523 169.945 84.1637 169.902 84.164Z" fill="#263238"/>
<path d="M187.919 113.297V106.641C187.919 103.142 182.834 86.6331 175.841 83.5392C168.848 80.4453 151.929 79.0691 141.271 79.6352C130.613 80.2013 116.383 102.493 116.383 102.493L117.93 121.662C120.097 121.662 126.997 121.008 128.007 139.972C128.075 141.308 128.655 142.568 129.626 143.489C130.597 144.411 131.885 144.923 133.224 144.92H170.537C171.79 144.919 173.001 144.465 173.946 143.642C174.891 142.819 175.507 141.681 175.68 140.44C176.656 133.681 179.203 121.647 185.347 121.647C189.656 121.647 192.745 125.336 192.745 129.567C192.747 124.919 191.618 120.34 189.456 116.225L187.919 113.297Z" fill="#FF5800"/>
<path d="M102.231 79.6353C82.8235 79.6353 60.8342 102.493 60.8342 102.493H116.403C116.403 102.493 130.618 80.2062 141.291 79.6353H102.231Z" fill="#FF5800"/>
<path opacity="0.4" d="M103.422 79.6353C87.074 79.6353 69.9257 95.8564 64.9237 100.966C64.7994 101.092 64.7153 101.253 64.682 101.427C64.6487 101.601 64.6677 101.781 64.7366 101.944C64.8055 102.108 64.9212 102.247 65.0691 102.345C65.217 102.442 65.3905 102.494 65.5678 102.493H110.396C112.2 102.498 113.98 102.078 115.591 101.265C117.202 100.453 118.599 99.2719 119.668 97.8182C124.489 91.2497 133.776 80.0403 141.291 79.6353H103.422Z" fill="white"/>
<path d="M116.403 102.493L95.8773 118.69L40.6406 118.514C40.6406 118.514 37.4686 123.126 37.4686 128.167H108.629C109.795 125.078 113.885 121.662 117.95 121.662C117.95 115.913 116.403 102.493 116.403 102.493Z" fill="#FF5800"/>
<path opacity="0.2" d="M102.968 113.917C102.91 113.917 102.853 113.895 102.81 113.857C102.766 113.818 102.737 113.765 102.729 113.707C102.721 113.644 102.737 113.58 102.776 113.529C102.814 113.478 102.871 113.444 102.934 113.434C107.861 112.635 112.471 110.491 116.256 107.237C117.005 106.607 117.492 105.722 117.622 104.753C117.753 103.784 117.518 102.801 116.964 101.995C116.944 101.969 116.929 101.939 116.921 101.907C116.912 101.875 116.911 101.842 116.916 101.809C116.921 101.776 116.932 101.745 116.95 101.717C116.967 101.689 116.99 101.664 117.017 101.646C117.045 101.627 117.075 101.614 117.108 101.607C117.14 101.6 117.174 101.6 117.206 101.607C117.239 101.614 117.269 101.627 117.296 101.646C117.324 101.665 117.347 101.689 117.364 101.717C117.986 102.623 118.249 103.727 118.102 104.816C117.955 105.904 117.408 106.899 116.569 107.607C112.718 110.922 108.023 113.104 103.007 113.912L102.968 113.917Z" fill="black"/>
<path d="M40.6406 118.514C40.6406 118.514 50.3421 107.207 60.8341 102.493H116.403L95.8773 118.69L40.6406 118.514Z" fill="#FF5800"/>
<path d="M83.6091 118.514H47.1702V119.573H83.6091V118.514Z" fill="#263238"/>
<path d="M82.8527 116.396L84.8047 114.444C85.2436 114.006 85.7992 113.703 86.4053 113.571L101.148 110.36C101.666 110.246 102.204 110.263 102.714 110.408L103.505 110.628C104.031 110.776 104.511 111.055 104.901 111.439C105.29 111.823 105.576 112.299 105.732 112.823C105.888 113.347 105.909 113.902 105.792 114.437C105.676 114.971 105.426 115.467 105.066 115.879L101.894 119.505C101.348 120.129 100.583 120.52 99.757 120.598L85.444 121.896C84.9712 121.941 84.4943 121.881 84.0473 121.721C83.6002 121.561 83.194 121.304 82.8576 120.969C82.2523 120.362 81.9119 119.54 81.911 118.683C81.9101 117.827 82.2487 117.004 82.8527 116.396Z" fill="white"/>
<path d="M48.1999 117.431L46.5847 114.41C46.3573 113.987 46.0201 113.633 45.6087 113.385C45.2179 113.151 44.7733 113.021 44.3177 113.008C43.8622 112.996 43.411 113.1 43.0076 113.312L41.7827 113.956C41.1812 114.275 40.7238 114.811 40.5042 115.455L39.7575 117.665C39.6334 118.029 39.5896 118.416 39.6293 118.798C39.669 119.181 39.7911 119.55 39.9874 119.881C40.1836 120.212 40.4492 120.496 40.7659 120.714C41.0826 120.932 41.4428 121.079 41.8218 121.145L45.1939 121.725C45.7439 121.821 46.3099 121.74 46.8117 121.496C47.3136 121.252 47.7258 120.856 47.9901 120.364L48.2146 119.949C48.4212 119.561 48.528 119.128 48.5255 118.688C48.5229 118.249 48.4111 117.817 48.1999 117.431Z" fill="white"/>
<path opacity="0.4" d="M127.754 103.142H179.13C179.566 103.142 179.995 103.041 180.385 102.845C180.774 102.65 181.112 102.366 181.372 102.016C181.632 101.667 181.806 101.261 181.881 100.832C181.956 100.403 181.93 99.9627 181.804 99.5457C180.633 95.6417 178.388 89.5368 175.016 86.4233C174.642 86.0804 174.181 85.8444 173.684 85.7401C167.628 84.4567 157.892 83.6027 150.67 83.105C147.396 82.8809 144.113 83.3687 141.046 84.5345C137.979 85.7004 135.2 87.5169 132.902 89.8589C130.154 92.6349 127.672 95.6623 125.489 98.9015C125.216 99.3119 125.059 99.7889 125.035 100.282C125.011 100.774 125.121 101.264 125.353 101.699C125.585 102.134 125.931 102.498 126.354 102.752C126.777 103.006 127.26 103.141 127.754 103.142Z" fill="white"/>
<path d="M94.5355 133.886C94.5355 135.487 92.8958 136.79 90.8755 136.79C88.8551 136.79 87.2155 135.487 87.2155 133.886C87.2155 132.286 88.8503 130.988 90.8755 130.988C92.9007 130.988 94.5355 132.286 94.5355 133.886Z" fill="#263238"/>
<path d="M65.0456 116.299C66.2461 116.299 66.8317 117.529 66.3535 119.041C65.8752 120.554 64.5186 121.789 63.3132 121.789C62.1079 121.789 61.5271 120.559 62.0054 119.041C62.4836 117.524 63.8451 116.299 65.0456 116.299Z" fill="#263238"/>
<path d="M40.4212 133.886C40.4212 135.487 39.9332 136.79 39.3915 136.79C38.8498 136.79 38.3569 135.487 38.3569 133.886C38.3569 132.286 38.8449 130.988 39.3915 130.988C39.9381 130.988 40.4212 132.286 40.4212 133.886Z" fill="#263238"/>
<path d="M126.172 102.679V101.034C126.172 100.562 126.277 100.096 126.479 99.6698C126.681 99.2435 126.977 98.8678 127.343 98.5699C127.709 98.2721 128.137 98.0597 128.595 97.9483C129.054 97.8368 129.531 97.8291 129.993 97.9256L136.25 99.2286C136.964 99.3777 137.605 99.768 138.065 100.334C138.526 100.9 138.777 101.608 138.777 102.337V102.679C138.777 103.52 138.443 104.328 137.849 104.923C137.254 105.519 136.447 105.854 135.605 105.856H129.349C128.507 105.856 127.699 105.521 127.103 104.925C126.507 104.329 126.172 103.521 126.172 102.679Z" fill="#263238"/>
<path d="M159.088 83.7881C159.088 83.7881 158.254 83.7052 156.799 83.5783C163.231 96.7543 161.591 103.142 161.591 103.142H166.501C166.55 95.1195 159.088 83.7881 159.088 83.7881Z" fill="#263238"/>
<path opacity="0.2" d="M104.842 97.2424C104.743 98.278 104.261 99.2394 103.492 99.9394C102.722 100.639 101.72 101.028 100.679 101.029H75.3864C73.5417 101.029 72.8732 98.9699 74.2103 97.4376C76.623 94.6902 79.2432 92.132 82.0476 89.7858C86.8105 85.7744 92.725 83.6906 98.2541 84.0762L100.343 84.2274C101.244 84.2977 102.099 84.6573 102.779 85.2526C103.46 85.8479 103.93 86.6471 104.12 87.5312C104.858 90.712 105.102 93.9875 104.842 97.2424Z" fill="#FF5800"/>
<path opacity="0.2" d="M162.177 141.45C162.112 141.45 162.05 141.424 162.005 141.379C161.959 141.333 161.933 141.271 161.933 141.206C161.933 136.268 164.451 115.903 165.11 112.853C165.749 109.891 165.749 106.583 165.11 104.43C165.092 104.368 165.099 104.302 165.13 104.245C165.161 104.188 165.214 104.146 165.276 104.128C165.338 104.111 165.404 104.119 165.461 104.15C165.517 104.181 165.559 104.232 165.578 104.294C166.237 106.519 166.237 109.92 165.578 112.956C164.92 115.991 162.411 136.287 162.411 141.206C162.411 141.269 162.387 141.33 162.343 141.375C162.3 141.421 162.24 141.448 162.177 141.45Z" fill="black"/>
<path opacity="0.2" d="M161.528 113.112H155.579C155.467 113.116 155.354 113.093 155.251 113.047C155.149 113 155.058 112.931 154.986 112.843C154.914 112.756 154.864 112.654 154.838 112.544C154.812 112.434 154.812 112.319 154.838 112.209L154.96 111.521C155.009 111.274 155.14 111.05 155.332 110.886C155.524 110.722 155.766 110.628 156.019 110.618H161.967C162.08 110.615 162.192 110.637 162.295 110.684C162.398 110.73 162.489 110.8 162.561 110.887C162.632 110.974 162.683 111.077 162.709 111.187C162.734 111.297 162.735 111.411 162.709 111.521L162.587 112.209C162.538 112.457 162.407 112.681 162.214 112.845C162.022 113.008 161.78 113.103 161.528 113.112Z" fill="black"/>
<path d="M179.526 39.1703H179.038C179.038 37.9278 178.859 36.6918 178.506 35.5005L178.994 35.3639C179.354 36.6004 179.533 37.8825 179.526 39.1703ZM177.422 32.9288C176.304 30.9229 174.672 29.2513 172.693 28.0865C170.714 26.9216 168.46 26.3055 166.164 26.3017V25.8137C168.548 25.8161 170.888 26.4552 172.941 27.6649C174.995 28.8746 176.689 30.611 177.847 32.6945L177.422 32.9288Z" fill="#FF5800"/>
<path d="M166.164 27.5217C163.075 27.523 160.114 28.7508 157.93 30.9352C155.747 33.1196 154.52 36.0817 154.52 39.1703C154.52 50.3943 166.164 58.0852 166.164 58.0852C166.164 58.0852 177.817 50.3894 177.817 39.1703C177.816 36.0804 176.588 33.1176 174.402 30.9332C172.217 28.7488 169.254 27.5217 166.164 27.5217ZM166.164 44.6554C165.089 44.6544 164.038 44.3348 163.145 43.7369C162.252 43.1389 161.556 42.2895 161.145 41.2961C160.734 40.3027 160.627 39.2098 160.838 38.1555C161.048 37.1013 161.566 36.1331 162.326 35.3733C163.087 34.6135 164.056 34.0962 165.11 33.8869C166.164 33.6775 167.257 33.7854 168.25 34.1971C169.243 34.6087 170.092 35.3054 170.689 36.1993C171.286 37.0932 171.605 38.1441 171.605 39.2191C171.605 39.9334 171.464 40.6407 171.191 41.3006C170.917 41.9605 170.516 42.56 170.011 43.0649C169.506 43.5697 168.906 43.9701 168.246 44.243C167.586 44.5159 166.878 44.6561 166.164 44.6554Z" fill="#FF5800"/>
<path d="M145.409 157.383L148.357 157.335L149.206 150.503L146.263 150.551L145.409 157.383Z" fill="#B55B52"/>
<path d="M159.478 157.164L162.338 156.29L160.562 149.815L157.702 150.693L159.478 157.164Z" fill="#B55B52"/>
<path d="M162.25 155.431L159.059 157.076C159.007 157.104 158.966 157.148 158.943 157.202C158.92 157.256 158.916 157.317 158.932 157.373L159.615 159.965C159.632 160.028 159.662 160.086 159.705 160.135C159.747 160.185 159.8 160.224 159.86 160.25C159.919 160.275 159.984 160.287 160.049 160.285C160.114 160.282 160.178 160.264 160.235 160.233C161.255 159.687 161.972 159.257 163.265 158.569C164.061 158.159 166.501 157.007 167.599 156.436C168.697 155.866 168.282 154.709 167.784 154.846C165.539 155.446 163.704 155.622 162.758 155.373C162.587 155.328 162.406 155.349 162.25 155.431Z" fill="#263238"/>
<path d="M148.415 156.993L145.199 157.046C145.141 157.048 145.086 157.069 145.041 157.106C144.997 157.143 144.967 157.195 144.955 157.251L144.414 159.877C144.4 159.94 144.4 160.006 144.415 160.069C144.43 160.132 144.46 160.191 144.501 160.241C144.543 160.291 144.595 160.331 144.654 160.357C144.714 160.384 144.778 160.396 144.843 160.394C146.005 160.355 147.678 160.262 149.138 160.238C150.841 160.214 151.338 160.282 153.339 160.238C154.545 160.238 154.862 158.989 154.354 158.886C152.041 158.398 151.138 158.398 149.133 157.198C148.915 157.069 148.668 156.998 148.415 156.993Z" fill="#263238"/>
<path d="M152.89 67.7523C153.559 69.0943 154.315 70.5143 155.072 71.8661C155.828 73.2178 156.628 74.5647 157.482 75.8286C157.702 76.141 157.907 76.4679 158.132 76.7656L158.683 77.5171C158.795 77.6635 158.859 77.7318 158.878 77.766C158.898 77.8002 158.907 77.849 159.049 77.8587C159.567 77.765 160.049 77.5284 160.44 77.1755C160.708 76.9706 160.981 76.7363 161.25 76.4874C161.518 76.2386 161.787 75.9506 162.021 75.7213L163.968 76.8046C163.806 77.2356 163.613 77.6547 163.392 78.0588C163.174 78.4723 162.923 78.8673 162.641 79.2398C162.34 79.6467 161.997 80.0198 161.616 80.3524C161.163 80.755 160.638 81.068 160.069 81.2747C159.356 81.535 158.581 81.5775 157.844 81.3967C157.152 81.2272 156.513 80.8923 155.979 80.4207C155.861 80.3212 155.749 80.2153 155.643 80.1035L155.487 79.9425L155.374 79.8156L154.945 79.3276C154.657 79.0006 154.393 78.6639 154.12 78.3516C153.078 77.0112 152.116 75.6098 151.241 74.1548C150.812 73.4326 150.387 72.6908 149.997 71.9637C149.606 71.2366 149.225 70.4997 148.864 69.675L152.89 67.7523Z" fill="#B55B52"/>
<path d="M147.61 67.7718C146.815 70.4753 152.402 77.8392 152.402 77.8392L158.039 74.2134C156.978 71.8711 155.669 69.6494 154.135 67.5863C151.826 64.6437 148.479 64.7998 147.61 67.7718Z" fill="#FF5800"/>
<g opacity="0.2">
<path opacity="0.2" d="M147.61 67.7718C146.815 70.4753 152.402 77.8392 152.402 77.8392L158.039 74.2134C156.978 71.8711 155.669 69.6494 154.135 67.5863C151.826 64.6437 148.479 64.7998 147.61 67.7718Z" fill="black"/>
</g>
<path opacity="0.2" d="M151.046 70.9438C152.202 71.4318 153.91 74.2329 154.799 76.3118L152.407 77.849C151.069 76.0628 149.867 74.1788 148.811 72.2126C149.567 71.3733 150.431 70.6852 151.046 70.9438Z" fill="black"/>
<path d="M161.684 76.2484L163.724 72.9495L165.505 75.7946C165.076 76.5536 164.381 77.126 163.553 77.4001L161.684 76.2484Z" fill="#B55B52"/>
<path d="M166.569 72.9837V74.0036C166.569 74.3222 166.459 74.6309 166.257 74.8771L165.515 75.7946L163.734 72.9495L165.574 72.281C165.686 72.2412 165.806 72.229 165.925 72.2453C166.043 72.2617 166.155 72.3061 166.253 72.3749C166.35 72.4438 166.43 72.535 166.485 72.6409C166.54 72.7468 166.569 72.8644 166.569 72.9837Z" fill="#B55B52"/>
<path d="M164.578 77.2L161.367 77.1512L163.143 70.4998L166.354 70.5486L164.578 77.2Z" fill="#FF5800"/>
<path d="M164.905 77.2L161.694 77.1512L163.47 70.4998L166.681 70.5486L164.905 77.2Z" fill="#263238"/>
<path opacity="0.2" d="M149.206 150.507L148.767 154.026L145.819 154.075L146.258 150.551L149.206 150.507Z" fill="black"/>
<path opacity="0.2" d="M157.702 150.693L160.567 149.815L161.479 153.152L158.615 154.031L157.702 150.693Z" fill="black"/>
<path d="M135.176 69.1918C137.582 79.5472 137.06 89.8196 137.323 92.0351L153.032 90.8639C154.54 74.0328 150.968 65.4879 150.968 65.4879C150.968 65.4879 149.958 65.2927 148.586 65.1512C148.157 65.1072 147.688 65.0682 147.205 65.0438C146.937 65.0438 146.668 65.0194 146.39 65.0145C144.157 65.0492 141.928 65.2122 139.714 65.5025C139.295 65.5562 138.87 65.6148 138.455 65.6831L137.343 65.888H137.299C136.939 65.9595 136.598 66.1027 136.295 66.309C135.992 66.5154 135.734 66.7806 135.536 67.089C135.337 67.3974 135.203 67.7425 135.142 68.1038C135.08 68.4651 135.092 68.8351 135.176 69.1918Z" fill="#FF5800"/>
<g opacity="0.2">
<path opacity="0.2" d="M135.176 69.1918C137.582 79.5472 137.06 89.8196 137.323 92.0351L153.032 90.8639C154.54 74.0328 150.968 65.4879 150.968 65.4879C150.968 65.4879 149.958 65.2927 148.586 65.1512C148.157 65.1072 147.688 65.0682 147.205 65.0438C146.937 65.0438 146.668 65.0194 146.39 65.0145C144.157 65.0492 141.928 65.2122 139.714 65.5025C139.295 65.5562 138.87 65.6148 138.455 65.6831L137.343 65.888H137.299C136.939 65.9595 136.598 66.1027 136.295 66.309C135.992 66.5154 135.734 66.7806 135.536 67.089C135.337 67.3974 135.203 67.7425 135.142 68.1038C135.08 68.4651 135.092 68.8351 135.176 69.1918Z" fill="black"/>
</g>
<path opacity="0.2" d="M137.836 71.3782L136.03 73.6962C136.032 73.7255 136.032 73.7548 136.03 73.7841C136.284 75.3554 136.479 76.8926 136.625 78.3762C138.358 76.2436 138.104 72.3933 137.836 71.3782Z" fill="black"/>
<path d="M140.471 60.9251C140.847 62.5063 140.822 64.2631 139.69 65.5221C140.944 66.5957 142.569 67.8206 145.126 67.723C147.683 67.6254 147.112 65.8979 146.366 65.0243C144.184 64.673 144.18 63.2529 144.16 61.6913C144.159 61.5333 144.108 61.3796 144.014 61.2525C143.92 61.1253 143.789 61.0312 143.638 60.9837L141.237 60.2127C141.135 60.1803 141.027 60.1754 140.923 60.1987C140.819 60.2219 140.723 60.2724 140.645 60.3449C140.568 60.4174 140.51 60.5094 140.48 60.6113C140.449 60.7133 140.446 60.8216 140.471 60.9251Z" fill="#B55B52"/>
<path d="M147.376 77.815C146.058 77.815 144.843 76.2338 144.604 74.2135C144.511 73.6785 144.527 73.1301 144.652 72.6016C144.777 72.0731 145.008 71.5755 145.331 71.1391C145.484 70.9551 145.674 70.8065 145.89 70.7036C146.106 70.6008 146.342 70.5463 146.581 70.5438C147.893 70.5438 149.113 72.1249 149.347 74.1452C149.441 74.6799 149.426 75.228 149.302 75.7565C149.178 76.2849 148.947 76.7827 148.625 77.2196C148.472 77.4024 148.281 77.5502 148.065 77.6529C147.85 77.7556 147.615 77.8109 147.376 77.815ZM146.585 71.0318C146.415 71.0347 146.248 71.0752 146.095 71.1503C145.943 71.2253 145.808 71.3332 145.702 71.4661C145.427 71.8514 145.232 72.2877 145.128 72.7495C145.024 73.2112 145.014 73.6891 145.097 74.155C145.297 75.8776 146.341 77.327 147.381 77.327C147.552 77.3247 147.72 77.2846 147.874 77.2095C148.027 77.1344 148.162 77.0262 148.269 76.8927C148.543 76.5069 148.737 76.0705 148.841 75.6089C148.945 75.1473 148.956 74.6697 148.874 74.2038C148.684 72.4811 147.639 71.0318 146.605 71.0318H146.585Z" fill="#FF5800"/>
<path opacity="0.2" d="M144.165 61.7792L141.749 62.0916C141.803 62.1989 141.871 62.3014 141.935 62.4039C142.394 63.1359 143.399 63.619 144.443 63.7947C144.217 63.1481 144.122 62.4629 144.165 61.7792Z" fill="black"/>
<path d="M147.298 55.5279C148.64 55.7524 151.148 54.2299 150.563 52.1998C149.811 53.1416 147.298 52.8244 147.298 52.8244V55.5279Z" fill="#263238"/>
<path d="M142.057 57.6751C142.203 59.0317 140.529 61.4473 138.538 60.7397C139.514 60.0467 139.358 57.514 139.358 57.514L142.057 57.6751Z" fill="#263238"/>
<path d="M140.09 55.0398C139.729 57.9386 139.368 59.6222 140.544 61.3838C142.306 64.0044 146.092 63.3358 147.312 60.6177C148.41 58.1777 148.815 53.8296 146.219 52.1606C145.651 51.7918 144.997 51.574 144.321 51.5279C143.645 51.4817 142.968 51.6087 142.355 51.8969C141.741 52.1851 141.211 52.625 140.815 53.1749C140.419 53.7248 140.169 54.3667 140.09 55.0398Z" fill="#B55B52"/>
<path d="M139.69 57.9679C140.398 58.7145 142.345 55.6645 141.988 54.5519C142.72 54.874 144.126 54.2591 144.038 53.0489C146.229 54.2201 149.406 55.1473 149.455 53.0489C149.504 50.9505 147.503 49.3645 145.551 49.1985C145.785 49.8281 145.165 50.0965 143.892 49.8281C142.618 49.5597 137.709 47.3002 138.25 51.8142C136.415 51.9216 136.176 54.2445 139.69 57.9679Z" fill="#263238"/>
<path d="M138.255 56.8407C138.357 57.5687 138.743 58.2268 139.329 58.6706C140.11 59.2514 140.598 58.6365 140.671 57.7191C140.739 56.8895 140.671 55.5914 139.739 55.3718C139.536 55.3276 139.326 55.3348 139.126 55.3927C138.927 55.4506 138.746 55.5574 138.598 55.7033C138.451 55.8493 138.342 56.0298 138.282 56.2284C138.222 56.4271 138.213 56.6375 138.255 56.8407Z" fill="#B55B52"/>
<path d="M142.681 91.6399L153.007 90.8737C153.007 90.8737 154.345 112.068 154.242 121.052C154.14 130.402 149.85 153.323 149.85 153.323L144.863 153.401C144.863 153.401 145.258 131.168 145.258 121.989C145.258 109.628 142.667 91.6399 142.667 91.6399" fill="#263238"/>
<path opacity="0.2" d="M146.673 113.673C146.81 114.283 150.65 131.465 151.89 141.489C152.549 137.321 153.227 132.642 153.686 128.508L146.673 113.673Z" fill="black"/>
<path d="M147.434 91.2935C147.434 91.2935 155.296 110.55 157.068 118.997C159.02 128.245 162.118 151.635 162.118 151.635L156.785 152.464C156.785 152.464 152.749 134.979 150.489 126.049C147.922 115.869 137.743 99.7505 137.313 92.045L147.434 91.2935Z" fill="#263238"/>
<path d="M162.787 152.088L156.16 153.64L155.325 151.088L162.562 149.849L162.787 152.088Z" fill="#FF5800"/>
<path d="M150.494 153.435L144.551 153.528L144.521 151.61L151.158 151.405L150.494 153.435Z" fill="#FF5800"/>
<path d="M144.131 56.543C144.087 56.7772 144.175 56.987 144.326 57.031C144.477 57.0749 144.638 56.8943 144.682 56.6601C144.726 56.4258 144.638 56.216 144.482 56.1721C144.326 56.1282 144.175 56.3087 144.131 56.543Z" fill="#263238"/>
<path d="M147.02 57.1579C146.976 57.3873 147.064 57.602 147.215 57.646C147.366 57.6899 147.527 57.5093 147.571 57.2751C147.615 57.0408 147.527 56.8261 147.376 56.7871C147.225 56.748 147.064 56.9237 147.02 57.1579Z" fill="#263238"/>
<path d="M146.068 57.0992C146.213 57.865 146.463 58.6073 146.81 59.305C146.629 59.3889 146.431 59.4324 146.232 59.4324C146.032 59.4324 145.835 59.3889 145.653 59.305L146.068 57.0992Z" fill="#A02724"/>
<path d="M145.16 60.0225C144.899 59.9682 144.652 59.861 144.433 59.7074C144.215 59.5538 144.031 59.3571 143.892 59.1294C143.883 59.1125 143.881 59.0929 143.887 59.0747C143.892 59.0565 143.904 59.0411 143.921 59.0318C143.937 59.0245 143.956 59.0235 143.973 59.0288C143.99 59.0342 144.004 59.0457 144.014 59.0611C144.173 59.3104 144.388 59.5189 144.642 59.6697C144.896 59.8206 145.183 59.9097 145.478 59.9297C145.493 59.9339 145.507 59.9431 145.517 59.9559C145.527 59.9687 145.532 59.9843 145.532 60.0005C145.532 60.0166 145.527 60.0323 145.517 60.0451C145.507 60.0579 145.493 60.0671 145.478 60.0713C145.371 60.0641 145.265 60.0478 145.16 60.0225Z" fill="#263238"/>
<path d="M143.843 55.4987C143.82 55.4886 143.799 55.4755 143.779 55.4597C143.755 55.4321 143.742 55.3965 143.742 55.3597C143.742 55.3228 143.755 55.2872 143.779 55.2596C143.941 55.1075 144.136 54.9959 144.349 54.934C144.562 54.872 144.787 54.8615 145.004 54.9034C145.04 54.9136 145.07 54.9372 145.088 54.9691C145.106 55.0009 145.111 55.0386 145.102 55.0742C145.093 55.1091 145.07 55.1389 145.039 55.1572C145.008 55.1754 144.971 55.1807 144.936 55.1718C144.761 55.1404 144.582 55.151 144.412 55.2027C144.242 55.2545 144.087 55.3459 143.96 55.4695C143.944 55.4827 143.925 55.4921 143.905 55.4972C143.885 55.5023 143.863 55.5028 143.843 55.4987Z" fill="#263238"/>
<path d="M148.576 56.4307C148.554 56.4234 148.534 56.4107 148.518 56.3936C148.502 56.3766 148.49 56.3558 148.484 56.3331C148.444 56.1629 148.364 56.0047 148.25 55.8722C148.136 55.7396 147.992 55.6366 147.83 55.5718C147.794 55.5606 147.765 55.5359 147.747 55.503C147.73 55.4701 147.726 55.4317 147.737 55.3962C147.748 55.3607 147.773 55.3311 147.806 55.3138C147.839 55.2964 147.877 55.2927 147.913 55.3034C148.121 55.3857 148.307 55.5176 148.453 55.6877C148.599 55.8577 148.702 56.0608 148.752 56.2794C148.758 56.297 148.76 56.3157 148.758 56.3342C148.757 56.3527 148.751 56.3706 148.742 56.3867C148.732 56.4028 148.72 56.4168 148.705 56.4278C148.69 56.4387 148.673 56.4464 148.655 56.4502C148.627 56.4541 148.599 56.4471 148.576 56.4307Z" fill="#263238"/>
<path d="M163.353 155.441C163.12 155.555 162.874 155.642 162.621 155.7C162.611 155.708 162.598 155.713 162.585 155.713C162.571 155.713 162.558 155.708 162.548 155.7C162.54 155.688 162.536 155.675 162.536 155.661C162.536 155.647 162.54 155.633 162.548 155.622C162.611 155.514 163.187 154.558 163.553 154.558C163.595 154.558 163.635 154.569 163.67 154.591C163.706 154.612 163.734 154.643 163.753 154.68C163.792 154.737 163.815 154.804 163.822 154.873C163.829 154.941 163.819 155.011 163.792 155.075C163.689 155.241 163.535 155.37 163.353 155.441ZM162.753 155.519C163.111 155.466 163.435 155.28 163.661 154.997C163.678 154.953 163.684 154.905 163.678 154.858C163.672 154.812 163.654 154.767 163.626 154.729C163.597 154.68 163.573 154.675 163.548 154.675C163.358 154.675 162.992 155.148 162.753 155.519Z" fill="#FF5800"/>
<path d="M162.636 155.695H162.597C162.584 155.693 162.572 155.688 162.562 155.68C162.552 155.672 162.544 155.662 162.538 155.651C162.361 155.269 162.303 154.842 162.372 154.426C162.393 154.376 162.423 154.331 162.462 154.293C162.5 154.255 162.546 154.226 162.597 154.206C162.643 154.183 162.696 154.177 162.747 154.188C162.798 154.2 162.843 154.229 162.875 154.27C163.085 154.533 162.875 155.378 162.66 155.665C162.658 155.672 162.655 155.678 162.651 155.683C162.647 155.688 162.642 155.692 162.636 155.695ZM162.636 154.362C162.583 154.389 162.541 154.434 162.519 154.489C162.46 154.819 162.501 155.159 162.636 155.465C162.797 155.119 162.909 154.514 162.787 154.362C162.787 154.362 162.748 154.314 162.665 154.362H162.636Z" fill="#FF5800"/>
<path d="M148.713 157.398C148.7 157.393 148.69 157.384 148.682 157.373C148.674 157.362 148.67 157.348 148.67 157.335C148.67 157.321 148.674 157.308 148.682 157.296C148.69 157.285 148.7 157.276 148.713 157.271C148.845 157.198 150.021 156.578 150.382 156.783C150.415 156.802 150.443 156.829 150.464 156.861C150.484 156.894 150.496 156.93 150.499 156.969C150.507 157.031 150.499 157.095 150.477 157.155C150.455 157.214 150.419 157.267 150.372 157.31C150.055 157.598 149.211 157.496 148.733 157.408L148.713 157.398ZM150.304 156.886C149.835 156.913 149.379 157.053 148.977 157.296C149.414 157.42 149.88 157.385 150.294 157.198C150.325 157.169 150.349 157.133 150.362 157.093C150.376 157.053 150.379 157.01 150.372 156.969C150.373 156.953 150.369 156.938 150.361 156.925C150.353 156.912 150.342 156.902 150.328 156.895L150.304 156.886Z" fill="#FF5800"/>
<path d="M148.713 157.398C148.704 157.39 148.696 157.381 148.691 157.37C148.686 157.359 148.683 157.347 148.684 157.334C148.71 156.918 148.863 156.519 149.123 156.193C149.23 156.101 149.368 156.056 149.508 156.066C149.704 156.066 149.757 156.183 149.772 156.261C149.831 156.593 149.138 157.237 148.796 157.403C148.784 157.411 148.769 157.415 148.754 157.414C148.739 157.414 148.724 157.408 148.713 157.398ZM149.548 156.212C149.525 156.206 149.502 156.206 149.479 156.212C149.428 156.206 149.376 156.211 149.328 156.227C149.279 156.243 149.234 156.27 149.196 156.305C148.98 156.563 148.848 156.882 148.82 157.217C149.182 156.998 149.65 156.485 149.616 156.29C149.616 156.261 149.606 156.232 149.548 156.212Z" fill="#FF5800"/>
<path d="M139.866 70.1093C138.89 71.8417 137.914 73.6913 137.035 75.5115C136.15 77.2908 135.392 79.1302 134.766 81.0161C134.693 81.2455 134.639 81.47 134.571 81.6945C134.546 81.7969 134.503 81.9433 134.488 82.0116C134.472 82.0679 134.459 82.1249 134.449 82.1825C134.407 82.4892 134.415 82.8007 134.473 83.1048C134.67 83.9401 134.99 84.7413 135.425 85.4813C136.438 87.1869 137.618 88.7873 138.948 90.2589L137.533 91.9571C135.646 90.7091 133.969 89.169 132.565 87.3943C131.783 86.4057 131.177 85.2897 130.774 84.0954C130.542 83.3825 130.438 82.634 130.467 81.8848C130.467 81.6847 130.506 81.4749 130.53 81.2748C130.555 81.0747 130.584 80.9722 130.613 80.8161C130.672 80.533 130.725 80.2353 130.789 79.9572C131.336 77.7898 132.077 75.6763 133.004 73.6425C133.894 71.6439 134.904 69.7014 136.03 67.8255L139.866 70.1093Z" fill="#B55B52"/>
<path d="M136.801 66.1127C134.083 66.8593 131.433 74.4965 131.433 74.4965L137.977 76.3119C139.124 74.704 140.039 72.943 140.695 71.0805C142.071 67.3669 140.09 65.2148 136.801 66.1127Z" fill="#FF5800"/>
<g opacity="0.2">
<path opacity="0.2" d="M136.801 66.1127C134.083 66.8593 131.433 74.4965 131.433 74.4965L137.977 76.3119C139.124 74.704 140.039 72.943 140.695 71.0805C142.071 67.3669 140.09 65.2148 136.801 66.1127Z" fill="black"/>
</g>
<path d="M137.694 89.7563L140.681 90.542L139.495 93.348C139.495 93.348 136.816 92.7819 136.83 91.3228L137.694 89.7563Z" fill="#B55B52"/>
<path d="M141.827 92.4452L140.944 94.6656L139.495 93.348L140.681 90.542L141.827 92.4452Z" fill="#B55B52"/>
</svg>
