<svg width="16" height="16" viewBox="0 0 16 16" fill="none" xmlns="http://www.w3.org/2000/svg">
<path d="M8.0001 0C10.4201 0 12.4001 1.93171 12.4001 4.29268C12.4001 6.65366 10.4201 8.58537 8.0001 8.58537C5.5801 8.58537 3.6001 6.65366 3.6001 4.29268C3.6001 1.93171 5.5801 0 8.0001 0Z" fill="#FF5800"/>
<path d="M8 9.75589C8.6 9.75589 9.18 9.65833 9.74 9.48272C11.5 8.91686 13.44 9.38515 14.62 10.7705C15.48 11.8047 16 13.1315 16 14.5559C16 15.3559 15.34 15.9998 14.52 15.9998H1.48C0.66 15.9998 0 15.3559 0 14.5559C0 13.1315 0.52 11.8047 1.38 10.7705C2.54 9.38515 4.5 8.91686 6.26 9.48272C6.82 9.65833 7.4 9.75589 8 9.75589Z" fill="#FF5800"/>
</svg>
